SplineFontDB: 3.2
FontName: xkcdScript
FullName: xkcd-Script-Regular
FamilyName: xkcd Script
Weight: Regular
Copyright: Copyright (c) ipython/xkcd-font contributors, Creative Commons Attribution-NonCommercial 3.0 License
UComments: "Created with FontForge (http://fontforge.org)"
Version: 1.0
ItalicAngle: 0
UnderlinePosition: -102.4
UnderlineWidth: 51.2
Ascent: 600
Descent: 256
InvalidEm: 0
LayerCount: 2
Layer: 0 0 "Back" 1
Layer: 1 0 "Fore" 0
XUID: [-1]
UniqueID: -1
StyleMap: 0x0000
FSType: 0
OS2Version: 0
OS2_WeightWidthSlopeOnly: 0
OS2_UseTypoMetrics: 1
CreationTime: 946684800
ModificationTime: 946684800
PfmFamily: 64
TTFWeight: 400
TTFWidth: 5
LineGap: 77
VLineGap: 77
Panose: 3 0 5 3 0 0 0 0 0 0
OS2TypoAscent: 855
OS2TypoAOffset: 0
OS2TypoDescent: -270
OS2TypoDOffset: 0
OS2TypoLinegap: 77
OS2WinAscent: 855
OS2WinAOffset: 0
OS2WinDescent: 270
OS2WinDOffset: 0
HheadAscent: 855
HheadAOffset: 0
HheadDescent: -270
HheadDOffset: 0
OS2SubXSize: 556
OS2SubYSize: 599
OS2SubXOff: 0
OS2SubYOff: 119
OS2SupXSize: 556
OS2SupYSize: 599
OS2SupXOff: 0
OS2SupYOff: 410
OS2StrikeYSize: 42
OS2StrikeYPos: 221
OS2CapHeight: 592
OS2XHeight: 338
OS2Vendor: 'PfEd'
Lookup: 4 0 1 "ligatures" { "liga"  } ['liga' ('latn' <'dflt' > ) ]
Lookup: 260 0 0 "below" { "below_sub"  } ['mark' ('latn' <'dflt' > ) ]
Lookup: 260 0 0 "above" { "above_sub"  } ['mark' ('latn' <'dflt' > ) ]
Lookup: 258 0 0 "kerning" { "kern"  } ['kern' ('latn' <'dflt' > ) ]
DEI: 91125
Encoding: UnicodeFull
UnicodeInterp: none
NameList: AGL For New Fonts
DisplaySize: -48
AntiAlias: 1
FitToEm: 0
BeginPrivate: 8
BlueValues 24 [-20 20 411 450 573 613]
OtherBlues 11 [-241 -190]
BlueScale 9 0.0208333
BlueShift 2 16
StdHW 2 74
StdVW 2 76
StemSnapH 30 [53 61 70 74 78 83 87 172 220]
StemSnapV 16 [60 70 76 80 85]
EndPrivate
AnchorClass2: "below" "below_sub" "above" "above_sub"
BeginChars: 1114203 570

StartChar: a
Encoding: 97 97 0
Width: 389
VWidth: 527
Flags: HW
AnchorPoint: "above" 187.044 426.209 basechar 0
LayerCount: 2
Fore
SplineSet
148 395 m 0
 153 395 168 408 194 406 c 0
 204 405 230 396 231 393 c 0
 233 388 251 376 249 373 c 0
 249 373 267 350 270 333 c 0
 272 323 273 317 275 317 c 0
 276 317 277 318 277 319 c 0
 277 319 280 329 305 325 c 0
 330 322 333 319 335 302 c 0
 336 297 337 293 338 292 c 0
 343 286 336 238 325 206 c 0
 312 167 317 89 360 62 c 0
 371 55 372 49 361 27 c 0
 352 8 347 2 336 -0 c 0
 313 -4 273 39 273 44 c 0
 273 45 270 52 266 60 c 2
 259 74 l 1
 250 66 l 2
 249 65 201 23 178 17 c 0
 119 1 102 2 58 26 c 0
 38 37 17 85 17 88 c 0
 17 89 2 130 6 142 c 0
 10 151 2 166 9 200 c 0
 19 244 47 298 56 309 c 0
 87 350 99 364 138 390 c 0
 142 393 146 395 148 395 c 0
251 273 m 0
 220 270 203 336 192 336 c 0
 189 336 153 312 148 306 c 0
 147 305 82 232 82 163 c 0
 82 19 192 99 223 150 c 0
 234 169 245 196 245 209 c 0
 245 225 253 268 253 269 c 0
 254 273 254 273 251 273 c 0
EndSplineSet
EndChar

StartChar: k
Encoding: 107 107 1
Width: 409
VWidth: 715
Flags: HW
AnchorPoint: "above" 199.58 560.497 basechar 0
LayerCount: 2
Fore
SplineSet
44 517 m 0
 44 543 66 541 80 540 c 0
 97 539 103 536 103 529 c 0
 103 527 104 523 106 521 c 0
 114 509 107 343 102 304 c 2
 101 296 l 1
 113 307 l 2
 146 338 206 377 207 377 c 0
 210 377 294 435 295 435 c 0
 307 439 320 439 324 436 c 0
 326 434 340 412 346 401 c 0
 350 393 349 383 343 378 c 0
 336 372 324 363 318 360 c 0
 312 356 261 322 245 314 c 0
 244 313 165 258 157 248 c 0
 153 243 170 234 170 234 c 0
 174 234 206 207 211 204 c 0
 237 187 271 135 304 102 c 0
 352 54 379 26 378 24 c 0
 375 21 386 17 387 1 c 0
 388 -5 388 -10 389 -11 c 0
 390 -13 383 -24 380 -24 c 0
 377 -24 378 -28 361 -33 c 0
 355 -35 348 -37 347 -38 c 0
 344 -40 329 -39 329 -36 c 0
 329 -35 328 -34 327 -34 c 0
 323 -34 324 -28 302 -6 c 0
 287 9 256 39 198 108 c 0
 182 128 147 160 132 169 c 0
 121 176 101 184 97 184 c 0
 94 184 89 105 89 104 c 0
 89 73 88 29 86 26 c 0
 75 4 28 8 16 21 c 0
 10 28 9 33 11 55 c 0
 11 56 11 95 13 113 c 0
 13 116 28 295 30 368 c 0
 33 465 44 502 44 517 c 0
EndSplineSet
EndChar

StartChar: l
Encoding: 108 108 2
Width: 157
VWidth: 810
Flags: HW
AnchorPoint: "above" 76.1467 639 basechar 0
LayerCount: 2
Fore
SplineSet
44 587 m 0
 51 612 53 619 68 619 c 0
 82 619 109 614 112 610 c 0
 113 608 114 601 114 594 c 0
 113 572 119 586 115 564 c 0
 114 556 112 538 112 522 c 0
 112 458 90 247 97 233 c 0
 100 229 100 138 103 122 c 0
 106 106 109 68 113 51 c 0
 115 46 128 49 130 27 c 0
 131 16 133 16 132 13 c 0
 132 12 131 7 131 4 c 0
 131 -2 118 -17 110 -20 c 0
 103 -23 78 -21 72 -17 c 0
 64 -12 50 3 49 8 c 0
 45 25 34 44 32 87 c 0
 32 88 26 146 26 163 c 0
 26 209 14 228 24 320 c 0
 29 363 37 495 37 531 c 0
 37 561 38 565 44 587 c 0
EndSplineSet
EndChar

StartChar: m
Encoding: 109 109 3
Width: 569
VWidth: 609
Flags: HW
AnchorPoint: "above" 269.535 473.114 basechar 0
LayerCount: 2
Fore
SplineSet
233 101 m 0
 191 101 188 111 188 194 c 0
 188 240 185 310 182 328 c 0
 180 344 170 363 161 370 c 2
 154 376 l 1
 145 366 l 2
 115 333 100 262 100 261 c 0
 100 251 91 231 93 208 c 0
 95 187 95 43 98 29 c 0
 100 22 100 20 97 13 c 0
 90 -2 89 -3 64 -4 c 0
 45 -5 41 -5 37 -2 c 0
 27 4 22 12 22 20 c 0
 22 41 10 53 10 115 c 0
 10 120 10 232 23 256 c 0
 24 258 25 276 26 304 c 2
 27 349 l 1
 33 357 l 2
 38 365 39 365 47 366 c 2
 56 367 l 1
 66 384 l 2
 109 459 157 453 158 453 c 0
 161 452 166 451 174 449 c 0
 185 447 212 430 219 420 c 0
 230 405 257 365 258 326 c 0
 258 313 300 411 395 436 c 0
 407 439 438 440 450 438 c 0
 457 437 476 425 483 418 c 0
 492 409 512 375 512 368 c 0
 512 367 522 342 524 311 c 0
 524 305 526 292 527 284 c 0
 534 233 521 122 521 120 c 0
 520 115 516 87 511 34 c 0
 509 10 509 9 503 3 c 0
 497 -3 496 -2 476 -3 c 2
 456 -4 l 1
 449 3 l 2
 434 19 432 22 442 101 c 0
 446 134 458 219 454 247 c 0
 453 256 451 271 450 280 c 0
 446 335 438 363 424 365 c 0
 417 366 399 361 386 353 c 0
 374 346 342 312 327 291 c 0
 326 290 281 223 264 129 c 0
 263 123 256 108 252 104 c 0
 249 101 245 101 233 101 c 0
EndSplineSet
EndChar

StartChar: n
Encoding: 110 110 4
Width: 358
VWidth: 565
Flags: HW
AnchorPoint: "above" 176.304 448.61 basechar 0
LayerCount: 2
Fore
SplineSet
176 427 m 0
 183 431 219 427 225 421 c 0
 234 412 229 425 250 404 c 0
 287 367 308 284 308 281 c 0
 308 269 326 212 328 169 c 0
 328 159 329 148 330 145 c 0
 334 120 334 49 330 27 c 0
 328 13 325 -4 317 -16 c 0
 315 -20 312 -23 312 -24 c 0
 312 -24 296 -35 279 -23 c 0
 274 -19 267 -15 263 -14 c 0
 251 -9 248 0 252 20 c 0
 252 22 263 103 251 183 c 0
 249 196 237 249 231 273 c 0
 224 302 204 347 196 351 c 0
 195 351 183 357 146 320 c 0
 123 297 118 290 109 269 c 0
 97 240 96 232 97 183 c 0
 98 159 99 136 100 133 c 0
 107 112 111 37 106 26 c 0
 105 23 104 19 105 19 c 0
 105 19 104 15 101 10 c 0
 94 -3 86 -6 59 -7 c 0
 33 -8 25 34 25 36 c 0
 25 41 23 52 22 61 c 0
 20 77 19 85 20 278 c 0
 20 366 19 360 41 365 c 0
 54 368 55 368 61 365 c 0
 64 363 68 360 68 359 c 0
 68 350 77 360 83 365 c 0
 128 409 140 407 148 415 c 0
 153 420 172 424 176 427 c 0
EndSplineSet
EndChar

StartChar: o
Encoding: 111 111 5
Width: 381
VWidth: 542
Flags: HW
AnchorPoint: "above" 178.164 435.253 basechar 0
LayerCount: 2
Fore
SplineSet
163 408 m 0
 165 408 173 412 183 414 c 0
 205 418 238 412 254 402 c 0
 254 402 260 401 281 386 c 0
 289 381 313 355 314 351 c 0
 316 345 328 327 328 325 c 0
 328 323 366 254 345 175 c 0
 338 149 334 138 332 136 c 0
 329 134 326 125 316 111 c 0
 284 68 285 68 272 55 c 0
 262 45 234 24 230 24 c 0
 229 24 193 1 156 -6 c 0
 125 -12 83 -6 65 8 c 0
 61 11 55 15 52 17 c 0
 37 26 18 57 9 89 c 0
 5 103 5 108 5 150 c 0
 5 201 6 204 21 253 c 0
 37 304 57 331 57 332 c 0
 57 333 95 391 139 403 c 0
 148 405 161 408 163 408 c 0
221 295 m 0
 217 295 203 310 201 310 c 0
 199 310 197 317 189 322 c 0
 179 327 179 332 177 329 c 0
 175 326 162 326 160 329 c 0
 157 334 151 330 139 317 c 0
 124 300 93 266 79 172 c 0
 75 143 76 121 85 98 c 0
 95 72 103 67 134 67 c 0
 170 67 222 95 259 160 c 0
 264 168 287 215 268 276 c 0
 265 284 251 310 249 310 c 0
 248 310 225 295 221 295 c 0
EndSplineSet
EndChar

StartChar: p
Encoding: 112 112 6
Width: 407
VWidth: 639
Flags: HW
AnchorPoint: "above" 194.633 463.314 basechar 0
LayerCount: 2
Fore
SplineSet
203 442 m 0
 207 444 206 444 225 440 c 0
 259 432 273 426 289 415 c 0
 294 411 300 409 301 409 c 0
 302 410 354 364 371 295 c 0
 374 282 375 286 378 274 c 0
 388 234 389 203 384 167 c 0
 384 166 377 128 368 115 c 0
 364 109 361 103 361 102 c 0
 361 101 334 69 312 58 c 0
 305 55 300 51 299 50 c 0
 298 49 230 24 172 39 c 0
 154 43 131 47 103 61 c 2
 89 68 l 1
 89 49 l 2
 89 48 85 25 84 -50 c 0
 83 -92 82 -131 81 -135 c 0
 79 -142 79 -158 79 -176 c 0
 79 -191 69 -211 60 -211 c 0
 58 -211 54 -212 52 -213 c 0
 45 -216 16 -205 15 -204 c 0
 3 -197 0 -181 4 -151 c 0
 8 -123 17 197 21 219 c 0
 23 234 23 255 19 263 c 0
 16 270 15 313 23 332 c 0
 26 338 28 344 28 346 c 0
 28 354 62 392 66 398 c 0
 74 410 139 434 140 435 c 0
 143 440 202 442 203 442 c 0
210 366 m 0
 181 369 169 369 148 362 c 0
 124 355 106 344 96 331 c 2
 89 322 l 1
 90 308 l 2
 91 301 91 261 92 220 c 2
 93 145 l 1
 100 145 l 2
 104 145 112 141 124 134 c 0
 148 120 151 118 178 113 c 0
 214 105 277 102 303 154 c 0
 324 196 307 356 210 366 c 0
EndSplineSet
EndChar

StartChar: q
Encoding: 113 113 7
Width: 388
VWidth: 568
Flags: HW
AnchorPoint: "above" 201 406 basechar 0
LayerCount: 2
Fore
SplineSet
198 316 m 0
 153 316 103 253 88 226 c 0
 78 206 71 188 71 154 c 0
 71 110 98 97 123 91 c 0
 133 88 138 88 144 88 c 0
 155 88 190 88 231 113 c 0
 250 123 254 127 255 132 c 0
 268 193 270 206 271 212 c 0
 272 224 280 249 285 275 c 1
 271 277 236 305 236 305 c 0
 236 305 215 316 198 316 c 0
209 384 m 0
 246 384 298 342 303 335 c 1
 307 341 311 344 323 344 c 0
 363 344 363 336 363 327 c 0
 363 297 354 255 351 252 c 0
 351 251 332 151 332 137 c 0
 332 135 334 131 334 124 c 0
 334 119 332 114 328 109 c 0
 319 94 314 24 314 -8 c 0
 314 -33 314 -80 338 -128 c 0
 342 -134 348 -143 349 -144 c 1
 352 -141 356 -139 360 -139 c 0
 371 -139 382 -151 388 -153 c 0
 399 -158 402 -180 402 -183 c 0
 402 -190 390 -209 370 -214 c 1
 354 -218 354 -218 350 -218 c 0
 347 -218 303 -218 274 -160 c 0
 265 -142 255 -112 251 -96 c 0
 249 -89 247 -80 246 -78 c 0
 243 -71 241 -57 241 -51 c 0
 241 -47 242 -46 242 -45 c 0
 242 -44 l 0
 240 -30 239 -19 239 -7 c 0
 239 6 240 20 242 39 c 1
 241 39 195 19 147 19 c 0
 132 19 121 20 98 26 c 0
 76 30 28 62 27 73 c 0
 26 75 8 101 6 117 c 0
 5 122 1 135 1 141 c 0
 1 145 0 152 0 159 c 0
 0 202 20 244 29 262 c 0
 39 283 92 349 105 350 c 1
 111 356 111 356 114 356 c 0
 120 360 154 384 194 386 c 0
 199 386 202 384 209 384 c 0
EndSplineSet
EndChar

StartChar: r
Encoding: 114 114 8
Width: 405
VWidth: 554
Flags: HW
AnchorPoint: "above" 204.908 445.044 basechar 0
LayerCount: 2
Fore
SplineSet
61 374 m 0
 62 374 107 420 197 423 c 0
 212 424 225 425 226 425 c 0
 231 426 308 410 360 381 c 0
 365 378 374 369 382 360 c 0
 397 343 396 344 393 325 c 0
 392 317 383 309 375 307 c 0
 372 306 366 305 364 303 c 0
 354 297 338 300 321 314 c 0
 269 357 177 349 169 347 c 0
 139 340 115 323 103 303 c 0
 97 292 96 289 100 289 c 0
 102 289 103 286 103 276 c 0
 103 192 109 120 110 88 c 0
 111 62 111 38 113 31 c 0
 118 9 120 -10 67 -10 c 0
 46 -10 39 -10 32 48 c 0
 23 98 15 144 15 217 c 0
 15 274 15 277 19 293 c 0
 25 314 41 347 49 355 c 0
 57 362 59 374 61 374 c 0
EndSplineSet
EndChar

StartChar: s
Encoding: 115 115 9
Width: 365
VWidth: 579
Flags: HW
AnchorPoint: "above" 172.893 468.712 basechar 0
LayerCount: 2
Fore
SplineSet
159 448 m 0
 167 449 189 451 218 437 c 0
 231 431 233 430 237 421 c 0
 239 416 241 411 241 409 c 0
 241 408 237 399 232 389 c 0
 204 339 199 390 141 366 c 0
 102 350 76 302 88 298 c 0
 89 297 103 297 119 299 c 2
 147 302 l 1
 173 315 l 2
 189 323 217 338 239 337 c 0
 255 337 268 334 270 332 c 0
 270 332 305 316 317 293 c 0
 319 289 321 285 320 285 c 0
 318 285 325 279 324 271 c 0
 323 260 337 221 335 192 c 0
 332 146 317 116 282 83 c 0
 254 57 234 38 221 36 c 0
 216 35 204 27 153 16 c 0
 149 15 136 14 126 14 c 0
 108 14 109 14 89 24 c 0
 73 32 68 36 63 43 c 0
 55 55 44 64 31 85 c 0
 18 108 14 148 22 158 c 0
 31 169 31 170 50 172 c 0
 74 175 77 173 81 153 c 0
 83 143 92 136 92 129 c 0
 92 123 101 109 114 97 c 0
 123 88 124 88 133 89 c 0
 155 92 187 97 205 114 c 0
 211 119 222 129 230 136 c 0
 236 141 257 161 260 185 c 0
 261 195 252 254 248 259 c 0
 244 265 231 262 211 252 c 0
 170 231 157 227 106 223 c 0
 70 220 73 226 51 229 c 0
 47 230 23 246 15 271 c 0
 14 273 14 275 14 275 c 1
 8 307 8 326 30 365 c 0
 61 422 133 444 159 448 c 0
EndSplineSet
EndChar

StartChar: t
Encoding: 116 116 10
Width: 333
VWidth: 788
Flags: HW
AnchorPoint: "above" 156.614 626 basechar 0
LayerCount: 2
Fore
SplineSet
128 593 m 0
 128 597 138 606 138 606 c 0
 138 606 148 604 159 602 c 0
 191 596 190 600 177 512 c 0
 170 467 161 431 161 430 c 2
 160 421 l 1
 196 421 l 2
 232 421 272 419 281 415 c 0
 288 413 293 404 293 394 c 0
 293 389 293 384 294 383 c 0
 296 381 294 367 292 367 c 0
 291 367 286 346 272 346 c 0
 149 346 149 346 148 343 c 0
 148 342 135 261 135 215 c 0
 135 142 145 106 170 82 c 0
 203 51 249 82 256 89 c 2
 265 97 l 1
 279 96 l 2
 314 93 314 81 313 62 c 0
 312 42 310 37 298 27 c 0
 292 22 262 4 262 6 c 0
 262 7 193 -22 139 13 c 0
 118 27 113 31 96 55 c 0
 89 65 77 90 76 97 c 0
 75 100 73 109 71 117 c 0
 63 147 58 199 61 229 c 0
 61 230 67 314 69 320 c 0
 74 338 72 338 44 337 c 0
 24 336 24 337 15 343 c 0
 7 348 5 350 3 357 c 0
 0 370 -1 387 1 391 c 0
 3 396 12 403 16 404 c 0
 21 406 70 413 76 413 c 0
 83 413 83 412 87 439 c 0
 99 516 122 581 122 582 c 0
 122 586 128 588 128 593 c 0
EndSplineSet
EndChar

StartChar: b
Encoding: 98 98 11
Width: 364
VWidth: 789
Flags: HW
AnchorPoint: "above" 169.549 632 basechar 0
LayerCount: 2
Fore
SplineSet
209 411 m 0
 244 411 257 403 257 403 c 0
 258 403 297 385 311 336 c 0
 322 298 332 217 328 195 c 0
 326 183 330 183 324 162 c 0
 315 129 309 116 309 116 c 0
 309 111 279 67 270 58 c 0
 256 44 218 24 198 19 c 0
 184 16 151 16 136 19 c 0
 125 21 99 31 95 35 c 0
 78 50 65 39 65 40 c 0
 65 44 51 29 40 35 c 0
 6 52 8 86 13 123 c 0
 21 179 35 509 36 513 c 0
 42 554 37 590 45 601 c 0
 50 609 55 612 74 612 c 0
 92 612 98 608 103 597 c 0
 107 588 109 474 106 427 c 0
 105 409 104 388 103 379 c 2
 102 363 l 1
 109 369 l 2
 131 386 154 395 159 399 c 0
 165 404 194 411 209 411 c 0
252 255 m 0
 244 358 211 341 183 328 c 0
 122 299 107 216 107 215 c 0
 107 214 91 142 91 133 c 2
 91 124 l 1
 109 111 l 2
 147 84 169 82 202 100 c 0
 215 107 221 113 230 127 c 0
 252 161 257 188 252 255 c 0
EndSplineSet
EndChar

StartChar: u
Encoding: 117 117 12
Width: 412
VWidth: 546
Flags: HW
AnchorPoint: "above" 196.37 441.338 basechar 0
LayerCount: 2
Fore
SplineSet
299 410 m 0
 323 425 339 431 358 390 c 0
 370 364 374 349 376 321 c 0
 378 287 378 203 376 196 c 0
 375 192 374 180 372 168 c 0
 367 131 356 102 342 84 c 0
 330 68 313 51 309 50 c 0
 308 50 275 25 206 10 c 0
 153 -2 60 -7 30 88 c 0
 15 137 11 193 20 240 c 0
 25 268 23 299 31 311 c 0
 33 315 43 353 43 356 c 0
 43 363 58 399 62 404 c 0
 67 410 74 414 74 413 c 0
 74 412 75 413 77 414 c 0
 79 416 83 416 100 409 c 0
 126 399 128 395 124 379 c 0
 120 364 126 370 118 347 c 0
 97 283 98 226 93 221 c 0
 91 218 93 152 96 133 c 0
 100 112 104 102 114 90 c 0
 123 80 125 80 158 79 c 0
 187 79 224 86 245 98 c 0
 279 117 291 134 297 176 c 0
 299 190 300 203 301 204 c 0
 303 209 303 286 301 290 c 0
 293 305 308 319 283 376 c 0
 275 395 283 400 299 410 c 0
EndSplineSet
EndChar

StartChar: v
Encoding: 118 118 13
Width: 367
VWidth: 559
Flags: HW
AnchorPoint: "above" 173.442 444.482 basechar 0
LayerCount: 2
Fore
SplineSet
65 375 m 0
 65 372 72 360 72 352 c 0
 72 344 87 315 107 234 c 0
 124 166 124 166 144 104 c 2
 150 87 l 1
 168 124 l 1
 258 308 250 382 283 415 c 0
 288 420 293 423 293 423 c 1
 293 421 299 426 305 424 c 0
 311 422 341 404 343 401 c 0
 348 395 348 387 342 375 c 0
 339 369 326 329 312 286 c 0
 277 176 275 174 230 83 c 0
 215 53 202 28 202 27 c 0
 201 22 182 -6 176 -11 c 0
 176 -11 143 -27 126 -19 c 0
 116 -14 98 6 96 14 c 0
 94 22 86 39 78 64 c 0
 75 74 70 92 66 103 c 0
 44 171 23 268 7 325 c 0
 7 326 -5 378 3 389 c 0
 10 399 16 402 31 403 c 0
 47 404 55 402 55 396 c 0
 55 391 59 391 59 386 c 0
 59 381 65 378 65 375 c 0
EndSplineSet
EndChar

StartChar: w
Encoding: 119 119 14
Width: 480
VWidth: 608
Flags: HW
AnchorPoint: "above" 230.007 483.025 basechar 0
LayerCount: 2
Fore
SplineSet
265 -13 m 0
 250 -13 216 40 216 43 c 0
 216 44 203 75 198 93 c 0
 197 94 193 87 188 77 c 0
 146 -12 82 -4 52 48 c 0
 40 70 49 62 44 67 c 0
 43 68 28 108 25 158 c 0
 23 199 20 164 20 284 c 2
 20 363 l 1
 25 373 l 2
 32 387 35 389 53 389 c 0
 75 389 82 384 82 369 c 0
 82 353 85 389 92 256 c 0
 92 254 101 104 111 94 c 0
 118 87 159 199 159 200 c 0
 159 201 164 209 169 217 c 0
 182 237 192 242 214 238 c 0
 236 234 233 223 241 218 c 0
 243 217 244 215 244 213 c 0
 244 208 249 204 249 190 c 0
 250 179 255 155 257 152 c 0
 262 145 265 106 284 71 c 0
 294 53 293 53 304 65 c 0
 323 85 331 105 346 154 c 0
 364 213 355 244 361 286 c 0
 361 287 369 394 362 401 c 0
 356 408 359 443 366 450 c 0
 371 455 384 468 398 461 c 0
 401 459 404 458 405 458 c 0
 410 458 412 458 414 456 c 0
 415 455 418 452 421 450 c 0
 439 438 442 394 439 389 c 0
 436 382 441 391 436 292 c 0
 431 181 431 181 413 120 c 0
 413 119 391 49 361 18 c 0
 355 12 350 7 350 6 c 0
 350 5 341 -1 331 -8 c 2
 312 -21 l 1
 295 -21 l 2
 279 -21 268 -19 268 -15 c 0
 268 -14 266 -13 265 -13 c 0
EndSplineSet
EndChar

StartChar: x
Encoding: 120 120 15
Width: 392
VWidth: 542
Flags: HW
AnchorPoint: "above" 188.5 441 basechar 0
LayerCount: 2
Fore
SplineSet
291 421 m 0
 294 421 336 407 336 394 c 0
 336 381 321 351 310 341 c 0
 308 339 274 291 274 290 c 0
 255 268 231 239 225 234 c 0
 225 233 l 2
 219 226 223 227 212 214 c 1
 223 205 265 179 294 154 c 0
 324 127 329 123 360 76 c 0
 368 62 372 57 372 49 c 0
 372 40 368 36 352 26 c 0
 342 19 336 16 328 16 c 0
 321 16 312 16 286 51 c 0
 272 71 205 125 162 153 c 1
 151 141 135 124 86 74 c 0
 79 67 72 54 63 49 c 0
 54 48 53 35 40 35 c 0
 34 35 16 45 11 49 c 0
 7 52 5 59 5 66 c 0
 5 73 7 79 10 87 c 0
 30 127 31 115 35 123 c 0
 43 139 65 154 95 194 c 2
 95 194 98 198 100 201 c 1
 65 236 56 244 56 250 c 0
 53 256 38 269 27 293 c 0
 11 330 6 343 6 379 c 0
 6 395 18 397 31 400 c 0
 41 403 l 1
 41 396 45 397 45 404 c 1
 53 398 63 391 71 368 c 0
 79 343 111 295 148 262 c 1
 154 269 171 288 174 290 c 0
 176 292 219 347 219 348 c 0
 219 349 263 410 279 418 c 0
 283 419 287 421 291 421 c 0
54 50 m 1
 54 50 l 1
EndSplineSet
EndChar

StartChar: y
Encoding: 121 121 16
Width: 429
VWidth: 513
Flags: HW
AnchorPoint: "above" 197.5 378 basechar 0
LayerCount: 2
Fore
SplineSet
349 352 m 0
 354 352 381 346 381 322 c 0
 381 313 379 297 379 287 c 0
 379 273 399 194 399 132 c 0
 399 79 394 47 388 15 c 0
 384 -4 375 -22 372 -36 c 1
 372 -54 335 -111 335 -111 c 0
 292 -163 237 -163 192 -163 c 0
 127 -163 49 -129 22 -105 c 0
 13 -97 14 -99 11 -95 c 0
 2 -84 -4 -66 -4 -54 c 0
 -4 -33 13 -27 16 -27 c 0
 17 -27 17 -28 18 -28 c 0
 18 -28 23 -26 26 -26 c 0
 41 -26 68 -54 115 -71 c 0
 164 -87 165 -88 220 -88 c 0
 232 -88 234 -88 237 -87 c 0
 244 -84 267 -72 268 -71 c 0
 271 -66 281 -55 290 -40 c 0
 291 -39 319 14 322 91 c 0
 322 91 322 95 322 100 c 1
 296 70 259 43 220 26 c 0
 187 11 193 18 178 13 c 0
 174 10 165 8 152 8 c 0
 81 8 62 56 51 87 c 0
 43 108 42 116 42 133 c 0
 42 153 39 147 39 170 c 0
 39 230 40 231 51 314 c 0
 55 342 55 343 63 350 c 0
 69 356 72 358 82 358 c 0
 83 358 84 358 85 358 c 0
 116 358 124 357 124 295 c 0
 124 268 118 245 118 180 c 0
 118 163 118 113 130 87 c 0
 131 85 140 71 148 71 c 0
 197 71 281 147 293 185 c 1
 293 189 295 195 298 202 c 0
 302 213 302 212 302 256 c 2
 302 291 302 291 307 331 c 0
 307 341 324 350 334 350 c 0
 338 350 345 352 349 352 c 0
EndSplineSet
EndChar

StartChar: z
Encoding: 122 122 17
Width: 400
VWidth: 497
Flags: HW
AnchorPoint: "above" 190 404 basechar 0
LayerCount: 2
Fore
SplineSet
41 377 m 0
 47 377 52 381 88 381 c 0
 94 381 101 381 103 380 c 0
 128 383 214 384 215 384 c 0
 308 384 351 383 359 372 c 0
 365 370 380 343 380 338 c 0
 380 336 378 329 378 329 c 1
 378 322 378 328 378 328 c 2
 377 320 362 304 356 303 c 0
 350 298 343 288 338 286 c 0
 309 263 147 86 134 83 c 0
 133 83 132 82 131 81 c 1
 151 83 159 84 164 84 c 0
 165 84 165 84 166 84 c 0
 170 84 195 89 215 89 c 0
 218 89 219 88 221 88 c 2
 222 88 l 1
 223 88 l 0
 234 88 248 89 265 89 c 0
 297 89 333 77 334 77 c 0
 345 70 352 83 371 62 c 0
 374 59 376 56 376 51 c 0
 376 49 375 43 375 34 c 0
 375 33 375 33 375 32 c 0
 375 5 350 3 342 3 c 0
 326 3 296 11 289 11 c 0
 278 11 285 14 256 14 c 0
 215 14 197 10 190 10 c 0
 189 10 l 0
 169 10 136 5 130 5 c 0
 121 5 108 1 102 1 c 0
 101 1 l 0
 101 1 100 1 99 1 c 0
 99 1 111 1 67 -3 c 0
 66 -4 64 -6 61 -6 c 0
 59 -6 l 0
 43 -6 19 5 18 14 c 1
 12 24 9 29 9 39 c 0
 9 75 23 92 93 160 c 0
 107 173 154 222 155 222 c 0
 162 226 196 271 206 273 c 1
 214 280 207 277 222 291 c 0
 234 303 229 302 234 304 c 0
 235 305 238 306 241 309 c 1
 239 309 193 307 193 307 c 0
 190 307 184 308 184 308 c 0
 159 308 48 302 47 302 c 0
 29 302 4 306 4 327 c 0
 4 332 0 345 0 353 c 0
 0 360 2 367 9 370 c 0
 9 370 11 373 17 374 c 0
 20 378 24 378 28 378 c 0
 33 378 36 377 41 377 c 0
EndSplineSet
EndChar

StartChar: c
Encoding: 99 99 18
Width: 358
VWidth: 608
Flags: HW
AnchorPoint: "above" 168.728 491.623 basechar 0
LayerCount: 2
Fore
SplineSet
312 51 m 0
 312 50 236 23 212 24 c 0
 211 24 166 10 108 19 c 0
 94 21 73 28 73 32 c 0
 73 33 72 34 70 34 c 0
 68 34 -11 80 7 199 c 0
 11 223 20 267 23 270 c 0
 25 273 35 300 39 306 c 0
 40 308 45 316 48 324 c 0
 61 355 90 398 115 425 c 0
 127 438 164 465 170 465 c 0
 171 465 176 466 180 468 c 0
 193 474 233 472 240 466 c 0
 242 464 245 463 246 463 c 0
 246 463 266 455 277 435 c 0
 286 419 308 390 308 384 c 0
 308 372 320 379 311 348 c 0
 305 328 282 328 282 332 c 0
 282 334 269 339 263 342 c 0
 251 349 227 398 209 398 c 0
 185 398 128 334 101 261 c 0
 99 255 95 248 94 246 c 0
 84 230 79 170 85 138 c 0
 89 116 100 81 157 91 c 0
 238 106 238 105 256 110 c 0
 309 124 313 125 326 100 c 0
 348 58 312 57 312 51 c 0
EndSplineSet
EndChar

StartChar: d
Encoding: 100 100 19
Width: 401
VWidth: 842
Flags: HW
AnchorPoint: "above" 190.189 671.241 basechar 0
LayerCount: 2
Fore
SplineSet
326 639 m 0
 331 642 332 653 342 651 c 0
 345 650 352 650 358 649 c 0
 368 648 369 647 381 635 c 1
 379 613 l 2
 376 565 365 342 365 339 c 0
 352 217 375 47 345 35 c 0
 342 34 306 30 295 35 c 0
 284 40 268 25 232 21 c 0
 227 20 223 20 222 19 c 0
 218 16 167 11 146 11 c 0
 98 11 61 23 30 51 c 0
 20 60 5 89 1 110 c 0
 -5 139 7 220 15 232 c 0
 16 233 37 304 94 351 c 0
 101 357 129 374 132 374 c 0
 135 374 157 385 170 386 c 0
 173 386 246 401 266 392 c 0
 279 386 278 389 289 383 c 0
 291 382 293 382 293 382 c 2
 293 382 293 398 294 417 c 0
 299 507 314 620 322 626 c 0
 323 627 324 630 324 633 c 0
 324 636 325 639 326 639 c 0
255 319 m 0
 242 325 174 322 136 292 c 0
 116 276 66 203 75 131 c 0
 78 105 83 98 105 89 c 0
 136 76 228 89 267 106 c 2
 280 111 l 1
 280 120 l 2
 280 153 287 238 280 270 c 0
 275 294 265 314 255 319 c 0
EndSplineSet
EndChar

StartChar: e
Encoding: 101 101 20
Width: 385
VWidth: 574
Flags: HW
AnchorPoint: "above" 187.64 464.507 basechar 0
LayerCount: 2
Fore
SplineSet
90 197 m 0
 82 197 82 198 75 209 c 1
 61 142 80 120 95 105 c 0
 110 89 121 83 136 80 c 0
 165 75 268 93 271 92 c 0
 274 91 279 90 283 90 c 0
 303 88 311 51 303 48 c 0
 301 47 291 28 284 28 c 0
 283 28 278 27 274 25 c 0
 232 5 135 0 99 16 c 0
 20 50 7 112 7 113 c 0
 7 116 5 125 3 133 c 0
 -9 184 13 295 59 344 c 0
 63 348 68 355 69 358 c 0
 75 370 119 408 143 420 c 0
 144 420 178 436 198 439 c 0
 202 439 209 441 213 442 c 0
 253 453 311 426 341 396 c 0
 368 369 378 345 375 303 c 0
 374 280 369 266 358 248 c 0
 350 236 327 211 324 211 c 0
 313 209 309 201 267 197 c 0
 203 191 117 184 100 195 c 0
 98 197 93 197 90 197 c 0
258 368 m 0
 235 377 213 374 180 358 c 0
 119 329 91 261 92 260 c 0
 95 257 212 270 243 272 c 0
 279 274 280 275 288 285 c 0
 306 307 293 340 293 341 c 0
 289 348 269 364 258 368 c 0
EndSplineSet
EndChar

StartChar: f
Encoding: 102 102 21
Width: 327
VWidth: 769
Flags: HW
AnchorPoint: "above" 199.607 611.75 basechar 0
LayerCount: 2
Fore
SplineSet
68 308 m 0
 13 308 5 323 4 323 c 0
 4 323 -3 346 3 357 c 0
 10 369 14 372 30 375 c 0
 52 380 65 381 82 382 c 2
 98 383 l 1
 98 408 l 2
 99 434 102 463 105 466 c 0
 107 468 114 496 113 496 c 0
 113 496 115 505 126 523 c 0
 143 552 154 563 180 576 c 0
 207 590 217 586 217 589 c 0
 217 593 271 592 281 590 c 0
 282 590 357 574 386 539 c 0
 390 534 394 530 394 529 c 0
 394 523 402 515 397 504 c 0
 393 495 383 485 375 483 c 0
 363 481 363 475 350 477 c 0
 330 479 343 489 302 505 c 0
 260 522 225 513 220 511 c 0
 193 501 179 469 174 402 c 2
 173 382 l 1
 192 383 l 2
 255 387 253 388 258 383 c 0
 266 376 269 367 270 348 c 2
 271 330 l 1
 263 323 l 2
 254 315 250 314 185 309 c 2
 173 308 l 1
 174 299 l 2
 174 297 187 132 189 122 c 0
 189 121 200 32 191 16 c 0
 186 5 185 5 160 2 c 0
 142 0 129 -1 122 17 c 0
 112 39 114 116 110 139 c 0
 107 154 103 252 101 255 c 0
 99 259 98 304 96 306 c 0
 95 307 83 308 68 308 c 0
EndSplineSet
EndChar

StartChar: g
Encoding: 103 103 22
Width: 389
VWidth: 615
Flags: HW
AnchorPoint: "above" 133.988 437.705 basechar 0
LayerCount: 2
Fore
SplineSet
258 -202 m 0
 258 -206 202 -238 184 -238 c 0
 183 -238 131 -257 71 -239 c 0
 63 -237 54 -234 52 -234 c 0
 48 -234 6 -215 -13 -204 c 0
 -27 -196 -59 -169 -69 -156 c 0
 -108 -107 -88 -64 -66 -64 c 0
 -63 -64 -52 -53 -52 -50 c 0
 -52 -49 -45 -49 -48 -59 c 0
 -52 -73 -39 -56 -26 -86 c 0
 -21 -97 0 -120 13 -131 c 0
 42 -154 95 -172 137 -172 c 0
 165 -172 196 -158 217 -136 c 0
 272 -78 286 44 284 48 c 0
 283 49 251 25 223 17 c 0
 176 2 133 7 121 14 c 0
 113 19 103 20 103 22 c 0
 103 23 102 23 101 23 c 0
 94 21 55 54 44 72 c 0
 39 79 26 109 20 125 c 0
 -2 185 19 270 21 272 c 0
 31 287 38 331 78 363 c 0
 78 363 108 389 109 389 c 0
 114 389 124 405 166 414 c 0
 215 425 251 408 252 408 c 0
 256 408 267 401 277 399 c 0
 278 399 309 384 318 367 c 0
 320 363 325 355 328 350 c 0
 333 342 334 339 334 329 c 0
 334 304 318 288 321 284 c 0
 322 283 328 281 332 281 c 0
 334 281 351 264 354 259 c 0
 359 251 360 207 356 180 c 0
 351 147 364 56 357 24 c 0
 353 9 351 -22 343 -45 c 0
 340 -55 338 -66 337 -71 c 0
 337 -72 320 -138 264 -195 c 0
 261 -198 258 -201 258 -202 c 0
221 341 m 0
 199 346 201 346 182 341 c 0
 122 324 86 268 86 190 c 0
 86 152 97 123 118 102 c 0
 166 55 242 102 259 132 c 0
 265 142 273 170 275 174 c 0
 277 177 273 230 278 246 c 0
 281 256 281 257 276 260 c 0
 266 267 278 281 271 307 c 0
 270 311 269 314 269 315 c 0
 269 316 264 332 221 341 c 0
EndSplineSet
EndChar

StartChar: h
Encoding: 104 104 23
Width: 369
VWidth: 759
Flags: HW
AnchorPoint: "above" 174.352 606 basechar 0
LayerCount: 2
Fore
SplineSet
28 486 m 0
 26 583 32 586 61 586 c 0
 75 586 75 586 82 580 c 2
 89 573 l 1
 90 551 l 1
 105 347 103 330 103 330 c 0
 104 333 109 331 114 342 c 0
 120 354 142 374 144 374 c 0
 147 374 151 381 170 388 c 0
 203 400 221 403 221 403 c 0
 221 403 257 404 273 392 c 0
 285 383 288 387 297 374 c 0
 301 369 304 365 305 365 c 0
 306 364 334 316 328 221 c 0
 326 178 329 54 326 32 c 0
 323 12 306 7 306 7 c 0
 306 4 294 6 277 12 c 0
 255 20 252 23 253 38 c 0
 253 41 256 257 249 308 c 0
 248 318 246 320 233 330 c 1
 217 326 l 2
 196 322 179 311 169 296 c 0
 126 229 107 129 106 96 c 0
 106 87 103 46 83 41 c 0
 75 39 74 35 64 34 c 0
 57 33 55 34 43 43 c 0
 28 54 26 56 23 77 c 0
 19 102 19 129 22 177 c 0
 26 255 29 405 26 424 c 0
 25 428 26 432 27 434 c 0
 29 436 29 449 28 486 c 0
EndSplineSet
EndChar

StartChar: i
Encoding: 105 105 24
Width: 209
VWidth: 625
Flags: HW
AnchorPoint: "above" 94.6343 509.398 basechar 0
LayerCount: 2
Fore
SplineSet
35 464 m 0
 42 471 96 499 132 486 c 0
 146 481 157 476 158 474 c 0
 160 472 177 461 178 459 c 0
 178 458 179 456 179 453 c 0
 180 449 171 422 164 415 c 0
 161 412 158 409 158 408 c 0
 158 408 146 397 125 408 c 0
 99 422 94 406 82 407 c 0
 76 407 69 402 63 402 c 0
 54 402 44 393 32 396 c 0
 26 398 24 399 18 411 c 0
 7 433 7 447 22 455 c 0
 26 457 32 462 35 464 c 0
57 311 m 2
 62 318 l 1
 81 318 l 2
 97 318 101 317 106 314 c 0
 110 312 113 309 113 307 c 0
 113 306 127 266 119 219 c 0
 116 203 115 163 118 148 c 0
 123 116 120 95 130 76 c 2
 135 65 l 1
 130 55 128 49 124 48 c 0
 110 43 117 33 92 33 c 0
 74 33 52 34 46 109 c 0
 45 124 43 140 42 145 c 0
 38 162 41 288 57 311 c 2
EndSplineSet
EndChar

StartChar: j
Encoding: 106 106 25
Width: 256
VWidth: 751
Flags: HW
AnchorPoint: "above" 158 557 basechar 0
LayerCount: 2
Fore
SplineSet
149 113 m 0
 149 194 141 229 141 230 c 0
 141 231 141 233 141 235 c 0
 141 238 141 238 141 238 c 1
 135 244 136 263 133 278 c 0
 132 279 128 286 128 324 c 0
 128 341 128 365 178 365 c 0
 181 365 188 365 196 354 c 0
 199 350 206 294 209 285 c 0
 211 283 212 280 212 278 c 0
 212 276 211 275 211 274 c 0
 211 269 217 240 217 234 c 0
 217 225 220 230 220 211 c 0
 220 175 225 192 225 156 c 0
 225 150 224 131 224 116 c 0
 224 109 225 76 225 76 c 0
 225 63 224 58 224 58 c 0
 225 56 226 54 226 52 c 0
 226 51 218 -43 198 -71 c 0
 196 -74 196 -77 196 -77 c 0
 196 -78 196 -78 196 -79 c 0
 196 -83 196 -83 184 -99 c 0
 182 -108 147 -139 144 -143 c 0
 142 -151 108 -162 93 -170 c 0
 90 -174 48 -183 41 -183 c 0
 27 -183 2 -181 -6 -178 c 0
 -7 -179 -8 -179 -10 -179 c 0
 -10 -179 -37 -167 -52 -157 c 0
 -70 -145 -71 -143 -71 -143 c 0
 -73 -143 -76 -143 -88 -131 c 0
 -95 -124 -98 -115 -98 -97 c 0
 -98 -80 -93 -75 -78 -68 c 0
 -71 -65 -67 -63 -61 -63 c 0
 -58 -63 -37 -66 -31 -76 c 0
 -24 -88 -8 -98 8 -101 c 0
 24 -103 20 -105 25 -105 c 0
 26 -105 68 -98 97 -77 c 0
 98 -73 128 -46 136 -18 c 0
 136 -17 144 7 144 7 c 0
 149 23 149 97 149 113 c 0
150 402 m 0
 130 402 98 420 98 458 c 0
 98 470 111 504 113 507 c 0
 114 519 153 537 164 537 c 0
 168 537 184 534 189 524 c 0
 196 513 218 504 218 481 c 0
 218 475 218 456 210 445 c 0
 210 444 206 439 204 435 c 0
 200 428 178 406 170 406 c 0
 170 406 166 402 150 402 c 0
EndSplineSet
EndChar

StartChar: quotedblright
Encoding: 8221 8221 27
Width: 294
VWidth: 818
Flags: W
LayerCount: 2
Fore
SplineSet
166 647 m 0
 163 647 154 659 151 659 c 0
 148 659 141 668 143 669 c 0
 145 672 129 693 142 709 c 0
 145 712 148 716 148 717 c 0
 149 721 153 725 160 727 c 0
 166 729 169 728 181 721 c 0
 189 717 197 712 200 711 c 0
 208 708 202 706 212 701 c 0
 222 696 220 690 226 685 c 0
 229 682 254 646 254 646 c 0
 254 641 270 613 271 602 c 0
 272 587 275 587 274 572 c 0
 271 532 272 533 271 533 c 0
 267 535 257 503 227 516 c 0
 224 517 220 519 219 519 c 0
 205 522 201 529 198 556 c 0
 197 568 196 578 197 579 c 0
 200 584 177 633 176 633 c 0
 174 633 168 647 166 647 c 0
134 576 m 0
 135 566 142 563 142 560 c 0
 142 557 148 547 149 540 c 0
 150 530 160 495 159 486 c 0
 159 482 158 471 157 462 c 0
 156 443 155 442 150 442 c 0
 145 442 143 437 134 436 c 0
 131 436 128 435 128 434 c 0
 128 432 124 435 124 433 c 0
 124 431 108 428 106 430 c 0
 104 433 94 435 94 439 c 0
 94 441 93 442 91 442 c 0
 76 442 74 497 74 498 c 0
 72 504 74 508 69 513 c 0
 63 519 62 544 58 549 c 0
 56 552 43 579 43 581 c 0
 43 583 9 616 4 619 c 0
 1 621 0 624 0 636 c 0
 0 658 3 672 10 676 c 0
 19 681 66 677 68 671 c 0
 69 669 69 667 70 668 c 0
 77 675 103 633 106 633 c 0
 108 633 109 631 108 627 c 0
 107 622 134 587 134 576 c 0
EndSplineSet
EndChar

StartChar: Aring
Encoding: 197 197 29
Width: 460
VWidth: 1099
Flags: HW
AnchorPoint: "above" 217.5 859 basechar 0
LayerCount: 2
Fore
SplineSet
221 473 m 0
 259 473 315 350 315 320 c 0
 315 310 306 309 294 308 c 0
 192 297 145 289 143 289 c 0
 141 289 133 291 133 300 c 0
 133 302 157 413 203 462 c 0
 208 467 214 473 221 473 c 0
356 55 m 0
 356 12 352 1 352 -0 c 0
 352 -3 357 -19 361 -20 c 0
 373 -23 375 -29 380 -31 c 0
 386 -31 396 -32 402 -33 c 0
 405 -32 416 -26 420 -23 c 0
 424 -16 422 -14 426 -9 c 0
 435 2 427 12 434 23 c 0
 434 25 435 30 435 35 c 0
 435 128 421 193 398 306 c 0
 386 361 362 425 335 468 c 0
 325 485 300 519 293 525 c 0
 286 527 282 535 264 546 c 0
 257 550 242 559 213 559 c 0
 189 559 188 558 184 554 c 0
 175 543 165 539 155 528 c 1
 154 516 136 516 103 438 c 0
 72 370 58 315 57 314 c 0
 53 306 31 220 28 201 c 0
 24 177 19 148 15 126 c 0
 15 125 0 42 0 1 c 0
 0 -37 0 -38 31 -38 c 0
 43 -38 56 -37 60 -36 c 0
 65 -30 67 -22 67 -21 c 0
 67 -10 74 -5 83 52 c 0
 91 103 105 180 105 181 c 2
 105 182 105 186 105 190 c 2
 105 206 l 1
 132 206 l 2
 156 206 161 210 215 213 c 0
 252 215 269 219 331 230 c 1
 345 194 342 162 353 103 c 0
 355 93 356 74 356 55 c 0
242 769 m 2
 243 769 l 2
 255 769 263 749 263 735 c 0
 263 716 248 687 237 676 c 0
 227 666 221 664 183 647 c 1
 183 657 174 667 174 657 c 1
 168 663 167 672 167 685 c 0
 167 707 168 731 186 753 c 0
 191 759 197 766 205 766 c 0
 210 766 212 763 216 763 c 0
 220 765 236 768 242 769 c 2
316 692 m 1
 316 702 322 710 322 733 c 2
 322 734 l 2
 322 735 322 735 322 736 c 0
 322 744 320 765 319 771 c 0
 318 777 302 808 295 818 c 0
 292 821 280 829 266 837 c 1
 266 837 257 839 246 839 c 0
 220 839 182 821 182 820 c 0
 182 820 147 798 137 783 c 0
 136 782 115 752 111 698 c 0
 110 688 111 682 110 678 c 0
 111 673 116 645 118 638 c 0
 122 627 144 602 151 598 c 0
 163 592 183 588 188 588 c 0
 206 588 243 604 244 604 c 0
 253 609 271 626 279 630 c 0
 285 634 311 672 316 692 c 1
EndSplineSet
EndChar

StartChar: Udieresis
Encoding: 220 220 30
Width: 433
VWidth: 1008
Flags: HW
AnchorPoint: "above" 206.5 785 basechar 0
LayerCount: 2
Fore
SplineSet
303 133 m 0
 303 132 298 35 206 35 c 0
 188 35 181 36 169 44 c 0
 100 86 99 247 98 378 c 0
 96 520 96 545 90 551 c 0
 83 555 56 559 52 559 c 0
 51 559 l 0
 47 559 40 538 39 530 c 0
 39 522 33 525 31 495 c 0
 29 459 20 417 20 344 c 0
 20 342 22 197 41 120 c 1
 50 107 55 69 74 42 c 0
 74 41 82 30 83 25 c 0
 86 21 105 -2 115 -10 c 0
 129 -17 143 -25 145 -28 c 0
 148 -30 181 -43 211 -43 c 0
 224 -43 225 -42 272 -31 c 0
 278 -30 293 -19 301 -19 c 1
 317 -11 351 37 355 40 c 0
 372 72 393 113 393 416 c 0
 393 455 390 509 388 524 c 0
 386 535 375 562 372 564 c 0
 367 568 362 568 360 568 c 0
 360 568 339 562 337 557 c 0
 337 557 333 555 326 553 c 0
 312 545 312 545 308 531 c 1
 308 512 315 525 315 452 c 0
 315 449 314 202 309 186 c 0
 308 181 302 141 302 134 c 0
 303 134 l 0
 303 133 l 0
93 661 m 0
 104 661 155 702 155 710 c 0
 155 711 155 712 155 712 c 0
 155 718 154 719 143 739 c 0
 128 764 125 764 116 764 c 0
 115 764 116 764 115 764 c 0
 106 764 55 724 55 696 c 0
 55 695 55 695 55 694 c 0
 55 691 56 690 68 680 c 0
 83 665 89 661 93 661 c 0
234 687 m 0
 234 685 234 648 279 648 c 0
 282 648 292 648 308 655 c 0
 310 657 338 673 343 688 c 0
 343 688 349 714 349 715 c 0
 349 724 341 744 335 749 c 0
 329 753 315 757 288 765 c 1
 261 748 248 741 236 703 c 0
 234 697 234 692 234 687 c 0
EndSplineSet
EndChar

StartChar: uni226A
Encoding: 8810 8810 31
Width: 579
VWidth: 797
Flags: W
LayerCount: 2
Fore
SplineSet
554 112 m 0
 554 120 559 125 559 127 c 0
 559 141 493 187 474 206 c 0
 457 222 369 281 364 300 c 1
 357 309 357 309 327 339 c 1
 335 346 l 2
 345 355 386 392 387 392 c 0
 407 410 439 437 448 446 c 0
 457 455 521 506 522 506 c 0
 523 507 529 521 529 522 c 0
 529 525 529 527 517 540 c 0
 500 558 496 560 486 560 c 0
 484 560 484 561 476 560 c 0
 467 559 471 563 421 518 c 0
 377 479 358 462 345 453 c 0
 332 444 281 399 275 396 c 0
 272 393 258 377 254 372 c 0
 251 367 248 322 248 321 c 0
 248 316 262 292 267 284 c 0
 279 276 306 249 312 238 c 0
 322 219 385 179 414 152 c 0
 424 143 497 78 518 78 c 0
 522 78 526 79 533 83 c 0
 536 85 550 93 550 93 c 0
 552 94 557 101 557 104 c 0
 557 105 554 107 554 112 c 0
310 114 m 0
 310 120 296 139 288 139 c 0
 285 139 278 139 262 160 c 0
 230 200 171 259 134 287 c 0
 90 321 87 324 87 332 c 0
 87 340 87 340 219 458 c 0
 244 480 296 534 306 546 c 0
 308 553 329 571 329 575 c 0
 329 580 298 612 292 612 c 0
 288 612 289 610 273 602 c 0
 259 594 237 567 228 565 c 0
 224 562 219 556 202 543 c 0
 168 517 112 459 104 457 c 0
 103 456 21 388 8 364 c 0
 8 364 1 352 0 345 c 0
 5 316 31 274 31 273 c 0
 51 246 97 225 168 146 c 0
 217 91 249 62 269 62 c 0
 283 62 279 72 294 72 c 0
 299 75 302 82 302 84 c 0
 302 97 310 107 310 114 c 0
EndSplineSet
EndChar

StartChar: uni226B
Encoding: 8811 8811 32
Width: 580
VWidth: 797
Flags: W
LayerCount: 2
Fore
SplineSet
5 112 m 0
 5 107 3 105 3 104 c 0
 3 101 7 95 10 93 c 0
 14 91 21 86 26 83 c 0
 33 79 38 78 42 78 c 0
 63 78 135 142 145 152 c 0
 174 180 238 220 248 239 c 0
 254 250 282 277 293 284 c 0
 293 284 312 314 312 321 c 0
 312 322 309 367 306 372 c 0
 306 372 293 390 282 399 c 0
 269 409 226 446 215 454 c 0
 206 460 201 463 137 520 c 0
 89 563 93 559 84 560 c 0
 75 561 75 560 73 560 c 0
 68 560 66 559 63 558 c 0
 63 558 31 532 31 523 c 0
 31 522 l 0
 31 521 36 507 38 506 c 0
 49 499 72 478 91 464 c 0
 101 456 205 364 206 363 c 2
 233 339 l 1
 225 331 l 2
 206 312 201 306 196 300 c 0
 193 288 149 254 129 240 c 0
 86 209 82 201 48 175 c 0
 36 166 0 137 0 127 c 0
 0 125 5 120 5 112 c 0
272 139 m 0
 264 139 250 120 250 114 c 0
 250 107 257 97 257 84 c 0
 257 82 261 75 266 72 c 0
 268 72 278 72 281 65 c 0
 283 64 289 62 293 62 c 0
 299 62 322 73 346 97 c 0
 382 132 417 180 481 229 c 0
 501 245 523 266 528 272 c 0
 530 274 556 321 560 345 c 1
 553 371 540 383 501 418 c 0
 481 436 462 453 456 457 c 0
 448 459 392 517 358 543 c 0
 341 556 336 562 332 565 c 0
 323 567 301 594 287 602 c 0
 287 602 272 611 268 612 c 0
 260 612 231 579 231 575 c 0
 231 571 252 553 254 546 c 0
 301 489 458 358 470 340 c 0
 471 339 473 337 473 332 c 0
 473 324 471 321 426 287 c 0
 389 259 330 200 298 160 c 0
 293 154 282 139 272 139 c 0
EndSplineSet
EndChar

StartChar: uni203D
Encoding: 8253 8253 33
Width: 432
VWidth: 1123
Flags: W
LayerCount: 2
Fore
SplineSet
193 -14 m 0
 194 -14 254 1 254 62 c 0
 254 66 251 64 248 72 c 1
 246 73 238 77 237 86 c 1
 230 93 213 98 203 98 c 0
 191 98 160 74 154 68 c 1
 154 61 145 54 145 36 c 0
 145 32 148 28 149 20 c 0
 154 -5 192 -14 193 -14 c 0
332 587 m 0
 332 547 302 501 267 487 c 0
 260 484 252 481 245 478 c 1
 245 682 l 1
 274 687 275 687 281 687 c 0
 307 687 315 665 322 643 c 0
 328 625 332 604 332 587 c 0
237 341 m 1
 271 405 273 408 285 409 c 2
 285 409 l 1
 285 409 l 1
 285 409 289 410 318 425 c 0
 328 431 370 473 379 486 c 0
 379 486 381 493 386 497 c 0
 395 511 409 550 410 559 c 0
 411 569 412 579 412 588 c 0
 412 669 365 732 364 733 c 0
 362 734 357 736 354 742 c 1
 344 743 336 755 319 760 c 0
 319 760 296 765 282 765 c 0
 279 765 278 765 251 763 c 1
 243 821 243 825 241 835 c 0
 236 840 239 842 234 846 c 0
 232 848 232 848 226 848 c 0
 216 848 187 845 175 842 c 1
 168 832 168 829 168 807 c 0
 168 805 168 787 168 787 c 0
 168 754 165 755 165 755 c 0
 165 754 165 752 165 749 c 2
 165 732 l 1
 122 707 96 692 73 666 c 0
 65 657 57 649 52 645 c 0
 51 645 46 638 44 633 c 0
 37 614 0 576 0 556 c 0
 0 542 43 521 48 521 c 0
 52 521 58 523 69 534 c 0
 75 541 88 554 97 563 c 0
 113 580 117 591 118 593 c 1
 118 603 130 615 134 619 c 2
 163 648 l 1
 166 584 166 584 166 570 c 0
 166 476 153 385 153 383 c 0
 153 365 158 351 158 322 c 0
 158 282 149 270 149 248 c 0
 149 248 149 239 150 221 c 1
 161 208 171 207 194 205 c 0
 211 205 224 216 232 217 c 0
 237 220 241 223 241 282 c 0
 241 302 241 304 237 341 c 1
EndSplineSet
EndChar

StartChar: Emacron
Encoding: 274 274 34
Width: 471
VWidth: 1039
Flags: HW
AnchorPoint: "above" 235.5 804 basechar 0
LayerCount: 2
Fore
SplineSet
102 333 m 1
 102 335 92 423 92 492 c 0
 92 493 92 495 92 496 c 0
 92 499 93 510 105 511 c 0
 107 511 309 524 324 524 c 0
 342 524 342 520 347 520 c 0
 350 520 360 523 371 523 c 0
 373 523 386 526 395 532 c 0
 395 532 397 553 397 575 c 0
 397 593 396 594 390 595 c 0
 377 598 379 603 370 603 c 0
 368 603 364 603 362 602 c 0
 351 599 201 595 145 590 c 0
 134 589 123 588 119 588 c 0
 93 587 77 573 42 570 c 0
 20 568 20 568 20 544 c 0
 20 498 21 383 22 358 c 1
 22 362 21 361 21 357 c 1
 22 354 23 348 23 296 c 0
 23 183 20 20 20 17 c 0
 20 -7 21 -23 22 -33 c 0
 23 -43 25 -52 25 -57 c 0
 33 -64 37 -64 58 -64 c 0
 127 -64 210 -35 380 -21 c 1
 401 -32 404 -33 412 -33 c 0
 424 -33 423 -25 438 -21 c 0
 444 -19 451 -12 451 12 c 0
 451 14 451 22 450 27 c 0
 426 45 435 44 427 46 c 0
 418 48 415 51 413 53 c 0
 401 55 381 56 372 56 c 0
 286 56 187 26 97 18 c 1
 99 200 101 266 101 270 c 1
 101 272 104 280 111 280 c 2
 117 279 123 277 125 277 c 0
 142 274 189 274 203 272 c 0
 217 270 214 264 222 264 c 0
 230 264 243 271 248 276 c 1
 249 285 258 300 258 309 c 0
 258 316 254 320 250 333 c 0
 248 339 242 337 234 345 c 0
 225 350 196 350 185 350 c 0
 184 350 130 350 123 345 c 0
 116 341 109 337 102 333 c 1
348 784 m 0
 347 784 306 771 278 771 c 0
 277 771 203 774 192 774 c 0
 149 774 125 766 103 766 c 0
 91 766 92 760 63 756 c 0
 40 753 39 751 39 732 c 0
 39 719 39 713 48 703 c 0
 50 703 54 701 58 697 c 0
 61 696 77 694 94 694 c 0
 137 694 127 701 188 701 c 0
 221 701 260 699 282 699 c 0
 282 699 306 699 313 700 c 0
 318 702 344 711 353 711 c 1
 360 712 366 717 368 719 c 0
 371 728 382 740 382 745 c 0
 382 751 361 775 353 783 c 0
 351 783 350 784 348 784 c 0
EndSplineSet
EndChar

StartChar: Ohungarumlaut
Encoding: 336 336 35
Width: 502
VWidth: 1117
Flags: HW
AnchorPoint: "above" 243.5 873 basechar 0
LayerCount: 2
Fore
SplineSet
256 502 m 0
 261 502 268 515 280 528 c 1
 284 528 l 2
 290 528 299 520 321 511 c 0
 334 506 352 486 358 471 c 0
 375 429 392 322 392 254 c 0
 392 252 392 251 392 250 c 0
 392 211 388 194 373 162 c 0
 368 150 361 137 352 130 c 0
 348 127 338 118 331 112 c 0
 297 81 234 61 206 61 c 0
 199 61 194 63 186 66 c 0
 148 81 131 97 115 132 c 0
 105 153 93 178 93 248 c 0
 93 269 96 259 96 272 c 0
 96 302 112 371 125 403 c 0
 145 454 189 517 210 517 c 0
 218 517 221 513 230 510 c 0
 232 511 l 0
 234 511 234 510 256 502 c 0
462 166 m 1
 462 172 472 187 472 259 c 0
 472 311 446 438 446 440 c 0
 443 461 422 514 409 532 c 0
 360 597 264 610 262 610 c 0
 260 609 255 605 242 605 c 0
 217 605 228 589 197 589 c 0
 187 589 186 588 177 583 c 0
 172 580 166 577 162 575 c 0
 154 570 113 528 93 500 c 0
 75 474 61 435 54 427 c 1
 35 385 15 288 15 240 c 0
 15 237 16 238 16 236 c 0
 16 235 l 0
 16 235 16 227 16 206 c 0
 17 118 53 78 56 58 c 1
 67 44 104 -1 147 -19 c 0
 156 -23 165 -27 169 -29 c 0
 173 -30 190 -31 208 -31 c 0
 208 -31 244 -31 253 -28 c 0
 259 -26 266 -25 270 -24 c 0
 290 -21 345 9 378 35 c 0
 388 43 416 72 422 80 c 0
 423 87 452 120 462 166 c 1
262 610 m 1
 262 600 262 600 262 610 c 1
102 715 m 0
 102 704 130 687 133 687 c 0
 139 687 152 705 161 711 c 0
 167 717 180 738 207 767 c 0
 233 795 237 808 237 820 c 0
 237 822 236 824 236 824 c 0
 233 827 216 841 209 846 c 0
 204 845 199 844 195 840 c 0
 187 832 137 778 132 772 c 0
 132 772 102 734 102 715 c 0
279 712 m 0
 279 697 311 681 312 681 c 0
 328 681 343 711 354 713 c 1
 366 722 375 742 391 750 c 0
 398 754 417 772 422 779 c 0
 425 795 442 794 442 825 c 0
 442 827 442 828 438 832 c 0
 421 849 410 851 408 853 c 0
 395 853 348 800 340 798 c 0
 335 793 330 784 322 779 c 1
 310 767 292 742 291 740 c 0
 289 730 279 726 279 713 c 2
 279 712 l 0
EndSplineSet
EndChar

StartChar: quotedblleft
Encoding: 8220 8220 36
Width: 289
VWidth: 798
Flags: W
LayerCount: 2
Fore
SplineSet
45 666 m 0
 45 669 53 672 53 675 c 0
 53 679 70 693 71 696 c 0
 72 699 116 715 121 708 c 0
 122 707 123 706 124 707 c 0
 127 709 146 664 140 664 c 0
 139 664 138 663 138 661 c 0
 138 659 137 658 135 658 c 0
 133 658 132 657 132 656 c 0
 132 655 122 638 117 638 c 0
 110 638 100 624 92 600 c 0
 89 590 83 579 83 576 c 0
 83 572 78 570 78 567 c 0
 71 534 70 534 70 524 c 0
 70 494 5 485 0 522 c 0
 -4 557 16 606 16 607 c 0
 17 611 22 616 20 616 c 0
 18 616 26 626 24 626 c 0
 22 626 30 634 28 634 c 0
 25 634 45 664 45 666 c 0
187 666 m 0
 193 666 209 695 228 695 c 0
 237 695 238 694 251 680 c 0
 259 672 265 664 265 663 c 0
 265 659 269 665 269 655 c 0
 269 647 255 621 249 618 c 0
 247 617 245 615 245 614 c 0
 245 610 241 613 233 597 c 0
 223 578 219 575 220 573 c 0
 222 571 213 566 213 561 c 0
 213 556 206 549 206 545 c 0
 206 541 199 533 201 533 c 0
 202 533 197 525 196 523 c 0
 196 516 183 504 183 463 c 0
 183 441 183 441 176 433 c 0
 172 428 168 424 167 424 c 0
 164 424 160 418 158 419 c 0
 157 420 156 420 156 419 c 0
 156 415 133 409 123 420 c 0
 121 422 118 424 117 424 c 0
 116 424 114 426 114 427 c 0
 114 428 111 432 108 435 c 0
 106 437 100 444 100 476 c 0
 97 486 138 591 138 592 c 0
 138 596 164 639 164 639 c 0
 168 643 183 666 187 666 c 0
EndSplineSet
EndChar

StartChar: c_o
Encoding: 1114113 -1 37
Width: 739
VWidth: -44
Flags: W
LayerCount: 2
Fore
SplineSet
50 330 m 0
 116 429 218 477 300 421 c 0
 306 417 312 414 313 414 c 0
 317 414 338 389 346 376 c 0
 355 360 355 358 351 347 c 0
 346 331 345 330 332 322 c 0
 321 315 318 314 313 319 c 0
 307 324 300 326 298 331 c 0
 297 333 295 335 294 335 c 0
 291 335 283 342 273 352 c 0
 258 367 253 369 229 369 c 0
 205 369 199 367 177 354 c 0
 142 333 142 319 124 303 c 0
 107 285 81 224 85 183 c 0
 86 166 93 141 97 133 c 0
 102 123 123 102 133 97 c 0
 168 79 240 88 287 123 c 0
 317 145 340 87 331 118 c 0
 326 135 326 210 333 225 c 0
 335 231 344 272 347 279 c 0
 348 282 351 288 352 292 c 0
 355 303 376 343 384 355 c 0
 416 401 434 410 457 423 c 0
 475 432 565 429 571 427 c 0
 606 418 636 401 657 378 c 0
 667 367 689 335 689 332 c 0
 689 331 699 313 707 274 c 0
 712 249 708 196 699 177 c 0
 680 136 672 126 651 104 c 0
 625 76 614 66 598 55 c 0
 574 39 541 18 540 19 c 0
 539 20 519 10 513 9 c 0
 509 8 504 7 483 0 c 0
 472 -3 415 -4 384 23 c 0
 349 53 345 85 341 78 c 0
 298 13 161 5 142 15 c 0
 136 18 87 29 57 60 c 0
 36 82 16 122 14 144 c 0
 14 148 13 158 12 167 c 0
 5 208 20 286 50 330 c 0
519 333 m 0
 514 333 502 352 494 352 c 0
 493 352 491 354 490 356 c 0
 488 359 486 356 470 340 c 0
 453 322 425 293 409 215 c 0
 397 156 408 97 434 79 c 0
 440 75 443 74 459 74 c 0
 505 74 561 116 587 146 c 0
 621 185 631 197 633 234 c 0
 636 303 587 348 556 353 c 0
 548 354 547 355 547 352 c 0
 547 348 525 333 519 333 c 0
EndSplineSet
Ligature2: "liga" c o
EndChar

StartChar: o_o
Encoding: 1114114 -1 38
Width: 805
VWidth: -123
Flags: W
LayerCount: 2
Fore
SplineSet
514 392 m 0
 521 392 534 411 576 418 c 0
 614 425 642 389 647 377 c 0
 651 367 809 279 782 168 c 0
 777 147 765 114 757 101 c 0
 726 49 637 8 630 8 c 0
 629 8 608 -3 573 -7 c 0
 542 -11 510 -11 506 -7 c 0
 504 -5 501 -4 499 -4 c 0
 486 -4 431 24 424 42 c 0
 422 46 403 73 400 86 c 0
 390 126 388 131 391 169 c 2
 392 186 l 1
 387 175 l 1
 361 120 345 104 345 103 c 0
 345 102 338 94 329 86 c 0
 300 58 242 23 220 20 c 0
 216 19 165 2 150 8 c 0
 146 10 106 10 95 20 c 0
 92 22 90 25 89 25 c 0
 88 25 54 41 32 86 c 0
 26 98 20 112 18 118 c 0
 -5 202 29 278 29 280 c 0
 29 294 72 375 90 386 c 0
 92 387 100 392 109 398 c 0
 151 426 187 413 188 413 c 0
 190 411 212 408 216 402 c 0
 217 401 222 400 228 400 c 0
 240 400 291 390 324 360 c 0
 330 355 335 350 336 350 c 0
 337 350 337 351 367 316 c 0
 373 309 389 275 390 267 c 0
 391 254 394 250 394 235 c 0
 394 229 395 224 395 223 c 0
 397 221 388 166 397 204 c 0
 410 258 451 327 457 331 c 0
 458 332 508 392 514 392 c 0
181 338 m 0
 181 341 170 346 169 346 c 0
 143 339 125 320 105 275 c 0
 93 247 94 248 89 210 c 0
 86 187 81 153 98 120 c 0
 105 106 109 101 116 96 c 0
 132 84 135 84 157 84 c 0
 213 84 251 119 275 142 c 0
 298 165 302 169 309 184 c 2
 317 201 l 1
 317 226 l 2
 317 249 317 251 312 261 c 0
 294 295 255 318 251 318 c 0
 247 318 238 303 224 317 c 0
 222 319 219 321 219 321 c 1
 219 319 216 323 202 325 c 0
 193 326 181 334 181 338 c 0
548 318 m 0
 542 321 542 320 531 308 c 0
 491 263 431 149 485 87 c 0
 503 65 524 66 541 66 c 0
 556 66 595 66 643 97 c 0
 658 107 709 138 709 190 c 0
 709 226 673 259 672 260 c 0
 668 263 661 270 656 275 c 0
 644 287 630 296 610 306 c 0
 573 324 575 304 548 318 c 0
EndSplineSet
Ligature2: "liga" o o
EndChar

StartChar: A
Encoding: 65 65 39
Width: 438
VWidth: 771
Flags: HW
AnchorPoint: "above" 201.545 620.195 basechar 0
LayerCount: 2
Fore
SplineSet
109 247 m 0
 103 247 84 106 84 86 c 0
 84 75 84 65 79 46 c 0
 76 31 67 27 39 27 c 0
 12 27 9 27 7 57 c 0
 3 109 2 109 21 236 c 0
 31 301 46 358 64 407 c 0
 83 460 105 520 149 566 c 0
 208 626 273 589 274 588 c 0
 277 586 280 584 282 584 c 0
 286 584 315 557 323 545 c 0
 340 520 340 520 356 484 c 0
 365 463 384 372 389 327 c 0
 396 260 402 201 396 107 c 0
 395 95 389 68 387 66 c 0
 386 65 385 62 383 59 c 0
 379 52 365 44 357 44 c 0
 354 44 342 49 332 55 c 0
 308 68 309 68 314 109 c 0
 316 129 318 182 316 220 c 2
 315 244 l 1
 313 244 203 256 134 250 c 0
 122 249 110 247 109 247 c 0
280 457 m 0
 273 465 259 515 227 518 c 0
 218 519 217 519 208 511 c 0
 189 494 166 456 155 421 c 0
 146 394 139 383 137 372 c 0
 136 363 126 337 126 334 c 0
 126 330 255 330 289 327 c 0
 298 326 306 326 306 326 c 0
 307 327 294 407 292 409 c 0
 287 416 284 453 280 457 c 0
EndSplineSet
EndChar

StartChar: K
Encoding: 75 75 40
Width: 435
VWidth: 771
Flags: HW
AnchorPoint: "above" 209.816 611.375 basechar 0
LayerCount: 2
Fore
SplineSet
197 196 m 0
 192 196 119 258 107 264 c 1
 107 217 l 2
 108 113 107 58 104 52 c 0
 98 40 94 39 70 37 c 0
 31 34 30 41 31 109 c 0
 32 238 27 321 16 394 c 0
 15 401 14 412 14 419 c 0
 14 434 10 465 7 472 c 0
 4 480 2 546 17 562 c 0
 22 567 22 566 39 565 c 0
 72 563 73 558 73 543 c 0
 73 517 84 507 82 487 c 0
 82 481 82 475 83 473 c 0
 83 472 95 396 93 392 c 0
 88 381 104 395 113 409 c 0
 140 453 268 568 268 570 c 0
 268 573 295 590 302 591 c 0
 310 592 322 591 324 588 c 0
 351 557 350 553 339 531 c 0
 332 516 292 488 291 488 c 0
 286 485 273 472 233 431 c 0
 215 412 172 363 161 349 c 0
 152 337 151 336 154 334 c 0
 177 318 143 332 192 293 c 0
 225 267 245 252 246 252 c 0
 252 252 349 157 348 155 c 0
 347 150 423 74 414 19 c 0
 410 1 402 1 402 1 c 0
 401 1 399 0 397 -2 c 0
 393 -6 366 -8 363 -4 c 0
 362 -3 358 -1 356 -1 c 0
 337 -1 338 36 334 44 c 0
 321 69 278 121 244 152 c 0
 231 164 203 196 197 196 c 0
EndSplineSet
EndChar

StartChar: L
Encoding: 76 76 41
Width: 430
VWidth: 723
Flags: HW
AnchorPoint: "above" 214.991 575.001 basechar 0
LayerCount: 2
Fore
SplineSet
45 549 m 0
 52 554 53 555 77 555 c 0
 109 555 109 556 112 495 c 0
 112 493 115 392 105 336 c 0
 105 333 86 131 110 82 c 0
 113 76 115 74 121 73 c 0
 137 70 204 86 232 99 c 0
 260 112 301 116 318 120 c 0
 356 130 396 116 397 112 c 0
 398 110 399 109 400 109 c 0
 402 109 407 99 409 90 c 0
 411 83 410 81 402 65 c 0
 378 17 389 71 245 22 c 0
 189 4 162 -5 112 -5 c 0
 104 -5 75 6 70 12 c 0
 64 19 65 19 58 25 c 0
 46 36 32 64 26 91 c 0
 17 131 18 232 31 394 c 0
 33 414 35 450 36 475 c 0
 38 535 39 545 45 549 c 0
EndSplineSet
EndChar

StartChar: M
Encoding: 77 77 42
Width: 513
VWidth: 788
Flags: HW
AnchorPoint: "above" 248.972 622.444 basechar 0
LayerCount: 2
Fore
SplineSet
127 496 m 0
 127 495 181 418 194 418 c 0
 206 418 286 535 287 536 c 0
 296 549 325 580 328 580 c 0
 330 580 352 596 353 598 c 0
 353 599 357 599 361 599 c 0
 365 599 369 600 371 601 c 0
 376 604 407 602 417 598 c 0
 426 594 455 566 455 561 c 0
 455 558 465 531 468 523 c 0
 469 521 489 452 470 267 c 0
 465 224 449 81 461 49 c 0
 467 33 456 25 456 25 c 0
 454 25 449 20 443 13 c 0
 440 9 423 5 415 7 c 0
 412 8 404 12 398 18 c 0
 381 33 379 47 379 98 c 0
 379 182 388 177 397 336 c 0
 398 346 398 355 399 356 c 0
 403 361 400 463 395 492 c 0
 392 508 385 526 383 526 c 0
 377 526 339 480 309 435 c 0
 278 390 267 377 240 355 c 0
 233 350 207 340 199 340 c 0
 184 340 164 343 160 346 c 0
 154 352 146 354 134 367 c 0
 129 372 124 376 124 376 c 0
 122 376 117 382 106 395 c 2
 96 407 l 1
 97 346 l 2
 98 292 106 176 106 174 c 0
 106 173 110 122 109 117 c 0
 109 116 117 29 109 4 c 0
 108 3 108 2 108 2 c 0
 109 1 99 -15 97 -16 c 0
 97 -16 62 -24 53 -17 c 0
 50 -15 48 -11 48 -10 c 0
 48 -4 40 7 36 45 c 0
 35 52 25 219 25 221 c 0
 26 246 20 236 20 380 c 0
 19 499 21 512 36 528 c 0
 48 541 82 544 90 531 c 0
 91 530 92 529 93 530 c 0
 95 531 127 499 127 496 c 0
EndSplineSet
EndChar

StartChar: N
Encoding: 78 78 43
Width: 445
VWidth: 809
Flags: HW
AnchorPoint: "above" 217.833 649.872 basechar 0
LayerCount: 2
Fore
SplineSet
42 53 m 0
 42 54 29 90 29 184 c 0
 29 218 23 268 21 312 c 0
 21 314 18 496 22 544 c 0
 23 559 24 560 29 565 c 0
 48 583 50 584 77 584 c 0
 83 583 94 571 100 569 c 0
 103 568 113 545 113 545 c 0
 112 540 158 453 205 381 c 0
 228 346 272 286 292 263 c 0
 300 254 310 242 313 238 c 2
 319 231 l 1
 318 277 l 2
 318 302 316 350 315 383 c 0
 312 449 314 525 320 557 c 0
 326 593 343 648 390 624 c 0
 399 619 424 606 413 583 c 0
 372 500 425 160 385 98 c 0
 380 90 374 84 374 86 c 0
 374 88 356 80 350 80 c 0
 343 80 329 85 324 89 c 0
 317 95 311 97 310 102 c 0
 307 110 266 170 253 184 c 0
 251 186 171 282 115 375 c 2
 99 401 l 1
 101 370 l 1
 109 196 108 196 109 189 c 0
 110 175 111 161 111 157 c 0
 111 153 112 140 113 128 c 0
 117 93 116 52 111 45 c 0
 105 36 61 31 54 34 c 0
 48 37 42 46 42 53 c 0
EndSplineSet
EndChar

StartChar: O
Encoding: 79 79 44
Width: 479
VWidth: 759
Flags: HW
AnchorPoint: "above" 229.549 602.188 basechar 0
LayerCount: 2
Fore
SplineSet
183 577 m 0
 206 587 222 581 243 572 c 0
 253 568 281 564 289 561 c 0
 329 541 329 541 336 536 c 0
 341 533 345 530 346 530 c 0
 348 530 374 507 378 502 c 0
 380 500 383 497 385 495 c 0
 416 465 445 392 444 365 c 0
 444 364 446 301 438 263 c 0
 422 186 365 103 364 102 c 0
 363 101 357 94 351 87 c 0
 250 -39 153 -9 151 -8 c 0
 122 5 84 24 58 76 c 0
 48 96 32 136 27 157 c 0
 22 177 22 178 19 209 c 0
 18 221 16 235 15 241 c 0
 15 242 13 308 25 360 c 0
 27 367 29 375 29 378 c 0
 30 386 38 412 41 415 c 0
 47 422 82 508 136 552 c 0
 151 565 157 569 164 570 c 0
 167 571 176 574 183 577 c 0
234 488 m 0
 217 477 198 505 194 505 c 0
 192 505 106 434 92 299 c 0
 90 280 93 232 97 210 c 0
 99 202 100 189 101 181 c 0
 103 167 117 127 127 107 c 0
 131 98 158 52 208 70 c 0
 216 73 224 75 226 76 c 0
 239 80 291 131 308 157 c 0
 319 173 337 205 348 231 c 0
 366 272 374 345 361 380 c 0
 358 389 355 398 355 400 c 0
 355 409 312 472 265 487 c 0
 248 492 241 493 234 488 c 0
EndSplineSet
EndChar

StartChar: P
Encoding: 80 80 45
Width: 429
VWidth: 786
Flags: HW
AnchorPoint: "above" 209.308 624.605 basechar 0
LayerCount: 2
Fore
SplineSet
405 384 m 0
 405 378 394 361 396 361 c 0
 399 361 380 334 381 332 c 0
 381 331 358 300 323 279 c 0
 319 276 314 273 312 271 c 0
 309 268 268 252 252 248 c 0
 207 235 107 245 106 244 c 0
 100 241 108 88 113 79 c 0
 116 74 118 45 116 36 c 0
 114 23 110 19 90 12 c 0
 72 6 66 4 50 19 c 0
 28 40 28 152 28 208 c 0
 28 210 32 408 35 450 c 2
 36 468 l 1
 27 471 l 2
 21 473 3 480 12 509 c 0
 20 534 21 534 31 541 c 0
 36 544 40 548 42 550 c 0
 49 557 86 577 99 581 c 0
 101 582 108 585 114 588 c 0
 115 589 180 616 244 599 c 0
 277 590 276 590 298 581 c 0
 327 568 360 536 361 536 c 0
 365 536 365 530 381 513 c 0
 388 505 390 495 394 492 c 0
 399 488 406 450 408 447 c 0
 410 444 409 396 407 392 c 0
 406 390 405 386 405 384 c 0
330 431 m 0
 330 491 229 561 114 515 c 0
 110 513 109 512 109 506 c 0
 109 502 110 498 111 497 c 0
 114 494 108 341 110 323 c 1
 122 321 l 2
 136 318 196 317 219 320 c 0
 251 324 298 347 312 367 c 0
 326 387 337 415 332 420 c 0
 331 421 330 426 330 431 c 0
EndSplineSet
EndChar

StartChar: Q
Encoding: 81 81 46
Width: 549
VWidth: 795
Flags: HW
AnchorPoint: "above" 269.18 633.036 basechar 0
LayerCount: 2
Fore
SplineSet
183 594 m 0
 184 594 220 614 242 613 c 0
 260 613 285 599 291 599 c 0
 292 599 346 591 394 527 c 0
 421 491 460 398 460 373 c 0
 460 363 463 356 465 329 c 0
 465 320 466 305 467 297 c 0
 469 271 461 277 463 265 c 0
 464 256 459 231 453 216 c 0
 447 201 440 178 434 168 c 0
 429 159 423 149 423 148 c 0
 423 145 437 142 467 123 c 0
 477 117 486 112 487 112 c 0
 488 112 498 103 509 92 c 2
 529 73 l 1
 528 63 l 2
 527 53 525 51 518 45 c 0
 513 41 505 33 499 28 c 0
 486 16 480 14 455 37 c 0
 439 52 419 65 385 82 c 2
 375 87 l 1
 366 78 l 2
 354 66 333 49 324 45 c 0
 323 45 280 21 262 16 c 0
 243 11 215 8 210 9 c 0
 207 10 201 11 196 11 c 0
 178 11 126 38 101 60 c 0
 90 70 59 99 30 177 c 0
 22 198 16 216 15 233 c 0
 15 237 13 247 12 256 c 0
 4 316 10 412 90 515 c 0
 112 544 165 588 183 594 c 0
290 497 m 0
 255 532 251 528 237 519 c 0
 224 510 209 506 200 510 c 0
 194 512 194 512 183 502 c 0
 169 489 142 458 131 443 c 0
 118 424 98 374 92 346 c 0
 88 324 87 320 88 283 c 0
 89 226 93 211 120 161 c 0
 129 144 135 136 149 121 c 0
 169 100 180 93 204 89 c 0
 227 84 232 84 260 97 c 0
 278 105 301 120 301 123 c 0
 301 127 258 153 237 175 c 0
 230 182 223 190 220 192 c 0
 198 209 212 226 218 234 c 0
 228 246 232 251 249 251 c 0
 252 252 296 219 329 198 c 2
 354 182 l 1
 363 198 l 2
 372 214 376 223 384 252 c 0
 388 265 388 270 388 302 c 0
 388 350 384 368 370 406 c 0
 365 419 347 466 326 491 c 1
 319 486 307 477 296 490 c 0
 294 493 291 496 290 497 c 0
EndSplineSet
EndChar

StartChar: R
Encoding: 82 82 47
Width: 422
VWidth: 788
Flags: HW
AnchorPoint: "above" 208.543 625.486 basechar 0
LayerCount: 2
Fore
SplineSet
248 604 m 0
 255 611 331 591 332 591 c 0
 335 591 349 582 354 583 c 0
 358 584 363 576 366 576 c 0
 369 576 371 567 377 566 c 0
 382 565 395 538 395 537 c 0
 395 530 403 520 402 515 c 0
 402 513 400 505 400 497 c 0
 398 469 369 410 333 377 c 0
 283 331 246 310 186 284 c 1
 213 260 l 2
 230 245 253 222 253 222 c 0
 255 223 298 180 304 171 c 0
 304 170 350 111 350 102 c 0
 350 101 351 100 352 101 c 0
 354 103 390 27 389 23 c 0
 386 8 386 6 363 -6 c 0
 339 -19 343 -9 338 -11 c 0
 335 -11 324 -6 321 -2 c 0
 314 6 283 76 257 106 c 0
 251 113 244 121 242 125 c 0
 219 158 163 192 103 261 c 1
 101 231 l 2
 99 187 94 118 97 110 c 0
 100 102 100 98 101 70 c 0
 102 42 101 40 91 19 c 0
 82 1 76 5 76 4 c 0
 76 3 68 3 59 3 c 0
 38 3 28 5 20 29 c 2
 15 44 l 1
 16 91 l 2
 17 145 33 336 24 426 c 0
 24 427 18 487 18 489 c 0
 19 503 27 530 32 535 c 0
 34 537 36 540 38 543 c 0
 40 547 46 552 54 556 c 0
 61 560 69 564 72 566 c 0
 134 602 245 601 248 604 c 0
95 471 m 0
 95 470 104 399 104 361 c 2
 104 343 l 1
 118 346 l 2
 125 348 138 350 146 352 c 0
 178 359 240 396 273 427 c 0
 304 456 323 487 323 506 c 2
 323 515 l 1
 312 520 l 2
 294 528 287 531 271 532 c 0
 191 539 89 519 89 490 c 0
 89 481 95 483 95 471 c 0
EndSplineSet
EndChar

StartChar: S
Encoding: 83 83 48
Width: 452
VWidth: 768
Flags: HW
AnchorPoint: "above" 218.726 609.811 basechar 0
LayerCount: 2
Fore
SplineSet
39 127 m 0
 39 130 33 133 33 136 c 0
 33 146 4 168 31 192 c 0
 54 213 57 211 120 140 c 0
 165 89 190 71 232 71 c 0
 261 71 270 76 298 107 c 0
 330 144 343 160 344 231 c 0
 344 268 338 285 318 304 c 0
 300 321 295 323 274 323 c 0
 208 323 105 276 78 287 c 0
 75 288 70 290 67 290 c 0
 60 291 32 312 27 332 c 0
 25 337 24 341 23 341 c 0
 22 341 -1 395 37 464 c 0
 59 503 59 504 100 540 c 0
 105 544 149 574 181 581 c 0
 188 583 197 585 201 587 c 0
 210 590 252 591 254 588 c 0
 255 587 257 586 260 586 c 0
 281 586 351 549 351 542 c 0
 351 540 358 535 358 530 c 0
 359 524 362 520 366 518 c 0
 373 514 371 504 359 486 c 0
 353 477 348 477 337 481 c 0
 333 483 328 483 325 483 c 0
 318 483 318 486 316 486 c 0
 301 486 264 516 218 511 c 0
 170 506 119 461 100 421 c 0
 93 407 93 407 94 389 c 0
 95 376 96 354 106 364 c 0
 109 367 109 367 185 386 c 0
 233 398 245 400 280 399 c 2
 310 399 l 1
 335 386 l 2
 359 373 418 339 422 239 c 0
 426 134 383 82 337 36 c 0
 335 34 293 -7 236 -7 c 0
 227 -7 217 -7 213 -7 c 0
 161 -8 74 67 62 92 c 0
 57 102 39 124 39 127 c 0
EndSplineSet
EndChar

StartChar: T
Encoding: 84 84 49
Width: 446
VWidth: 795
Flags: HW
AnchorPoint: "above" 212.727 643 basechar 0
LayerCount: 2
Fore
SplineSet
377 622 m 2
 409 623 l 1
 414 618 419 612 424 607 c 1
 425 586 l 2
 426 564 426 560 418 552 c 0
 414 548 411 548 398 548 c 0
 396 548 279 537 222 527 c 0
 205 524 222 508 216 493 c 0
 213 486 212 341 215 270 c 0
 215 268 222 68 215 61 c 0
 213 59 212 56 212 54 c 0
 212 50 206 45 200 43 c 0
 199 43 155 43 144 54 c 0
 136 62 135 66 136 80 c 0
 137 116 133 408 133 411 c 2
 133 510 l 1
 105 505 98 500 65 496 c 0
 45 493 17 501 7 510 c 2
 0 516 l 1
 1 533 l 2
 3 563 9 570 34 572 c 0
 71 574 229 620 377 622 c 2
EndSplineSet
EndChar

StartChar: B
Encoding: 66 66 50
Width: 412
VWidth: 759
Flags: HW
AnchorPoint: "above" 190.471 600.414 basechar 0
LayerCount: 2
Fore
SplineSet
340 532 m 0
 343 532 354 512 359 512 c 0
 362 512 374 468 369 461 c 0
 366 457 371 426 336 382 c 0
 325 369 302 346 296 343 c 0
 296 343 267 321 248 314 c 0
 244 312 241 311 241 310 c 0
 241 308 306 277 322 262 c 0
 326 258 330 254 331 254 c 0
 332 254 346 243 369 196 c 0
 375 185 378 130 375 107 c 0
 361 24 352 39 352 30 c 0
 352 26 330 5 318 -1 c 0
 312 -4 282 -13 270 -16 c 0
 269 -16 230 -24 168 -15 c 0
 149 -12 103 9 90 20 c 0
 88 22 83 23 72 23 c 0
 36 23 36 24 33 150 c 0
 33 153 25 362 16 414 c 0
 13 431 9 459 9 466 c 0
 9 493 2 510 6 519 c 0
 11 531 32 531 37 539 c 0
 39 544 49 549 55 549 c 0
 61 549 72 553 72 555 c 0
 72 558 152 582 178 578 c 0
 190 576 191 582 199 580 c 0
 202 579 212 579 222 578 c 0
 273 575 313 549 314 549 c 0
 316 549 326 540 329 540 c 0
 331 540 337 532 340 532 c 0
246 497 m 0
 216 497 233 509 161 502 c 0
 140 500 95 491 84 487 c 0
 76 484 88 472 86 461 c 0
 83 438 93 469 97 356 c 0
 98 314 110 207 109 158 c 0
 109 149 109 132 110 119 c 2
 112 95 l 1
 120 92 124 90 124 88 c 0
 124 83 164 61 178 59 c 0
 190 57 262 50 284 69 c 0
 303 85 312 173 276 202 c 0
 240 232 151 265 128 287 c 0
 116 299 116 298 117 323 c 0
 117 330 119 337 120 339 c 0
 124 345 149 360 155 360 c 0
 156 360 219 373 260 413 c 0
 280 432 286 441 290 455 c 0
 294 471 295 475 269 488 c 0
 259 493 249 497 246 497 c 0
EndSplineSet
EndChar

StartChar: U
Encoding: 85 85 51
Width: 450
VWidth: 776
Flags: HW
AnchorPoint: "above" 217.307 608.959 basechar 0
LayerCount: 2
Fore
SplineSet
110 456 m 0
 110 454 97 341 97 259 c 0
 97 258 98 190 111 127 c 0
 111 126 130 60 160 50 c 0
 189 41 210 57 242 89 c 0
 267 114 323 176 334 255 c 0
 348 351 307 511 305 511 c 0
 301 511 294 523 291 533 c 0
 284 561 292 586 307 586 c 0
 321 586 302 591 343 588 c 0
 347 588 372 567 375 552 c 0
 377 543 405 458 411 374 c 0
 411 368 412 362 413 361 c 0
 418 353 414 230 404 207 c 0
 403 205 401 198 399 192 c 0
 387 154 343 81 310 47 c 0
 306 43 298 35 293 29 c 0
 283 18 258 -3 255 -3 c 0
 249 -3 233 -18 204 -27 c 0
 187 -32 187 -32 168 -30 c 0
 130 -25 115 -17 93 1 c 0
 88 6 67 32 67 34 c 0
 67 36 34 97 28 143 c 0
 28 147 26 155 25 162 c 0
 11 254 27 428 35 448 c 0
 36 450 37 458 37 464 c 0
 37 487 52 547 72 557 c 2
 79 560 l 1
 99 550 l 2
 119 541 126 534 123 529 c 0
 119 523 123 489 113 470 c 0
 112 467 110 461 110 456 c 0
EndSplineSet
EndChar

StartChar: V
Encoding: 86 86 52
Width: 387
VWidth: 747
Flags: HW
AnchorPoint: "above" 183.5 596 basechar 0
LayerCount: 2
Fore
SplineSet
46 298 m 0
 46 310 21 368 21 379 c 0
 21 384 13 391 10 409 c 0
 7 427 0 435 0 445 c 0
 0 458 2 462 19 472 c 0
 35 482 35 482 51 480 c 1
 69 453 l 2
 79 438 87 425 87 424 c 0
 87 421 96 407 97 398 c 0
 97 396 139 249 141 241 c 0
 156 169 183 105 184 104 c 0
 185 104 198 151 201 176 c 0
 205 204 208 220 210 222 c 0
 211 223 212 227 212 230 c 0
 212 249 223 273 225 290 c 0
 227 306 233 329 242 364 c 0
 243 366 291 561 297 567 c 0
 305 575 307 576 330 576 c 0
 345 576 352 575 352 570 c 0
 352 570 367 556 367 545 c 0
 367 532 328 392 328 390 c 0
 328 388 290 236 287 208 c 0
 284 179 264 76 247 46 c 0
 240 33 221 11 216 11 c 0
 214 11 214 11 214 10 c 0
 214 1 159 2 146 26 c 0
 144 30 140 35 138 36 c 0
 116 52 74 173 74 192 c 0
 74 206 47 281 46 298 c 0
EndSplineSet
EndChar

StartChar: W
Encoding: 87 87 53
Width: 597
VWidth: 813
Flags: HW
AnchorPoint: "above" 285.632 644 basechar 0
LayerCount: 2
Fore
SplineSet
464 609 m 0
 469 609 473 622 491 624 c 0
 496 624 522 614 527 610 c 0
 533 604 546 577 549 563 c 0
 563 497 566 367 566 365 c 0
 569 350 554 263 547 249 c 0
 546 248 517 176 501 158 c 0
 499 155 497 152 497 151 c 0
 497 149 475 119 471 113 c 0
 466 106 437 76 435 76 c 0
 426 76 401 35 348 37 c 0
 309 38 285 60 285 61 c 0
 285 63 275 71 267 88 c 0
 263 95 260 101 259 101 c 0
 254 101 214 -4 146 -9 c 0
 127 -10 102 -2 92 10 c 0
 64 44 61 60 61 61 c 0
 61 63 48 89 46 109 c 0
 45 124 35 173 31 254 c 0
 30 264 29 295 28 322 c 0
 25 389 17 456 10 473 c 0
 5 485 3 514 7 519 c 0
 7 519 40 547 60 541 c 0
 65 540 96 487 92 487 c 0
 90 487 97 483 98 467 c 0
 108 356 98 405 112 229 c 0
 114 202 116 176 116 170 c 0
 116 166 128 89 140 73 c 0
 155 53 226 215 249 231 c 0
 266 242 290 244 296 234 c 0
 299 228 311 230 313 217 c 0
 315 206 320 206 318 203 c 0
 317 201 321 174 326 152 c 0
 334 114 343 107 366 122 c 0
 403 146 450 209 465 257 c 0
 468 266 471 274 472 276 c 0
 474 280 481 315 481 322 c 0
 481 344 491 309 486 417 c 0
 486 418 477 549 469 555 c 0
 455 565 454 609 464 609 c 0
EndSplineSet
EndChar

StartChar: X
Encoding: 88 88 54
Width: 431
VWidth: 777
Flags: HW
AnchorPoint: "above" 204.948 618.39 basechar 0
LayerCount: 2
Fore
SplineSet
57 21 m 2
 55 21 46 16 42 16 c 0
 37 16 2 39 1 43 c 0
 -2 54 2 69 13 86 c 0
 20 97 33 122 47 146 c 0
 52 155 110 256 111 257 c 2
 146 316 l 1
 135 337 l 2
 129 348 123 359 123 360 c 0
 123 361 98 401 66 464 c 0
 53 490 60 471 21 550 c 0
 19 554 19 554 21 570 c 0
 24 588 57 598 57 598 c 0
 59 600 71 594 76 587 c 0
 79 583 85 576 89 572 c 0
 107 554 150 465 157 454 c 0
 158 453 166 439 175 422 c 2
 192 391 l 1
 215 430 l 2
 216 431 294 555 295 559 c 0
 299 604 359 603 363 585 c 0
 366 573 379 584 378 557 c 0
 377 545 376 542 350 503 c 0
 279 396 245 332 236 319 c 0
 234 316 236 312 259 273 c 0
 333 149 353 147 389 82 c 0
 403 59 402 59 403 54 c 0
 404 50 406 43 408 38 c 0
 415 20 400 12 400 12 c 0
 393 12 373 -4 361 -2 c 0
 331 2 341 25 289 96 c 0
 239 163 228 178 205 216 c 0
 197 229 191 240 190 240 c 0
 186 240 66 21 59 21 c 2
 57 21 l 2
EndSplineSet
EndChar

StartChar: Y
Encoding: 89 89 55
Width: 481
VWidth: 734
Flags: HW
AnchorPoint: "above" 230.6 586.562 basechar 0
LayerCount: 2
Fore
SplineSet
424 565 m 0
 441 569 448 566 456 548 c 0
 462 535 462 534 460 524 c 0
 453 495 447 483 429 459 c 0
 394 412 310 302 277 246 c 0
 257 213 264 167 258 148 c 0
 256 142 251 74 251 43 c 0
 251 22 248 13 241 10 c 0
 237 9 202 3 195 3 c 0
 188 3 180 11 179 19 c 0
 171 71 171 66 176 109 c 0
 176 110 187 217 189 224 c 0
 191 231 190 231 183 238 c 0
 174 246 159 268 150 283 c 0
 129 320 51 434 45 438 c 0
 38 442 4 505 1 517 c 0
 -2 529 2 542 10 549 c 0
 12 551 21 554 30 557 c 2
 45 562 l 1
 53 558 l 2
 62 553 68 547 78 527 c 0
 108 470 123 472 214 322 c 0
 221 311 226 305 226 305 c 1
 226 307 264 365 268 368 c 0
 269 369 335 459 336 460 c 0
 378 517 384 526 384 536 c 0
 385 548 385 549 389 554 c 0
 394 560 407 565 413 564 c 0
 415 564 420 564 424 565 c 0
EndSplineSet
EndChar

StartChar: Z
Encoding: 90 90 56
Width: 469
VWidth: 750
Flags: HW
AnchorPoint: "above" 224.947 603.747 basechar 0
LayerCount: 2
Fore
SplineSet
432 564 m 0
 432 561 445 558 445 547 c 0
 445 544 447 538 448 534 c 0
 455 515 438 498 438 495 c 0
 438 494 433 485 427 476 c 0
 401 438 271 318 199 232 c 0
 189 220 175 204 170 198 c 0
 150 176 101 109 101 105 c 0
 101 103 142 104 179 108 c 0
 242 114 427 111 435 105 c 0
 436 104 465 48 425 38 c 0
 363 22 312 41 269 37 c 0
 238 35 238 35 66 28 c 0
 35 27 22 28 17 34 c 0
 -3 58 -4 61 8 91 c 0
 18 118 37 150 60 180 c 0
 118 255 153 301 241 390 c 0
 242 391 331 484 336 489 c 0
 349 502 351 505 348 506 c 0
 333 511 171 482 138 480 c 0
 114 478 59 468 52 468 c 0
 36 468 35 469 24 491 c 0
 9 521 19 526 46 539 c 0
 62 547 70 549 77 550 c 0
 145 555 275 578 312 579 c 0
 313 579 359 586 370 583 c 0
 382 582 413 574 415 572 c 0
 419 569 432 566 432 564 c 0
EndSplineSet
EndChar

StartChar: I_hyphen_p_r_o_n_o_u_n
Encoding: 1114115 -1 57
Width: 410
VWidth: 189
Flags: W
LayerCount: 2
Fore
SplineSet
92 12 m 0
 25 12 14 25 10 25 c 0
 9 25 6 27 4 30 c 0
 1 34 -9 84 18 86 c 0
 22 87 29 88 34 89 c 0
 51 94 66 86 112 89 c 0
 137 91 138 92 139 103 c 0
 146 173 153 323 153 325 c 0
 161 414 163 451 160 490 c 2
 158 507 l 1
 120 507 l 2
 49 507 36 514 34 548 c 0
 33 565 34 566 50 577 c 2
 58 583 l 1
 100 583 l 2
 156 583 252 589 254 592 c 0
 255 593 263 593 273 593 c 0
 316 593 325 605 336 606 c 0
 344 607 355 613 359 611 c 0
 360 610 362 609 363 609 c 0
 371 609 388 576 389 574 c 0
 391 568 384 548 380 546 c 0
 366 539 382 536 344 526 c 0
 311 518 283 515 249 514 c 2
 238 513 l 1
 238 475 l 2
 238 451 224 211 222 155 c 0
 221 127 220 117 218 115 c 0
 215 113 214 101 217 99 c 0
 217 99 243 104 265 104 c 0
 266 104 331 103 339 97 c 0
 341 95 346 92 349 91 c 0
 358 88 363 72 365 72 c 0
 368 72 375 48 368 37 c 0
 364 30 362 20 361 22 c 0
 359 24 337 -5 316 15 c 0
 312 19 305 24 302 25 c 0
 295 27 256 27 253 25 c 0
 249 21 120 14 118 13 c 0
 113 10 123 18 105 14 c 0
 99 13 93 12 92 12 c 0
EndSplineSet
Ligature2: "liga" I hyphen p r o n o u n
EndChar

StartChar: C
Encoding: 67 67 58
Width: 443
VWidth: 802
Flags: HW
AnchorPoint: "above" 218.74 638.685 basechar 0
LayerCount: 2
Fore
SplineSet
16 252 m 0
 16 302 40 371 40 372 c 0
 40 391 122 566 192 601 c 0
 254 633 289 612 290 611 c 0
 293 609 318 601 339 585 c 0
 348 578 365 560 368 554 c 0
 389 517 395 507 372 493 c 0
 366 489 359 485 357 484 c 0
 353 483 343 486 343 488 c 0
 343 489 342 490 340 490 c 0
 329 490 276 561 232 537 c 0
 218 530 154 473 119 366 c 0
 113 349 108 332 107 330 c 0
 98 310 60 135 154 88 c 0
 186 72 241 87 253 92 c 0
 315 117 362 166 370 167 c 0
 372 167 376 169 378 170 c 0
 387 175 393 174 405 164 c 0
 423 149 431 141 412 112 c 0
 406 102 373 70 369 70 c 0
 366 70 343 56 338 51 c 0
 329 44 265 14 257 14 c 0
 255 14 248 12 241 10 c 0
 216 2 163 4 135 14 c 0
 88 31 50 71 32 125 c 0
 30 131 27 137 26 138 c 0
 25 139 12 162 15 229 c 0
 15 231 16 242 16 252 c 0
EndSplineSet
EndChar

StartChar: D
Encoding: 68 68 59
Width: 486
VWidth: 767
Flags: HW
AnchorPoint: "above" 235.273 615.625 basechar 0
LayerCount: 2
Fore
SplineSet
15 95 m 0
 15 99 31 363 31 499 c 0
 31 503 30 511 30 518 c 0
 29 533 32 539 51 565 c 0
 61 579 62 580 68 581 c 0
 77 581 86 587 103 591 c 0
 162 604 236 587 267 572 c 0
 279 566 288 566 315 549 c 0
 326 542 336 537 337 537 c 0
 339 537 358 520 360 520 c 0
 363 520 378 503 381 503 c 0
 382 503 384 500 386 498 c 0
 399 477 405 484 428 438 c 0
 444 406 444 407 446 399 c 0
 448 387 449 392 451 372 c 0
 453 349 457 357 455 350 c 0
 450 326 457 317 442 273 c 0
 437 259 433 245 432 242 c 0
 428 228 405 196 405 195 c 0
 405 192 397 184 398 182 c 0
 399 181 344 113 265 75 c 0
 254 69 244 63 243 62 c 0
 236 53 148 27 125 27 c 0
 122 27 77 19 60 26 c 0
 56 28 50 29 47 30 c 0
 24 35 27 48 23 48 c 0
 22 48 20 50 18 54 c 0
 16 59 15 67 15 95 c 0
259 495 m 0
 258 495 171 539 115 525 c 0
 100 521 95 517 99 513 c 0
 101 510 111 444 105 336 c 0
 104 317 103 284 102 262 c 0
 101 210 95 123 93 115 c 0
 90 104 91 101 98 101 c 0
 109 101 147 109 162 115 c 0
 236 142 257 150 313 205 c 0
 328 220 350 251 357 266 c 0
 367 290 384 359 369 383 c 0
 368 385 364 392 362 398 c 0
 357 410 337 435 323 446 c 0
 318 450 308 460 301 466 c 0
 290 475 262 495 259 495 c 0
EndSplineSet
EndChar

StartChar: E
Encoding: 69 69 60
Width: 440
VWidth: 752
Flags: HW
AnchorPoint: "above" 212.364 592.868 basechar 0
LayerCount: 2
Fore
SplineSet
92 -26 m 0
 59 -26 23 -14 22 -14 c 0
 19 -14 8 0 6 6 c 0
 6 6 2 35 14 46 c 0
 20 52 20 52 19 65 c 0
 11 132 30 191 31 375 c 2
 31 453 l 1
 26 465 l 2
 23 472 21 480 21 482 c 0
 21 487 32 508 36 513 c 0
 41 518 53 522 62 522 c 0
 76 522 180 556 204 559 c 0
 235 562 280 572 281 572 c 0
 282 572 371 577 396 563 c 0
 414 554 417 552 416 538 c 0
 416 534 417 529 418 526 c 0
 425 511 403 501 400 495 c 0
 391 478 357 492 348 491 c 0
 333 488 351 504 258 490 c 0
 175 477 116 454 115 454 c 0
 110 453 109 452 109 444 c 0
 109 439 110 418 110 398 c 2
 110 361 l 1
 111 361 189 373 232 368 c 0
 233 368 275 360 281 350 c 0
 284 344 297 338 294 333 c 0
 294 333 295 332 296 331 c 0
 300 329 298 304 293 299 c 0
 289 294 264 282 259 282 c 0
 257 282 252 284 247 286 c 0
 233 293 213 295 157 294 c 2
 107 294 l 1
 106 262 l 2
 105 246 91 86 97 65 c 0
 99 61 100 56 101 55 c 0
 106 49 230 84 269 91 c 0
 279 93 291 96 295 97 c 0
 311 103 377 108 377 103 c 0
 377 102 380 102 383 102 c 0
 392 102 400 98 407 91 c 0
 413 85 413 84 413 69 c 0
 413 54 414 35 372 32 c 0
 286 26 143 -26 92 -26 c 0
EndSplineSet
EndChar

StartChar: F
Encoding: 70 70 61
Width: 458
VWidth: 746
Flags: HW
AnchorPoint: "above" 221.669 599.798 basechar 0
LayerCount: 2
Fore
SplineSet
143 579 m 0
 160 582 241 576 262 570 c 0
 276 565 412 560 421 554 c 0
 423 553 425 551 427 551 c 0
 430 551 436 541 438 531 c 0
 441 516 426 485 415 483 c 0
 410 482 289 487 285 489 c 0
 285 489 285 489 229 497 c 0
 154 506 157 507 147 489 c 0
 135 468 116 361 113 317 c 2
 112 297 l 1
 121 298 l 2
 122 298 245 310 246 309 c 0
 248 308 282 307 289 304 c 0
 295 301 306 277 304 270 c 0
 303 265 296 257 293 257 c 0
 287 257 283 238 241 233 c 0
 193 227 194 227 147 223 c 2
 104 220 l 1
 101 188 l 2
 101 187 86 61 75 49 c 0
 70 43 75 39 63 33 c 0
 55 29 7 26 5 58 c 0
 4 90 18 145 23 201 c 0
 36 357 38 373 49 429 c 0
 61 491 72 511 87 542 c 0
 93 556 122 575 143 579 c 0
EndSplineSet
EndChar

StartChar: G
Encoding: 71 71 62
Width: 457
VWidth: 750
Flags: HW
AnchorPoint: "above" 220.98 601.766 basechar 0
LayerCount: 2
Fore
SplineSet
140 467 m 0
 140 465 116 429 115 423 c 0
 115 419 96 384 93 359 c 0
 91 331 84 340 88 286 c 0
 91 248 97 220 99 206 c 0
 100 197 104 187 112 171 c 0
 123 149 125 147 142 132 c 0
 154 122 175 102 218 97 c 0
 249 93 272 106 304 142 c 0
 324 164 337 186 345 208 c 0
 348 216 356 254 356 260 c 0
 356 261 335 271 284 265 c 0
 227 259 215 259 211 301 c 0
 210 314 210 317 214 323 c 0
 216 327 220 329 222 329 c 0
 224 329 225 330 225 331 c 0
 225 335 289 343 321 343 c 0
 342 343 366 340 370 337 c 0
 373 335 383 333 394 327 c 0
 398 325 405 321 409 320 c 0
 415 318 421 309 421 303 c 0
 421 302 441 297 427 213 c 0
 425 200 413 165 410 163 c 0
 408 162 399 142 389 128 c 0
 385 123 382 118 382 117 c 0
 382 109 316 43 309 44 c 0
 303 45 287 27 252 22 c 0
 196 14 148 38 147 39 c 0
 145 41 133 43 125 49 c 0
 122 51 116 55 112 57 c 0
 101 63 64 100 59 110 c 0
 58 112 57 114 56 114 c 0
 54 114 46 135 41 141 c 0
 27 158 5 263 11 310 c 0
 12 319 14 334 14 342 c 0
 15 359 21 387 23 387 c 0
 24 387 24 389 24 390 c 0
 24 394 31 412 33 420 c 0
 36 438 82 517 99 533 c 0
 115 548 159 575 167 575 c 0
 172 575 172 580 187 581 c 0
 211 583 241 581 260 576 c 0
 332 557 379 535 380 534 c 0
 381 533 387 530 392 528 c 0
 420 516 411 496 404 481 c 0
 399 471 394 462 392 461 c 0
 382 457 383 458 343 470 c 0
 342 470 250 500 233 504 c 0
 201 511 174 497 173 497 c 0
 164 492 140 470 140 467 c 0
EndSplineSet
EndChar

StartChar: H
Encoding: 72 72 63
Width: 417
VWidth: 710
Flags: HW
AnchorPoint: "above" 196.971 568 basechar 0
LayerCount: 2
Fore
SplineSet
296 333 m 1
 296 345 296 345 296 346 c 0
 296 347 302 424 303 460 c 0
 305 531 310 535 323 547 c 1
 345 545 l 2
 362 543 376 541 380 526 c 0
 395 474 353 117 373 43 c 0
 374 38 377 27 362 20 c 0
 335 6 321 -1 309 11 c 0
 293 27 292 31 288 63 c 0
 286 77 285 179 287 182 c 0
 287 183 287 199 288 218 c 2
 290 253 l 1
 280 254 l 2
 258 257 124 238 106 231 c 1
 104 204 l 2
 98 142 94 46 89 29 c 0
 87 22 82 15 78 15 c 0
 77 15 75 14 73 12 c 0
 67 6 23 13 23 14 c 0
 23 16 19 16 13 31 c 0
 5 51 20 124 18 130 c 0
 16 132 24 239 28 266 c 0
 39 347 38 521 48 536 c 0
 57 548 70 548 85 548 c 0
 107 548 109 547 111 536 c 0
 112 532 113 529 114 528 c 0
 120 524 121 426 116 343 c 0
 115 328 114 315 114 315 c 0
 115 314 223 337 273 334 c 2
 296 333 l 1
EndSplineSet
EndChar

StartChar: I
Encoding: 73 73 64
Width: 147
VWidth: 731
Flags: HW
AnchorPoint: "above" 68.3051 585 basechar 0
LayerCount: 2
Fore
SplineSet
43 563 m 0
 46 563 56 565 66 565 c 0
 88 565 92 563 95 551 c 0
 96 547 103 243 103 240 c 0
 103 166 109 68 114 58 c 0
 117 52 118 32 115 23 c 0
 110 7 102 5 73 5 c 0
 34 5 31 50 27 219 c 0
 26 277 24 324 23 325 c 0
 22 326 19 487 20 499 c 0
 22 540 30 561 43 563 c 0
EndSplineSet
EndChar

StartChar: J
Encoding: 74 74 65
Width: 512
VWidth: 759
Flags: HW
AnchorPoint: "above" 246.202 609.027 basechar 0
LayerCount: 2
Fore
SplineSet
314 198 m 0
 314 176 273 113 274 113 c 0
 279 113 239 70 228 62 c 0
 224 60 221 57 220 56 c 0
 216 51 145 9 96 27 c 0
 51 43 44 51 43 51 c 0
 41 51 15 79 12 85 c 0
 0 107 -1 116 1 132 c 0
 3 147 6 150 27 155 c 0
 40 158 46 159 49 158 c 0
 68 151 70 123 104 105 c 2
 119 97 l 1
 137 102 l 2
 164 108 170 110 192 133 c 0
 228 169 238 198 250 262 c 0
 262 329 248 410 248 411 c 0
 240 445 235 485 230 485 c 0
 227 485 197 479 175 474 c 0
 155 470 119 475 105 484 c 0
 95 490 95 493 97 515 c 0
 99 538 101 546 152 550 c 0
 299 563 306 590 440 589 c 0
 493 588 496 588 490 541 c 0
 488 523 488 523 481 519 c 0
 468 510 450 517 402 513 c 0
 401 513 308 504 308 497 c 0
 308 496 329 414 329 376 c 0
 329 366 330 356 331 354 c 0
 334 349 332 281 329 268 c 0
 326 256 320 215 316 208 c 0
 315 205 314 200 314 198 c 0
EndSplineSet
EndChar

StartChar: E_A
Encoding: 1114116 -1 66
Width: 895
VWidth: 12
Flags: W
LayerCount: 2
Fore
SplineSet
68 568 m 0
 70 568 99 581 102 581 c 0
 105 581 143 596 146 594 c 0
 148 593 221 625 331 612 c 0
 348 610 351 609 352 607 c 0
 354 604 361 604 362 599 c 0
 363 597 364 595 365 595 c 0
 366 595 367 591 367 587 c 0
 367 575 374 573 371 568 c 0
 369 565 369 564 369 561 c 0
 369 558 360 556 360 552 c 0
 360 550 358 548 356 547 c 0
 354 546 350 544 349 543 c 0
 346 539 326 536 319 538 c 0
 291 545 228 540 176 526 c 0
 157 521 93 496 89 492 c 0
 88 491 95 472 94 470 c 0
 93 466 101 451 104 401 c 0
 107 361 106 362 113 362 c 0
 116 362 126 363 134 365 c 0
 182 374 221 373 239 364 c 0
 277 345 269 325 266 320 c 0
 263 316 264 298 255 298 c 0
 251 298 248 287 237 287 c 0
 221 286 217 286 213 290 c 0
 211 292 207 295 205 296 c 0
 194 300 127 287 112 290 c 1
 112 266 l 2
 116 115 116 114 120 104 c 1
 130 108 l 2
 135 110 141 112 143 113 c 0
 151 117 256 147 329 149 c 0
 348 150 392 142 398 137 c 0
 401 135 401 136 406 179 c 0
 416 273 443 371 443 373 c 0
 443 376 454 411 456 414 c 0
 461 422 482 490 519 545 c 0
 531 562 555 588 559 588 c 0
 562 588 574 599 578 599 c 0
 582 599 588 607 597 607 c 0
 601 607 604 607 606 608 c 0
 609 609 631 606 635 604 c 0
 635 604 662 597 687 578 c 0
 691 575 695 572 695 573 c 0
 695 574 725 545 735 534 c 0
 802 462 847 328 847 301 c 0
 848 279 861 291 860 147 c 0
 860 109 859 77 859 75 c 0
 858 70 841 55 835 54 c 0
 832 53 828 51 826 50 c 0
 815 43 801 57 797 57 c 0
 793 57 776 71 782 102 c 0
 782 104 790 197 774 274 c 0
 771 288 766 326 765 326 c 0
 764 326 756 318 750 313 c 0
 746 309 602 305 581 299 c 0
 574 296 548 292 536 286 c 0
 531 284 525 282 524 282 c 0
 522 282 515 280 509 278 c 0
 496 274 497 275 494 252 c 0
 494 251 483 186 478 134 c 0
 472 67 466 69 430 73 c 0
 407 76 405 76 399 73 c 0
 381 64 341 78 289 69 c 0
 223 57 222 58 221 57 c 0
 220 57 125 30 111 27 c 0
 87 22 75 22 68 28 c 0
 64 32 57 46 57 52 c 0
 57 55 46 65 45 73 c 0
 39 98 36 394 20 450 c 0
 18 457 17 465 17 469 c 0
 18 484 -2 487 0 506 c 0
 2 531 16 530 16 536 c 0
 16 537 58 568 68 568 c 0
632 526 m 0
 623 532 612 532 604 527 c 0
 577 509 546 438 545 432 c 0
 544 420 529 395 529 395 c 0
 530 395 528 388 525 379 c 2
 519 363 l 1
 550 367 537 368 562 371 c 0
 580 373 596 378 628 379 c 0
 663 380 637 384 699 384 c 0
 723 384 742 384 742 385 c 0
 742 388 715 439 690 471 c 0
 680 484 645 517 632 526 c 0
EndSplineSet
Ligature2: "liga" E A
EndChar

StartChar: C_O
Encoding: 1114117 -1 67
Width: 757
VWidth: 91
Flags: W
LayerCount: 2
Fore
SplineSet
60 96 m 0
 60 97 23 154 23 173 c 0
 23 185 16 181 11 233 c 0
 9 250 10 317 12 328 c 0
 25 402 36 448 90 532 c 0
 100 548 136 581 144 581 c 0
 149 581 179 606 231 589 c 0
 259 580 288 549 291 544 c 0
 296 536 310 497 310 491 c 0
 310 481 278 454 265 463 c 0
 263 465 260 466 260 467 c 0
 260 469 236 493 233 499 c 0
 231 504 202 521 197 521 c 0
 190 521 172 511 162 500 c 0
 142 479 115 431 105 398 c 0
 98 374 86 334 86 273 c 0
 86 190 101 197 105 168 c 0
 107 159 120 141 138 124 c 0
 155 107 156 106 172 100 c 2
 189 94 l 1
 223 94 l 2
 304 94 323 121 333 121 c 0
 341 121 346 136 364 123 c 0
 371 118 376 118 369 123 c 0
 368 124 343 157 331 234 c 0
 326 268 333 349 348 392 c 0
 352 404 355 416 355 418 c 0
 355 423 366 449 369 452 c 0
 374 457 381 476 399 503 c 0
 409 519 434 547 437 547 c 0
 439 547 483 588 523 579 c 0
 544 574 549 571 565 555 c 0
 594 526 596 540 602 531 c 0
 603 530 604 529 605 529 c 0
 607 529 625 516 627 516 c 0
 633 516 686 457 704 413 c 0
 713 390 713 390 722 353 c 0
 722 352 733 276 723 261 c 0
 722 259 709 206 696 193 c 0
 693 190 690 187 690 185 c 0
 690 184 690 182 689 182 c 0
 688 182 641 120 603 99 c 0
 575 83 548 67 529 64 c 0
 529 64 553 67 489 58 c 0
 475 56 478 60 466 60 c 0
 458 60 441 64 439 67 c 0
 437 69 406 83 405 85 c 0
 403 88 383 104 382 104 c 0
 381 104 381 103 381 102 c 0
 381 99 374 91 373 85 c 0
 371 71 369 67 361 59 c 0
 345 43 298 21 252 18 c 0
 219 16 155 23 146 30 c 0
 145 31 108 45 76 78 c 0
 67 87 60 95 60 96 c 0
531 465 m 0
 514 455 495 492 490 492 c 0
 488 492 466 467 460 458 c 0
 451 445 431 409 430 403 c 0
 429 400 425 387 421 374 c 0
 404 319 401 274 410 224 c 0
 442 49 605 166 638 250 c 0
 644 265 647 264 648 269 c 0
 648 271 649 276 650 282 c 0
 650 283 657 361 610 423 c 0
 598 439 597 441 594 438 c 0
 594 438 565 422 559 438 c 0
 557 446 552 443 544 457 c 0
 541 463 538 467 537 467 c 0
 536 467 533 466 531 465 c 0
EndSplineSet
Ligature2: "liga" C O
EndChar

StartChar: C_R
Encoding: 1114118 -1 68
Width: 749
VWidth: 113
Flags: W
LayerCount: 2
Fore
SplineSet
295 142 m 0
 308 142 315 159 322 159 c 0
 324 159 331 155 336 150 c 2
 345 142 l 1
 347 173 l 2
 348 190 348 218 348 236 c 0
 348 254 348 270 349 272 c 0
 354 284 344 430 344 432 c 0
 344 449 344 446 343 470 c 0
 342 493 345 510 350 515 c 0
 359 524 383 520 392 533 c 0
 429 588 481 611 484 611 c 0
 484 611 500 619 527 617 c 0
 533 616 543 615 550 615 c 0
 576 614 603 596 604 596 c 0
 630 587 675 553 675 553 c 0
 677 553 683 544 685 545 c 0
 687 546 692 535 694 535 c 0
 695 535 722 497 724 477 c 0
 725 471 727 464 728 462 c 0
 729 461 732 449 720 410 c 0
 715 392 690 359 690 358 c 0
 690 354 657 325 642 317 c 0
 633 312 623 306 619 303 c 0
 611 298 566 282 548 279 c 1
 555 273 l 2
 564 265 602 237 603 237 c 0
 607 237 656 191 660 183 c 0
 663 176 663 180 678 157 c 0
 683 149 688 143 689 142 c 0
 691 141 707 101 706 100 c 0
 705 99 719 44 716 44 c 0
 715 44 715 41 716 38 c 0
 717 33 716 30 710 24 c 0
 703 16 702 15 673 13 c 2
 659 12 l 1
 651 20 l 2
 646 24 644 28 644 31 c 0
 644 33 642 47 638 61 c 0
 626 107 611 129 570 165 c 0
 511 217 429 267 427 275 c 0
 425 285 420 102 423 100 c 0
 424 100 424 99 428 76 c 0
 429 69 419 46 402 46 c 0
 399 46 395 44 392 43 c 0
 379 36 362 44 351 63 c 0
 341 80 350 143 342 131 c 0
 339 126 331 105 331 101 c 0
 331 96 313 75 307 72 c 0
 306 72 270 47 247 45 c 0
 242 44 233 43 228 42 c 0
 213 39 177 38 166 41 c 0
 160 42 153 44 149 44 c 0
 142 44 111 56 111 59 c 0
 111 61 35 94 15 207 c 0
 10 234 9 260 11 271 c 0
 12 277 13 287 13 293 c 0
 13 308 19 342 25 361 c 0
 42 416 53 439 89 488 c 0
 99 502 131 536 135 536 c 0
 138 536 182 570 212 572 c 0
 213 572 253 573 263 563 c 0
 266 560 292 545 292 537 c 0
 292 535 302 524 303 522 c 0
 303 520 307 511 308 488 c 0
 310 451 296 449 296 434 c 0
 296 429 290 430 290 427 c 0
 290 426 287 422 284 418 c 0
 268 402 240 419 245 427 c 0
 247 431 243 425 242 456 c 0
 242 473 241 476 236 486 c 0
 230 496 229 496 223 496 c 0
 204 495 180 479 158 453 c 0
 126 416 116 397 98 341 c 0
 90 317 86 283 87 245 c 0
 88 212 91 203 102 177 c 0
 149 67 278 136 278 135 c 0
 278 134 285 142 295 142 c 0
650 459 m 0
 642 498 540 561 499 539 c 0
 471 524 447 499 431 467 c 0
 428 461 424 455 423 454 c 0
 418 447 427 392 426 389 c 0
 425 387 425 373 425 358 c 2
 426 331 l 1
 438 343 439 344 475 346 c 0
 476 346 515 348 533 353 c 0
 568 364 588 371 598 377 c 0
 611 385 633 406 641 419 c 0
 646 427 651 451 650 459 c 0
EndSplineSet
Ligature2: "liga" C R
EndChar

StartChar: O_C_H
Encoding: 1114119 -1 69
Width: 1205
VWidth: -222
Flags: W
LayerCount: 2
Fore
SplineSet
461 314 m 1
 474 417 549 524 549 526 c 0
 549 531 595 580 600 580 c 0
 605 580 616 592 641 594 c 0
 671 596 684 592 707 569 c 0
 722 554 732 537 732 530 c 0
 732 520 744 520 745 487 c 0
 745 468 745 466 728 458 c 0
 714 452 712 452 700 464 c 0
 687 475 687 483 681 485 c 0
 674 487 663 528 645 518 c 0
 615 501 565 417 547 352 c 0
 535 310 519 231 546 156 c 0
 555 130 557 128 576 109 c 0
 602 82 612 81 643 81 c 0
 718 81 746 113 775 115 c 0
 785 116 798 134 808 134 c 2
 813 134 l 1
 814 177 l 2
 818 293 818 293 815 299 c 0
 810 309 810 339 814 346 c 0
 817 350 818 355 818 381 c 0
 818 382 814 470 815 503 c 0
 817 558 816 558 852 558 c 0
 870 558 872 558 877 553 c 0
 880 550 882 545 882 543 c 0
 882 542 890 530 893 414 c 2
 894 362 l 1
 913 358 1081 360 1081 360 c 0
 1082 361 1099 502 1101 525 c 0
 1104 568 1111 574 1122 586 c 1
 1142 585 l 2
 1171 583 1162 580 1167 580 c 0
 1170 580 1176 573 1179 567 c 0
 1182 561 1177 496 1169 444 c 0
 1155 349 1130 164 1138 132 c 0
 1142 117 1139 92 1149 72 c 0
 1152 65 1155 60 1156 60 c 0
 1165 63 1178 20 1160 13 c 0
 1148 8 1155 -4 1127 -2 c 0
 1116 -1 1080 8 1066 87 c 0
 1059 125 1064 257 1069 277 c 0
 1070 283 1070 284 1067 285 c 0
 1062 287 927 284 908 286 c 2
 894 288 l 1
 893 244 l 2
 890 111 889 111 895 90 c 0
 898 79 888 73 888 73 c 0
 882 73 871 51 856 51 c 0
 855 51 827 52 815 88 c 1
 810 78 l 2
 804 65 795 56 795 54 c 0
 795 53 783 46 779 41 c 0
 776 37 743 23 738 23 c 0
 736 23 681 6 662 7 c 0
 656 7 648 7 644 6 c 0
 625 3 583 13 560 26 c 0
 547 33 521 53 519 57 c 0
 519 58 479 103 469 144 c 0
 455 201 456 202 456 247 c 2
 456 281 l 1
 451 267 l 2
 445 249 442 248 442 246 c 0
 442 244 427 214 425 211 c 0
 422 208 407 184 394 166 c 0
 378 145 313 84 307 84 c 0
 306 84 277 61 252 51 c 0
 246 49 236 45 230 42 c 0
 208 32 163 26 149 30 c 0
 139 33 114 38 103 44 c 0
 80 57 79 57 74 63 c 0
 71 66 67 69 66 69 c 0
 63 70 43 95 43 98 c 0
 43 99 25 133 18 173 c 0
 7 239 27 351 38 369 c 0
 40 373 42 384 50 402 c 0
 74 453 81 466 86 472 c 0
 89 476 91 480 91 481 c 0
 91 484 118 521 119 524 c 0
 120 528 148 556 150 556 c 0
 154 556 193 599 242 589 c 0
 263 585 270 545 283 548 c 0
 323 558 428 521 457 400 c 0
 467 357 459 341 461 314 c 1
229 495 m 0
 229 497 219 514 217 514 c 0
 216 514 132 450 102 314 c 0
 89 256 86 202 100 163 c 0
 104 153 108 141 109 138 c 0
 112 130 128 114 137 110 c 0
 143 107 148 106 163 106 c 0
 255 106 339 219 340 221 c 0
 346 230 353 238 355 240 c 0
 356 241 406 309 376 404 c 0
 368 431 341 460 316 471 c 0
 284 485 271 463 261 465 c 0
 242 465 229 494 229 495 c 0
456 287 m 1
 460 296 460 296 459 307 c 1
 458 301 l 2
 458 297 457 293 456 287 c 1
EndSplineSet
Ligature2: "liga" O C H
EndChar

StartChar: T_H
Encoding: 1114120 -1 70
Width: 724
VWidth: 122
Flags: W
LayerCount: 2
Fore
SplineSet
77 580 m 0
 80 581 384 609 392 609 c 0
 415 610 423 610 426 570 c 0
 427 554 427 553 423 548 c 0
 414 537 416 537 377 534 c 0
 375 534 236 522 194 515 c 1
 194 503 l 2
 194 499 192 335 178 138 c 0
 175 99 184 60 184 59 c 0
 185 54 179 23 175 17 c 0
 174 15 172 14 172 15 c 0
 172 16 171 15 169 13 c 0
 161 6 168 17 133 12 c 0
 125 11 122 11 122 12 c 0
 122 13 121 14 120 14 c 0
 120 14 105 17 102 41 c 0
 99 64 102 156 107 219 c 0
 107 221 116 351 118 457 c 2
 119 507 l 1
 101 505 l 2
 90 504 34 493 33 493 c 0
 18 487 13 503 4 529 c 2
 0 540 l 1
 4 548 l 2
 6 553 10 557 14 559 c 0
 34 568 76 580 77 580 c 0
393 414 m 0
 393 397 388 403 388 373 c 2
 388 353 l 1
 408 352 l 2
 414 352 484 351 576 370 c 0
 606 376 610 378 609 382 c 0
 606 397 625 456 611 554 c 2
 609 573 l 1
 619 588 618 588 654 593 c 0
 670 595 673 595 673 593 c 0
 673 590 681 591 681 586 c 0
 681 584 682 580 683 577 c 0
 689 565 695 505 693 478 c 0
 690 435 677 286 671 233 c 0
 671 231 657 99 675 46 c 0
 678 37 683 22 671 16 c 0
 669 15 662 10 656 6 c 0
 618 -24 591 37 592 76 c 0
 592 81 592 87 591 89 c 0
 588 96 593 243 597 264 c 0
 598 269 599 278 600 285 c 0
 601 300 603 298 573 293 c 0
 449 271 383 279 383 276 c 0
 383 269 375 216 368 154 c 2
 364 119 l 1
 372 108 382 96 377 57 c 0
 374 36 349 20 339 19 c 0
 339 19 317 17 300 34 c 0
 292 41 286 70 287 94 c 0
 288 133 306 269 306 271 c 0
 305 282 316 338 312 434 c 0
 311 469 312 471 339 481 c 0
 355 487 364 487 370 481 c 0
 371 480 393 437 393 414 c 0
EndSplineSet
Ligature2: "liga" T H
EndChar

StartChar: T_R
Encoding: 1114121 -1 71
Width: 778
VWidth: 69
Flags: W
LayerCount: 2
Fore
SplineSet
238 601 m 0
 238 601 276 602 320 602 c 0
 398 602 401 602 405 598 c 0
 408 595 410 592 416 568 c 0
 421 550 418 543 401 534 c 0
 391 529 353 525 333 528 c 0
 312 531 198 526 204 522 c 0
 214 516 193 112 205 89 c 0
 208 82 208 81 206 67 c 0
 202 44 201 43 189 36 c 0
 179 30 179 30 162 32 c 0
 126 36 126 63 126 141 c 0
 126 145 132 509 130 509 c 0
 123 509 83 492 83 489 c 0
 83 486 71 483 62 467 c 0
 53 452 50 451 26 463 c 0
 9 472 6 473 3 480 c 0
 -2 491 -2 497 7 516 c 0
 17 537 29 550 44 556 c 0
 51 559 85 577 107 581 c 0
 116 582 140 595 219 600 c 0
 229 601 238 601 238 601 c 0
709 530 m 0
 718 530 732 509 735 509 c 0
 736 509 737 509 737 508 c 0
 737 505 747 497 749 487 c 0
 751 476 754 480 754 471 c 0
 754 467 755 465 756 465 c 0
 759 465 754 462 757 455 c 0
 760 446 744 408 740 403 c 0
 732 393 731 392 731 391 c 0
 731 388 697 358 688 353 c 0
 663 338 645 328 612 318 c 0
 606 316 598 313 594 312 c 0
 587 309 556 302 532 297 c 0
 510 293 509 292 520 288 c 0
 552 276 610 251 618 245 c 0
 622 242 629 237 635 233 c 0
 656 219 671 201 680 177 c 0
 682 172 684 167 685 166 c 0
 687 163 697 127 701 107 c 0
 707 77 703 71 672 65 c 2
 651 61 l 1
 643 65 l 2
 618 78 633 119 603 162 c 0
 582 191 434 233 417 264 c 0
 414 269 412 204 412 130 c 0
 412 76 413 50 416 46 c 0
 420 40 399 24 386 23 c 0
 383 23 378 22 374 21 c 0
 362 18 343 20 337 58 c 0
 330 108 345 381 340 393 c 0
 337 400 336 463 339 468 c 0
 346 481 386 487 386 487 c 0
 390 486 408 512 431 526 c 0
 448 536 478 554 487 554 c 0
 487 554 490 557 524 563 c 0
 528 564 532 565 533 566 c 0
 534 567 613 573 672 547 c 0
 699 535 692 540 701 534 c 0
 704 532 708 530 709 530 c 0
678 457 m 0
 678 458 659 480 602 490 c 0
 566 497 555 495 518 490 c 0
 491 488 445 458 433 434 c 0
 430 427 425 421 424 420 c 0
 413 412 422 387 418 380 c 0
 417 378 417 365 417 350 c 2
 417 323 l 1
 420 330 l 2
 425 338 451 353 470 357 c 0
 489 362 495 366 515 370 c 0
 561 380 561 380 563 380 c 0
 569 380 562 381 596 391 c 0
 628 401 678 431 678 457 c 0
EndSplineSet
Ligature2: "liga" T R
EndChar

StartChar: E_E
Encoding: 1114122 -1 72
Width: 871
VWidth: -1
Flags: W
LayerCount: 2
Fore
SplineSet
412 50 m 1
 395 32 395 33 365 33 c 0
 329 33 297 37 287 34 c 0
 286 34 207 26 165 15 c 0
 155 12 91 -4 55 3 c 0
 53 4 50 4 48 4 c 0
 41 4 34 14 32 25 c 0
 29 50 11 48 10 71 c 0
 9 127 21 159 23 210 c 0
 24 222 36 331 37 332 c 0
 39 336 38 531 43 540 c 0
 45 545 55 551 61 551 c 0
 75 551 87 569 160 571 c 0
 176 571 216 573 248 574 c 0
 313 577 416 577 424 574 c 0
 427 573 429 571 429 570 c 0
 429 569 451 557 447 547 c 0
 445 542 454 537 450 530 c 0
 448 526 448 526 452 528 c 0
 458 531 486 536 488 539 c 0
 491 543 514 553 522 554 c 0
 526 555 536 557 544 559 c 0
 660 590 821 588 823 588 c 0
 830 587 834 578 838 578 c 0
 842 578 842 570 844 570 c 0
 846 570 845 562 849 553 c 0
 856 539 841 529 841 524 c 0
 841 522 835 517 828 511 c 0
 824 508 732 510 692 505 c 0
 669 502 626 498 622 497 c 0
 604 492 582 497 542 478 c 0
 526 470 525 470 526 464 c 0
 529 447 531 423 531 404 c 2
 530 383 l 1
 539 389 540 388 555 385 c 0
 583 380 692 385 719 373 c 0
 734 368 734 368 740 363 c 0
 744 359 748 356 749 356 c 0
 749 356 759 348 749 323 c 0
 748 321 748 320 748 319 c 0
 748 319 732 300 729 299 c 0
 718 296 553 309 530 329 c 0
 527 331 527 330 526 319 c 0
 525 312 525 304 525 301 c 0
 526 253 494 84 493 82 c 0
 489 67 534 81 534 81 c 0
 539 84 645 104 685 107 c 0
 686 107 746 113 760 114 c 0
 780 115 816 112 820 109 c 0
 831 100 832 100 835 87 c 0
 841 66 841 65 827 51 c 2
 815 39 l 1
 787 38 l 2
 700 34 676 29 654 24 c 0
 638 21 598 16 562 8 c 0
 521 -1 504 -4 482 -4 c 0
 462 -4 461 -4 453 2 c 0
 439 12 428 9 420 19 c 0
 419 21 417 28 415 36 c 2
 412 50 l 1
286 302 m 0
 255 302 296 307 214 307 c 0
 170 307 161 308 141 312 c 0
 128 314 116 315 115 315 c 0
 114 315 112 311 112 306 c 0
 112 304 100 195 93 138 c 2
 90 113 l 1
 95 102 l 2
 103 84 97 79 102 80 c 0
 113 83 226 105 243 108 c 0
 265 111 391 111 393 108 c 0
 395 105 414 103 414 94 c 0
 414 86 417 97 422 127 c 0
 437 214 444 265 445 282 c 0
 454 402 452 430 449 452 c 0
 447 462 446 480 446 494 c 0
 446 507 446 519 445 519 c 0
 443 519 433 510 432 507 c 0
 430 502 416 496 408 497 c 0
 364 501 355 502 326 500 c 0
 309 499 293 498 291 498 c 0
 169 497 122 488 120 488 c 0
 118 488 117 476 117 435 c 2
 117 383 l 1
 122 382 126 381 135 381 c 2
 166 381 l 2
 181 381 276 389 282 380 c 0
 283 377 293 376 296 373 c 0
 305 366 308 364 311 363 c 0
 319 360 314 332 314 332 c 0
 313 331 313 327 313 323 c 0
 313 317 311 314 307 309 c 0
 301 302 300 302 286 302 c 0
EndSplineSet
Ligature2: "liga" E E
EndChar

StartChar: T_T
Encoding: 1114123 -1 73
Width: 868
VWidth: 27
Flags: W
LayerCount: 2
Fore
SplineSet
797 620 m 0
 810 620 803 622 818 622 c 0
 832 622 839 615 841 604 c 0
 842 600 844 594 846 589 c 0
 854 570 833 554 833 554 c 0
 830 554 829 548 817 547 c 0
 754 537 718 533 700 533 c 0
 687 533 597 517 559 517 c 0
 558 517 558 494 558 465 c 0
 557 370 549 349 548 329 c 0
 548 308 526 158 526 156 c 0
 525 137 516 74 516 74 c 0
 516 74 522 55 518 45 c 0
 512 29 522 29 512 20 c 0
 509 17 506 14 506 13 c 0
 506 10 499 4 494 2 c 0
 488 0 456 6 454 6 c 0
 446 6 437 35 437 35 c 0
 435 38 438 91 441 104 c 0
 442 108 481 391 481 488 c 2
 481 513 l 1
 455 513 l 2
 402 512 421 519 367 515 c 0
 365 515 281 508 210 496 c 1
 211 446 l 2
 212 391 210 358 204 246 c 0
 202 196 199 215 199 183 c 0
 199 127 189 98 186 53 c 0
 185 43 177 29 170 25 c 0
 169 24 94 16 106 60 c 0
 115 93 122 225 126 254 c 0
 133 302 133 371 133 468 c 0
 133 474 134 479 136 485 c 1
 124 484 l 2
 98 481 57 481 50 483 c 0
 40 486 19 489 19 491 c 0
 19 492 18 493 16 493 c 0
 15 493 11 496 7 500 c 0
 0 508 0 508 0 526 c 0
 0 555 1 554 70 557 c 0
 113 559 129 561 201 573 c 0
 298 589 387 595 402 589 c 0
 407 587 411 587 420 588 c 0
 422 588 606 596 634 601 c 0
 669 607 788 620 797 620 c 0
EndSplineSet
Ligature2: "liga" T T
EndChar

StartChar: L_B
Encoding: 1114124 -1 74
Width: 795
VWidth: 78
Flags: W
LayerCount: 2
Fore
SplineSet
708 553 m 0
 709 553 722 533 722 528 c 0
 722 518 730 515 728 499 c 0
 722 461 723 461 722 460 c 0
 722 460 708 432 692 413 c 0
 670 387 638 360 638 360 c 0
 639 359 668 350 681 344 c 0
 708 330 722 318 722 318 c 0
 726 318 756 283 757 277 c 0
 758 274 761 268 763 263 c 0
 768 253 786 193 735 104 c 0
 706 53 698 42 680 22 c 0
 645 -16 635 -21 598 -41 c 0
 574 -54 575 -54 568 -55 c 0
 563 -56 558 -57 558 -58 c 0
 558 -61 498 -59 493 -56 c 0
 491 -55 488 -54 486 -54 c 0
 482 -54 464 -44 459 -43 c 0
 446 -38 437 -16 420 -18 c 0
 419 -18 376 -25 370 54 c 0
 368 78 367 84 365 80 c 0
 356 63 292 65 278 56 c 0
 276 55 225 43 215 39 c 0
 193 29 116 25 101 38 c 0
 97 41 91 44 78 51 c 0
 70 55 47 79 47 83 c 0
 47 84 25 135 22 171 c 0
 21 182 17 338 24 401 c 0
 26 416 28 512 29 512 c 0
 34 512 26 545 39 557 c 0
 45 563 46 562 83 567 c 0
 88 568 96 562 98 557 c 0
 98 556 111 476 107 471 c 0
 103 466 109 420 105 414 c 0
 99 407 92 200 104 152 c 0
 116 107 126 91 252 128 c 0
 296 141 305 142 325 143 c 0
 346 144 361 141 365 135 c 0
 367 131 367 301 365 316 c 0
 359 354 354 455 349 514 c 0
 347 530 347 532 351 536 c 0
 355 541 366 545 372 545 c 0
 381 545 378 565 407 579 c 0
 453 601 471 609 580 603 c 0
 601 602 656 583 657 583 c 0
 661 583 677 574 682 574 c 0
 686 574 705 553 708 553 c 0
648 499 m 0
 630 527 511 541 470 533 c 0
 456 530 441 523 441 520 c 0
 441 517 431 515 426 505 c 0
 416 487 435 452 437 396 c 0
 440 304 444 370 446 176 c 2
 447 83 l 1
 480 49 483 33 498 24 c 0
 504 20 507 20 526 20 c 0
 538 20 550 20 554 22 c 0
 568 27 591 43 608 60 c 0
 674 126 697 204 689 233 c 0
 684 251 663 268 634 278 c 0
 624 281 613 286 608 288 c 0
 585 298 505 294 497 292 c 0
 487 289 479 292 474 301 c 0
 472 304 471 306 470 307 c 0
 466 310 460 353 464 353 c 0
 468 353 459 361 504 375 c 0
 538 386 572 405 608 435 c 0
 631 454 653 490 648 499 c 0
EndSplineSet
Ligature2: "liga" L B
EndChar

StartChar: E_R
Encoding: 1114125 -1 75
Width: 860
VWidth: 876
Flags: W
LayerCount: 2
Fore
SplineSet
98 78 m 2
 134 78 314 108 335 108 c 0
 338 108 353 108 368 108 c 0
 401 108 403 108 408 91 c 0
 410 85 411 81 412 81 c 0
 414 82 414 119 422 173 c 0
 433 243 444 422 440 444 c 0
 437 463 444 473 444 494 c 0
 444 542 471 520 481 533 c 0
 486 539 526 569 557 579 c 0
 588 589 592 589 598 589 c 0
 602 589 605 590 605 591 c 0
 605 593 681 601 755 556 c 0
 761 552 767 549 769 549 c 0
 779 549 817 512 826 493 c 0
 830 486 834 479 835 478 c 0
 836 478 850 442 831 405 c 0
 823 389 811 375 811 375 c 0
 811 369 768 338 768 338 c 0
 763 332 684 297 635 297 c 2
 627 297 l 1
 655 276 l 2
 730 222 795 172 816 104 c 0
 818 96 821 90 822 89 c 0
 825 87 833 31 825 26 c 0
 823 25 822 23 822 21 c 0
 822 20 819 17 816 14 c 0
 810 9 810 9 795 10 c 0
 766 12 763 13 756 20 c 0
 750 26 750 28 750 39 c 0
 750 58 738 97 727 113 c 0
 700 152 552 258 548 261 c 0
 541 265 519 285 516 290 c 0
 512 297 512 263 509 246 c 0
 509 245 494 103 494 102 c 0
 488 47 489 49 482 42 c 0
 476 36 475 36 455 35 c 0
 432 33 417 33 414 60 c 2
 413 70 l 1
 398 43 398 59 386 47 c 0
 384 45 382 43 381 43 c 0
 380 43 374 34 307 27 c 0
 291 25 255 19 252 20 c 0
 246 22 196 7 137 4 c 0
 108 2 121 1 84 -2 c 0
 60 -4 19 -8 19 32 c 0
 19 37 17 42 14 47 c 0
 9 54 9 56 11 73 c 0
 11 75 26 201 27 231 c 0
 28 243 29 262 30 274 c 0
 31 293 38 492 38 494 c 0
 42 519 44 527 49 532 c 0
 60 543 99 570 114 576 c 0
 190 609 376 639 408 622 c 0
 414 619 428 618 430 612 c 0
 431 607 439 603 439 595 c 0
 439 592 440 586 442 582 c 0
 449 565 435 560 435 557 c 0
 435 552 418 543 418 542 c 0
 418 536 375 535 372 539 c 0
 371 540 368 543 365 545 c 0
 359 549 358 549 332 547 c 0
 263 542 147 512 130 500 c 0
 127 498 122 496 119 495 c 0
 113 493 108 491 112 439 c 0
 113 421 114 400 114 391 c 0
 113 376 114 375 118 374 c 0
 127 372 248 384 267 366 c 0
 270 364 272 362 273 362 c 0
 280 362 297 333 288 327 c 0
 287 326 287 307 280 307 c 0
 280 307 247 285 237 295 c 0
 227 305 167 295 131 300 c 0
 109 303 112 305 110 276 c 0
 105 183 95 125 96 124 c 0
 97 121 96 113 91 78 c 1
 98 78 l 2
760 445 m 0
 756 475 653 571 543 495 c 0
 536 490 529 486 528 486 c 0
 527 486 523 483 519 480 c 2
 511 474 l 1
 513 460 l 2
 514 452 514 444 515 442 c 0
 516 440 517 419 517 395 c 0
 517 354 517 352 520 355 c 0
 528 362 545 368 557 369 c 0
 658 376 675 380 702 392 c 0
 728 403 729 404 747 422 c 0
 762 437 761 437 760 445 c 0
EndSplineSet
Ligature2: "liga" E R
Ligature2: "liga" E R
EndChar

StartChar: R_R
Encoding: 1114126 -1 76
Width: 831
VWidth: 26
Flags: W
LayerCount: 2
Fore
SplineSet
304 210 m 0
 307 210 325 194 328 194 c 0
 331 194 362 160 370 148 c 0
 377 137 393 106 394 100 c 0
 396 91 397 321 396 458 c 2
 395 514 l 1
 417 543 419 521 436 541 c 0
 463 573 500 585 569 588 c 0
 681 592 745 554 747 554 c 0
 755 554 790 521 790 514 c 0
 790 512 791 510 792 510 c 0
 797 508 799 472 795 457 c 0
 793 448 782 425 780 423 c 0
 779 422 759 382 698 349 c 0
 689 344 681 339 680 338 c 0
 673 330 589 308 573 300 c 0
 569 298 569 297 584 286 c 0
 607 269 630 246 638 243 c 0
 640 242 697 197 793 70 c 0
 811 46 813 44 810 30 c 0
 809 25 810 27 787 11 c 0
 761 -7 754 -8 738 16 c 0
 714 51 656 112 656 117 c 0
 656 121 577 196 573 196 c 0
 569 196 552 215 518 240 c 0
 504 250 492 260 490 262 c 0
 484 268 476 273 475 271 c 0
 473 269 473 178 475 176 c 0
 476 175 479 137 479 113 c 0
 479 105 485 102 485 80 c 0
 485 65 484 62 472 53 c 0
 460 44 462 44 459 44 c 0
 458 44 448 33 435 40 c 0
 430 42 423 43 419 45 c 0
 416 47 403 66 403 69 c 0
 403 72 400 69 401 53 c 0
 401 45 400 40 399 40 c 0
 398 40 397 38 397 37 c 0
 397 33 393 24 357 22 c 2
 341 21 l 1
 335 27 l 2
 313 48 328 70 309 99 c 0
 302 111 279 134 264 144 c 0
 236 164 104 231 103 230 c 0
 102 229 104 113 112 88 c 0
 116 76 116 58 113 52 c 0
 111 49 110 45 109 42 c 0
 108 36 99 26 93 23 c 0
 86 19 59 20 51 24 c 0
 29 35 22 92 26 134 c 0
 29 166 25 123 23 286 c 0
 22 383 20 443 18 447 c 0
 18 448 6 518 12 528 c 0
 23 549 32 563 36 567 c 0
 39 570 41 571 41 570 c 0
 41 569 44 571 47 574 c 0
 57 584 70 577 81 583 c 0
 84 585 90 587 95 587 c 0
 96 587 142 593 180 588 c 0
 209 585 285 577 324 553 c 0
 340 543 335 551 347 540 c 0
 353 535 357 532 358 533 c 0
 359 534 365 520 367 520 c 0
 369 520 373 504 378 501 c 0
 381 499 381 495 381 470 c 0
 381 439 381 438 368 416 c 0
 341 370 291 333 223 307 c 0
 198 298 203 298 179 290 c 2
 162 285 l 1
 177 278 l 2
 178 277 271 233 297 215 c 0
 300 213 303 210 304 210 c 0
310 469 m 0
 310 483 284 495 284 495 c 0
 277 495 260 512 175 521 c 0
 124 526 83 523 86 513 c 0
 98 473 102 429 101 424 c 0
 99 406 98 348 100 348 c 0
 101 348 170 369 181 374 c 0
 186 376 200 382 211 386 c 0
 245 399 268 413 286 432 c 0
 305 452 310 459 310 469 c 0
477 354 m 0
 480 354 500 364 507 364 c 0
 520 364 591 388 596 389 c 0
 610 391 651 408 669 420 c 0
 696 437 721 465 721 478 c 0
 721 495 653 512 634 515 c 0
 633 515 555 524 521 516 c 0
 505 512 483 502 483 498 c 0
 483 495 472 496 475 452 c 0
 479 398 476 354 477 354 c 0
EndSplineSet
Ligature2: "liga" R R
EndChar

StartChar: T_I
Encoding: 1114127 -1 77
Width: 449
VWidth: 190
Flags: W
LayerCount: 2
Fore
SplineSet
339 609 m 0
 374 616 392 618 392 615 c 0
 392 609 407 620 423 596 c 2
 429 587 l 1
 426 576 l 2
 422 560 416 548 411 546 c 0
 405 543 403 544 368 537 c 0
 292 523 292 522 285 521 c 0
 241 515 260 515 223 509 c 2
 202 506 l 1
 213 468 215 464 215 454 c 0
 215 452 210 318 202 280 c 0
 199 264 192 218 182 181 c 0
 182 180 159 76 161 57 c 0
 163 34 152 38 152 29 c 0
 152 26 136 10 135 11 c 0
 135 11 131 7 109 13 c 0
 81 22 77 27 80 61 c 0
 85 111 103 170 105 194 c 0
 107 213 118 245 126 309 c 0
 133 366 140 428 134 443 c 0
 132 447 131 452 131 456 c 0
 132 463 131 469 127 495 c 1
 117 494 l 2
 94 491 66 485 65 485 c 0
 59 485 51 483 44 480 c 2
 32 475 l 1
 23 479 l 2
 15 483 14 484 7 500 c 0
 -3 523 -2 538 9 545 c 0
 45 567 107 573 108 573 c 0
 146 571 135 576 174 580 c 0
 204 583 205 584 230 589 c 0
 231 589 311 603 339 609 c 0
398 74 m 1
 404 69 406 66 406 62 c 0
 406 57 402 42 400 40 c 0
 399 39 397 36 395 33 c 0
 387 18 339 12 334 30 c 0
 333 32 330 37 328 40 c 0
 320 51 319 71 322 170 c 0
 323 219 324 273 325 291 c 0
 326 309 326 326 325 330 c 0
 320 357 324 374 321 389 c 0
 319 396 318 407 318 413 c 0
 318 438 307 452 314 466 c 0
 316 472 321 479 362 485 c 0
 368 485 379 475 379 470 c 0
 379 469 388 456 396 416 c 0
 402 382 406 361 404 360 c 0
 403 360 406 301 402 244 c 0
 401 229 400 184 399 145 c 2
 398 74 l 1
EndSplineSet
Ligature2: "liga" T I
EndChar

StartChar: L_A
Encoding: 1114128 -1 78
Width: 834
VWidth: 40
Flags: W
LayerCount: 2
Fore
SplineSet
804 16 m 0
 804 8 796 7 796 3 c 0
 796 -4 768 -24 753 -14 c 0
 751 -12 747 -11 746 -11 c 0
 737 -11 722 17 724 21 c 0
 729 29 722 195 716 230 c 2
 713 242 l 1
 677 241 l 2
 582 240 530 224 488 227 c 0
 481 228 475 227 475 226 c 0
 475 226 470 185 467 181 c 0
 466 180 451 58 447 51 c 0
 447 51 435 16 420 4 c 0
 407 -7 400 -2 384 8 c 0
 367 19 367 19 364 29 c 0
 360 40 359 49 362 51 c 0
 364 52 371 88 369 89 c 0
 367 91 325 79 313 73 c 0
 285 60 218 40 188 34 c 0
 170 31 112 29 94 43 c 0
 86 50 73 54 66 62 c 0
 59 70 51 77 50 81 c 0
 50 82 21 127 22 174 c 0
 22 182 17 194 22 298 c 0
 24 346 29 406 34 441 c 0
 48 541 49 540 64 548 c 2
 72 553 l 1
 91 550 l 2
 104 548 126 544 122 520 c 0
 121 515 120 504 120 496 c 0
 120 484 108 388 107 384 c 0
 106 382 93 219 105 149 c 0
 107 136 116 119 126 113 c 0
 156 92 291 146 292 147 c 0
 293 148 354 176 384 159 c 1
 393 213 l 2
 393 215 427 394 439 415 c 0
 440 417 441 420 441 421 c 0
 441 422 477 511 491 533 c 0
 497 542 502 550 502 551 c 0
 502 551 527 580 537 582 c 0
 545 584 546 588 555 589 c 0
 558 589 562 590 565 591 c 0
 577 595 604 589 626 578 c 0
 636 573 668 549 668 546 c 0
 668 543 715 503 748 419 c 0
 750 413 754 406 755 404 c 0
 758 400 768 368 771 352 c 0
 786 287 786 286 788 270 c 0
 795 219 800 194 800 178 c 0
 800 157 805 168 804 16 c 0
599 503 m 0
 572 522 567 513 543 464 c 0
 501 379 489 302 494 305 c 0
 495 306 548 311 670 318 c 1
 699 320 l 1
 694 353 676 383 670 405 c 0
 663 432 623 487 599 503 c 0
EndSplineSet
Ligature2: "liga" L A
EndChar

StartChar: L_L
Encoding: 1114129 -1 79
Width: 752
VWidth: 43
Flags: W
LayerCount: 2
Fore
SplineSet
99 -2 m 0
 94 -2 82 7 79 7 c 0
 77 7 50 35 48 40 c 0
 29 81 30 81 30 87 c 0
 30 96 30 81 23 115 c 0
 18 145 20 272 27 351 c 0
 32 403 29 483 29 484 c 0
 21 531 36 535 56 540 c 0
 90 549 92 547 103 504 c 0
 110 477 111 464 111 425 c 0
 111 391 111 379 109 376 c 0
 106 370 89 179 104 113 c 0
 113 73 119 66 148 68 c 0
 172 69 243 87 261 96 c 0
 275 103 329 117 345 111 c 0
 349 109 350 110 349 112 c 0
 347 117 340 142 340 147 c 0
 340 150 334 315 349 401 c 0
 353 423 358 487 361 491 c 0
 365 498 359 517 370 531 c 0
 376 538 375 537 391 538 c 0
 408 539 426 536 428 517 c 0
 430 499 429 416 427 405 c 0
 427 403 408 213 418 157 c 0
 429 103 446 96 479 95 c 0
 501 94 502 94 557 103 c 0
 614 113 613 113 623 115 c 0
 640 119 670 123 692 125 c 0
 708 126 708 126 717 121 c 0
 726 115 726 115 730 97 c 0
 737 66 731 58 700 53 c 0
 682 50 573 28 517 20 c 0
 456 12 430 24 395 43 c 0
 383 49 366 74 366 66 c 0
 366 57 355 43 348 43 c 0
 333 43 270 16 254 14 c 0
 247 14 213 -2 198 -2 c 0
 194 -2 187 -3 182 -5 c 0
 169 -10 116 -10 108 -5 c 0
 105 -3 101 -2 99 -2 c 0
EndSplineSet
Ligature2: "liga" L L
EndChar

StartChar: O_N
Encoding: 1114130 -1 80
Width: 851
VWidth: 42
Flags: W
LayerCount: 2
Fore
SplineSet
326 114 m 0
 326 112 219 -2 116 31 c 0
 100 36 46 60 25 153 c 0
 17 188 19 312 27 320 c 0
 28 321 29 324 29 327 c 0
 29 338 46 408 50 413 c 0
 51 414 74 471 92 503 c 0
 112 538 142 566 158 568 c 0
 170 569 174 574 182 571 c 0
 185 570 188 570 189 571 c 0
 190 572 190 571 190 570 c 0
 190 566 208 564 217 549 c 0
 220 544 224 541 226 541 c 0
 230 541 267 526 281 519 c 0
 322 498 377 439 377 436 c 0
 377 433 409 387 412 352 c 0
 415 323 416 340 416 425 c 0
 416 566 416 592 456 597 c 0
 484 600 485 584 491 584 c 0
 497 584 520 508 583 393 c 0
 595 371 607 350 608 347 c 0
 608 346 659 255 689 216 c 0
 700 201 726 165 735 154 c 1
 734 185 l 2
 733 202 732 247 730 284 c 0
 730 287 718 540 741 579 c 0
 746 587 756 597 762 599 c 0
 773 604 810 584 814 576 c 0
 820 564 813 575 809 525 c 0
 802 439 802 411 805 369 c 0
 805 366 822 80 812 62 c 0
 810 59 809 56 810 56 c 0
 812 56 805 45 801 43 c 0
 794 39 792 34 786 32 c 0
 776 28 750 33 750 33 c 0
 746 34 720 56 720 56 c 0
 720 57 712 66 702 76 c 0
 661 118 585 232 579 245 c 0
 578 246 547 299 506 376 c 0
 500 388 493 397 493 397 c 0
 493 397 495 307 499 248 c 0
 502 206 501 70 498 67 c 0
 497 66 497 62 497 58 c 0
 497 49 491 45 491 42 c 0
 491 41 489 38 487 36 c 0
 484 33 481 32 461 32 c 0
 449 32 438 32 438 33 c 0
 438 36 432 34 427 42 c 0
 424 47 423 53 423 112 c 0
 423 198 417 350 417 297 c 0
 417 285 411 259 406 247 c 0
 403 240 398 230 396 224 c 0
 365 142 326 120 326 114 c 0
190 468 m 0
 189 469 183 469 175 470 c 2
 161 471 l 1
 155 462 153 459 137 426 c 0
 99 344 109 297 99 286 c 0
 98 284 97 265 97 233 c 2
 97 182 l 1
 104 159 l 2
 119 105 141 102 159 102 c 0
 198 102 227 129 268 165 c 0
 278 174 306 202 326 259 c 0
 329 269 333 279 335 282 c 0
 340 292 340 314 335 340 c 0
 328 374 320 388 292 415 c 0
 271 435 264 442 247 451 c 0
 236 457 234 457 233 454 c 0
 232 449 210 443 202 446 c 0
 191 450 194 466 190 468 c 0
EndSplineSet
Ligature2: "liga" O N
EndChar

StartChar: C_A
Encoding: 1114131 -1 81
Width: 776
VWidth: 102
Flags: W
LayerCount: 2
Fore
SplineSet
167 -30 m 0
 150 -30 103 -3 103 -2 c 0
 103 -1 77 14 54 59 c 0
 48 71 43 84 43 86 c 0
 43 87 30 111 25 149 c 0
 25 151 24 153 23 155 c 0
 21 159 5 304 56 413 c 0
 84 475 102 512 151 561 c 0
 190 599 204 604 233 612 c 0
 250 617 284 617 289 613 c 0
 291 611 294 610 296 610 c 0
 301 610 331 594 333 591 c 0
 337 582 358 580 384 520 c 0
 391 503 378 495 373 492 c 0
 357 481 354 480 342 492 c 0
 298 535 277 555 243 539 c 0
 240 538 108 474 96 229 c 0
 94 189 103 137 116 106 c 0
 119 99 149 35 206 45 c 0
 261 54 305 91 317 91 c 0
 323 91 332 113 347 111 c 0
 360 110 356 121 356 121 c 0
 356 122 371 272 376 291 c 0
 380 306 383 341 390 367 c 0
 408 441 408 441 421 472 c 0
 421 473 445 523 467 539 c 0
 482 551 487 553 487 553 c 0
 487 559 535 562 548 557 c 0
 552 555 555 554 555 555 c 0
 555 557 579 540 581 540 c 0
 584 540 626 503 644 468 c 0
 647 462 652 453 654 450 c 0
 671 427 685 371 692 359 c 0
 700 344 730 245 738 190 c 0
 739 182 741 170 743 163 c 0
 752 121 754 40 746 31 c 0
 744 29 742 27 742 26 c 0
 742 24 734 18 734 14 c 0
 734 5 688 7 682 14 c 0
 679 18 672 33 672 35 c 0
 672 37 671 39 669 40 c 0
 665 43 666 59 671 64 c 0
 676 70 673 110 661 184 c 0
 654 229 657 225 633 225 c 0
 622 225 602 226 590 227 c 0
 566 229 541 228 476 222 c 2
 443 218 l 1
 444 205 l 2
 444 186 435 139 435 128 c 0
 432 87 411 -1 383 5 c 0
 359 10 347 14 346 17 c 0
 343 25 341 25 324 13 c 0
 300 -5 246 -30 232 -30 c 0
 221 -29 187 -36 179 -32 c 0
 177 -31 171 -30 167 -30 c 0
632 300 m 1
 619 323 615 345 615 345 c 0
 615 346 592 427 547 468 c 0
 535 479 531 482 526 482 c 0
 485 482 457 302 457 300 c 0
 457 297 458 297 461 298 c 0
 463 298 561 308 622 301 c 2
 632 300 l 1
EndSplineSet
Ligature2: "liga" C A
EndChar

StartChar: P_S
Encoding: 1114132 -1 82
Width: 830
VWidth: 45
Flags: W
LayerCount: 2
Fore
SplineSet
103 42 m 1
 91 32 90 30 59 30 c 2
 39 30 l 1
 35 35 30 41 26 46 c 1
 27 119 l 2
 27 159 28 204 29 219 c 0
 36 303 24 281 26 307 c 0
 28 332 37 318 35 408 c 2
 34 446 l 1
 24 449 l 2
 11 452 6 457 3 470 c 0
 -1 489 -1 493 4 511 c 0
 9 531 12 535 42 562 c 0
 79 595 162 615 224 604 c 0
 260 598 315 570 316 570 c 0
 320 570 353 543 356 543 c 0
 359 543 411 487 411 470 c 0
 411 464 420 488 425 496 c 0
 427 499 428 502 428 503 c 0
 428 506 443 522 443 524 c 0
 443 526 476 553 478 553 c 0
 479 553 531 585 553 588 c 0
 569 591 602 604 642 605 c 0
 706 608 736 578 737 572 c 0
 737 571 740 559 738 548 c 0
 738 548 726 523 709 521 c 0
 689 519 659 540 589 518 c 0
 581 515 570 512 564 510 c 0
 548 506 518 488 506 476 c 0
 471 439 479 354 498 354 c 0
 515 354 564 378 568 378 c 0
 571 378 595 391 604 393 c 0
 608 394 613 395 615 397 c 0
 622 401 653 401 662 396 c 0
 666 394 670 392 671 392 c 0
 672 392 724 371 750 343 c 0
 753 339 759 334 762 331 c 0
 767 326 782 296 782 291 c 0
 782 290 806 234 798 177 c 0
 793 135 765 88 765 84 c 0
 765 80 734 50 727 47 c 0
 726 47 661 8 627 3 c 0
 617 1 624 -1 597 -3 c 0
 537 -7 499 23 476 47 c 0
 458 65 456 69 444 92 c 2
 432 116 l 1
 431 138 l 2
 430 159 430 161 435 170 c 0
 441 182 447 184 467 186 c 0
 477 187 487 189 487 178 c 0
 487 176 488 174 489 174 c 0
 490 174 491 172 491 168 c 0
 491 159 496 158 496 154 c 0
 496 149 508 127 521 110 c 0
 540 84 558 75 590 75 c 0
 609 75 609 75 633 85 c 0
 679 104 694 115 705 137 c 0
 711 150 721 180 723 191 c 0
 725 204 715 269 699 287 c 0
 689 298 655 319 644 321 c 0
 620 326 551 284 537 284 c 0
 535 284 532 283 532 282 c 0
 532 281 530 280 527 280 c 0
 512 280 515 271 491 277 c 0
 484 279 475 281 471 281 c 0
 470 281 419 288 403 375 c 1
 397 363 l 2
 386 343 373 331 373 328 c 0
 373 326 341 296 333 291 c 0
 310 276 277 254 235 246 c 0
 174 233 109 247 109 247 c 0
 106 244 102 123 103 68 c 2
 103 42 l 1
221 530 m 0
 197 537 141 536 120 527 c 2
 109 523 l 1
 110 513 l 2
 110 507 111 462 111 414 c 2
 112 326 l 1
 123 323 l 2
 135 319 193 315 223 322 c 0
 248 328 282 346 301 364 c 0
 311 374 330 398 330 401 c 0
 330 409 347 429 334 452 c 0
 327 464 295 495 280 504 c 0
 266 513 238 525 221 530 c 0
EndSplineSet
Ligature2: "liga" P S
EndChar

StartChar: T_O
Encoding: 1114133 -1 83
Width: 715
VWidth: 97
Flags: W
LayerCount: 2
Fore
SplineSet
45 441 m 0
 25 441 -1 475 0 488 c 0
 1 496 17 511 39 526 c 0
 63 543 91 541 102 544 c 0
 133 554 279 588 370 581 c 0
 392 579 396 576 403 564 c 0
 408 556 409 555 407 541 c 2
 405 526 l 1
 417 526 430 527 442 527 c 1
 446 523 449 518 453 514 c 1
 471 514 l 2
 542 515 595 469 596 469 c 0
 598 469 635 432 640 425 c 0
 676 368 690 346 690 285 c 0
 690 226 668 182 667 181 c 0
 666 180 620 84 559 42 c 0
 521 16 502 6 481 1 c 0
 460 -5 431 -10 426 -9 c 0
 418 -8 389 -6 385 -4 c 0
 379 -1 352 11 349 14 c 0
 331 30 292 65 277 167 c 0
 269 220 277 400 358 493 c 0
 364 500 369 506 370 507 c 0
 374 510 296 503 260 498 c 0
 251 497 210 491 210 491 c 0
 207 489 214 317 202 111 c 0
 197 27 197 23 191 18 c 0
 186 13 185 13 167 14 c 0
 127 17 118 22 121 55 c 0
 121 59 136 306 131 461 c 0
 130 473 127 475 118 470 c 0
 100 460 64 458 52 443 c 0
 51 441 48 441 45 441 c 0
431 429 m 0
 424 429 412 433 410 436 c 0
 407 440 388 404 379 376 c 0
 368 345 339 255 361 145 c 0
 368 112 376 82 407 72 c 0
 461 54 525 112 544 131 c 0
 562 149 608 218 611 281 c 0
 612 303 612 304 605 326 c 0
 571 425 490 437 488 437 c 0
 485 437 490 408 486 404 c 0
 482 400 448 388 445 406 c 0
 444 409 442 415 440 420 c 0
 437 428 436 429 431 429 c 0
EndSplineSet
Ligature2: "liga" T O
EndChar

StartChar: plus
Encoding: 43 43 84
Width: 463
VWidth: 611
Flags: W
LayerCount: 2
Fore
SplineSet
261 71 m 0
 261 69 247 62 247 60 c 0
 247 59 236 56 236 57 c 0
 236 57 225 45 209 62 c 0
 197 75 195 68 188 82 c 0
 184 90 184 92 186 98 c 0
 187 102 189 132 190 175 c 2
 191 246 l 1
 156 245 l 2
 76 242 100 233 32 231 c 0
 24 231 10 230 1 265 c 0
 -5 285 15 295 15 295 c 0
 54 313 85 323 162 324 c 0
 179 324 193 324 194 325 c 0
 196 327 194 412 192 427 c 0
 190 441 190 442 195 454 c 0
 203 473 204 474 219 477 c 0
 240 481 255 480 259 476 c 0
 261 474 275 457 276 361 c 2
 276 320 l 1
 303 316 370 313 385 312 c 0
 429 310 428 311 433 306 c 0
 437 302 447 262 442 251 c 0
 435 235 419 230 374 232 c 0
 340 233 285 236 278 238 c 0
 274 239 271 240 270 161 c 0
 269 106 268 79 264 75 c 0
 263 73 261 72 261 71 c 0
EndSplineSet
EndChar

StartChar: brokenbar
Encoding: 166 166 85
Width: 145
VWidth: 937
Flags: W
LayerCount: 2
Fore
SplineSet
28 631 m 0
 28 631 28 631 30 662 c 0
 30 664 33 669 37 673 c 0
 43 680 43 679 84 683 c 0
 85 683 101 676 101 661 c 0
 101 657 102 652 104 650 c 0
 105 649 116 586 106 478 c 0
 92 333 114 304 99 275 c 0
 91 259 81 259 71 259 c 1
 92 253 102 234 102 234 c 0
 106 226 108 191 108 105 c 0
 108 57 109 0 110 -22 c 0
 113 -91 103 -142 103 -143 c 0
 102 -145 101 -149 100 -152 c 0
 99 -156 96 -159 90 -162 c 0
 81 -166 81 -166 63 -163 c 0
 25 -156 24 -155 28 -95 c 0
 30 -54 30 -39 26 23 c 0
 24 59 27 232 36 237 c 0
 37 238 38 240 38 242 c 0
 38 251 50 260 60 258 c 0
 74 256 48 265 48 265 c 0
 44 265 30 271 30 273 c 0
 30 274 28 276 26 279 c 0
 18 288 27 307 22 325 c 0
 19 334 19 439 22 445 c 0
 28 455 29 521 28 631 c 0
EndSplineSet
EndChar

StartChar: ampersand
Encoding: 38 38 86
Width: 477
VWidth: 749
Flags: W
LayerCount: 2
Fore
SplineSet
77 554 m 0
 83 554 87 568 141 571 c 0
 153 572 163 572 165 571 c 0
 167 570 173 569 178 568 c 0
 228 560 293 507 297 451 c 0
 298 430 297 411 294 406 c 0
 294 405 286 373 266 346 c 0
 250 324 248 321 238 310 c 2
 228 300 l 1
 240 290 l 2
 256 278 256 278 302 238 c 2
 320 223 l 1
 323 231 l 2
 325 235 327 241 328 244 c 0
 329 248 329 248 346 268 c 0
 351 274 355 275 374 269 c 2
 388 265 l 1
 391 255 l 2
 398 225 384 178 382 173 c 0
 380 168 380 167 391 157 c 0
 391 157 427 124 429 124 c 0
 431 124 445 102 452 94 c 0
 457 88 458 77 454 69 c 0
 451 63 413 39 406 39 c 0
 384 39 382 60 355 82 c 2
 342 93 l 1
 265 -13 205 -5 194 -14 c 0
 192 -16 145 -16 145 -14 c 0
 145 -13 139 -11 132 -9 c 0
 116 -5 116 -5 91 10 c 0
 51 33 31 60 20 104 c 0
 -8 213 29 242 29 256 c 0
 29 261 56 291 66 296 c 0
 69 298 76 302 82 306 c 0
 93 313 93 314 84 324 c 0
 50 361 14 457 47 516 c 0
 54 529 74 554 77 554 c 0
200 470 m 0
 188 482 170 494 147 494 c 0
 144 494 136 492 128 491 c 0
 113 489 105 464 110 436 c 0
 115 410 145 362 161 355 c 0
 167 352 167 353 178 363 c 0
 187 372 217 404 217 432 c 0
 217 451 214 457 200 470 c 0
264 163 m 2
 249 178 175 241 174 242 c 2
 154 258 l 1
 144 252 l 2
 108 232 82 215 96 138 c 0
 101 112 105 100 112 93 c 0
 120 84 143 72 157 68 c 0
 169 65 170 65 185 68 c 0
 210 73 221 80 247 106 c 0
 259 118 273 132 276 137 c 2
 282 146 l 1
 264 163 l 2
EndSplineSet
EndChar

StartChar: asciicircum
Encoding: 94 94 87
Width: 384
VWidth: 721
Flags: W
LayerCount: 2
Fore
SplineSet
107 389 m 0
 107 385 93 371 93 367 c 0
 93 363 60 332 52 329 c 0
 37 323 35 325 17 343 c 0
 1 359 0 359 0 369 c 0
 0 386 6 380 6 387 c 0
 6 389 23 414 27 418 c 0
 50 442 75 532 113 582 c 0
 116 586 121 593 122 596 c 0
 130 615 181 613 181 604 c 0
 181 603 183 602 184 602 c 0
 187 602 211 577 211 574 c 0
 211 562 330 453 347 423 c 0
 356 407 361 395 360 392 c 0
 360 391 361 386 362 380 c 0
 366 364 362 360 336 350 c 0
 313 341 301 336 285 368 c 0
 272 395 242 418 224 441 c 0
 222 444 219 447 218 447 c 0
 216 447 216 446 174 492 c 2
 160 508 l 1
 156 497 l 2
 152 487 126 434 126 433 c 0
 126 430 108 399 107 389 c 0
EndSplineSet
EndChar

StartChar: underscore
Encoding: 95 95 88
Width: 471
VWidth: 168
Flags: W
LayerCount: 2
Fore
SplineSet
409 31 m 0
 429 39 437 22 443 7 c 2
 451 -13 l 1
 445 -26 l 2
 439 -39 433 -44 426 -44 c 0
 425 -44 420 -47 416 -49 c 0
 401 -57 301 -52 295 -55 c 0
 290 -58 145 -60 77 -58 c 0
 24 -57 15 -55 5 -41 c 0
 -1 -33 -1 -31 2 -5 c 0
 6 25 8 25 85 23 c 0
 132 21 237 23 253 25 c 0
 255 25 405 29 409 31 c 0
EndSplineSet
EndChar

StartChar: emdash
Encoding: 8212 8212 89
Width: 747
VWidth: 510
Flags: W
LayerCount: 2
Fore
SplineSet
203 276 m 0
 326 276 584 282 588 282 c 2
 655 282 l 1
 662 291 662 291 681 293 c 0
 697 294 714 271 719 271 c 0
 720 271 722 268 724 264 c 0
 727 258 727 256 724 241 c 0
 720 218 719 216 708 209 c 2
 699 203 l 1
 621 202 l 2
 529 201 422 198 394 195 c 0
 382 194 350 194 315 195 c 0
 252 196 195 196 96 195 c 0
 43 194 35 195 30 198 c 0
 22 203 9 204 3 211 c 0
 -4 220 0 273 18 273 c 0
 20 273 23 273 24 274 c 0
 25 275 106 276 203 276 c 0
EndSplineSet
EndChar

StartChar: endash
Encoding: 8211 8211 90
Width: 474
VWidth: 435
Flags: W
LayerCount: 2
Fore
SplineSet
120 289 m 0
 138 289 426 300 429 300 c 0
 444 301 447 284 449 270 c 0
 451 259 453 247 454 244 c 0
 454 244 456 228 430 223 c 0
 398 217 349 214 340 217 c 0
 324 222 58 192 17 215 c 0
 -2 226 -1 257 3 265 c 0
 17 289 85 289 120 289 c 0
EndSplineSet
EndChar

StartChar: hyphen
Encoding: 45 45 91
Width: 442
VWidth: 446
Flags: W
LayerCount: 2
Fore
SplineSet
230 316 m 0
 265 320 385 320 387 320 c 0
 406 319 407 319 413 313 c 0
 419 306 420 303 422 278 c 0
 423 259 421 253 411 246 c 0
 403 240 389 239 313 237 c 0
 311 237 79 228 65 226 c 0
 17 219 12 230 4 252 c 0
 -13 296 36 297 36 303 c 0
 36 312 184 310 230 316 c 0
EndSplineSet
EndChar

StartChar: parenleft
Encoding: 40 40 92
Width: 258
VWidth: 868
Flags: W
LayerCount: 2
Fore
SplineSet
222 -79 m 0
 222 -81 209 -102 189 -102 c 0
 170 -102 121 -48 106 -27 c 0
 92 -7 65 42 55 66 c 0
 39 104 37 108 29 137 c 0
 9 210 9 211 10 274 c 0
 11 310 12 332 14 343 c 0
 23 391 35 421 35 422 c 0
 35 432 91 552 116 574 c 0
 118 576 120 580 120 581 c 0
 120 584 138 608 148 618 c 0
 151 622 163 630 173 635 c 0
 204 651 211 648 228 617 c 2
 238 597 l 1
 235 588 l 2
 229 574 223 576 218 567 c 0
 216 564 212 560 208 558 c 0
 192 550 73 407 92 230 c 0
 99 160 142 63 155 44 c 0
 207 -36 231 -28 232 -52 c 0
 232 -70 222 -71 222 -79 c 0
EndSplineSet
EndChar

StartChar: parenright
Encoding: 41 41 93
Width: 254
VWidth: 861
Flags: W
LayerCount: 2
Fore
SplineSet
6 611 m 0
 12 630 14 639 32 640 c 0
 40 640 77 629 81 625 c 0
 83 623 85 623 86 623 c 0
 88 623 90 615 109 591 c 0
 133 562 165 511 173 488 c 0
 184 461 192 438 198 415 c 0
 215 350 215 349 216 342 c 0
 222 306 219 203 211 181 c 0
 211 180 201 107 193 99 c 0
 192 98 192 96 192 94 c 0
 192 90 173 48 165 33 c 0
 137 -18 87 -68 80 -82 c 0
 76 -90 70 -93 40 -99 c 0
 30 -101 26 -101 18 -94 c 0
 7 -85 0 -74 0 -68 c 0
 0 -64 4 -53 7 -40 c 0
 13 -17 24 -26 38 -6 c 0
 42 0 52 11 59 20 c 0
 79 44 114 83 129 178 c 0
 131 194 135 215 137 226 c 0
 145 269 132 357 130 362 c 0
 129 363 112 437 84 485 c 0
 79 493 76 501 76 502 c 0
 76 507 33 558 17 573 c 0
 -1 589 2 597 6 611 c 0
EndSplineSet
EndChar

StartChar: bracketleft
Encoding: 91 91 94
Width: 301
VWidth: 855
Flags: W
LayerCount: 2
Fore
SplineSet
31 619 m 0
 35 627 59 637 64 636 c 0
 86 631 110 630 110 633 c 0
 110 635 132 635 132 630 c 0
 132 627 133 628 144 629 c 0
 151 630 180 630 210 630 c 0
 283 629 283 630 281 592 c 0
 280 567 277 558 270 558 c 0
 268 558 265 558 265 557 c 0
 264 555 137 549 117 551 c 2
 103 553 l 1
 101 512 l 2
 99 453 100 370 103 366 c 0
 105 364 105 341 105 262 c 0
 105 260 109 53 107 50 c 0
 106 49 105 35 105 19 c 2
 105 -10 l 1
 129 -10 l 2
 142 -10 153 -10 153 -9 c 0
 153 -7 169 -10 170 -7 c 0
 172 -3 213 -4 222 -8 c 0
 239 -15 245 -5 258 -19 c 0
 265 -26 265 -28 266 -45 c 0
 268 -74 269 -75 262 -82 c 0
 258 -86 254 -88 251 -88 c 0
 244 -88 268 -92 143 -89 c 0
 114 -88 66 -102 42 -89 c 0
 12 -74 12 -55 18 -25 c 0
 18 -23 34 127 26 153 c 0
 24 160 23 170 23 187 c 0
 24 248 25 312 20 357 c 0
 13 422 22 486 18 577 c 2
 17 601 l 1
 23 607 28 613 31 619 c 0
EndSplineSet
EndChar

StartChar: bracketright
Encoding: 93 93 95
Width: 328
VWidth: 837
Flags: W
LayerCount: 2
Fore
SplineSet
52 619 m 0
 95 618 98 624 127 619 c 0
 142 616 137 616 221 616 c 0
 247 616 255 616 261 613 c 0
 265 611 269 609 269 608 c 0
 269 607 271 604 274 600 c 0
 281 592 283 584 284 550 c 0
 288 411 292 255 287 211 c 0
 286 204 281 -67 281 -70 c 0
 279 -86 274 -91 263 -91 c 0
 251 -91 253 -103 230 -96 c 0
 222 -94 209 -93 187 -93 c 0
 140 -93 98 -95 94 -97 c 0
 93 -97 57 -102 36 -92 c 0
 30 -89 24 -87 23 -87 c 0
 22 -87 21 -87 21 -86 c 0
 21 -85 19 -82 17 -79 c 0
 6 -66 23 -24 27 -24 c 0
 31 -24 37 -16 53 -16 c 0
 97 -19 165 -12 185 -12 c 2
 201 -12 l 1
 203 -1 l 2
 204 5 204 51 204 101 c 0
 204 138 208 318 208 320 c 0
 208 386 205 517 203 530 c 2
 201 538 l 1
 160 539 l 2
 91 540 106 545 94 541 c 0
 89 539 79 539 60 540 c 0
 16 542 9 546 4 566 c 0
 -1 587 -1 598 4 605 c 0
 9 612 13 614 20 614 c 0
 34 614 11 620 52 619 c 0
EndSplineSet
EndChar

StartChar: braceleft
Encoding: 123 123 96
Width: 251
VWidth: 874
Flags: W
LayerCount: 2
Fore
SplineSet
30 323 m 0
 34 323 46 331 53 331 c 0
 56 331 63 334 69 339 c 0
 79 346 84 350 71 374 c 0
 63 389 61 399 43 432 c 0
 11 489 17 537 18 538 c 0
 19 539 20 543 20 547 c 0
 20 551 21 553 22 553 c 0
 23 553 24 555 24 556 c 0
 24 558 31 572 38 585 c 0
 42 592 63 612 68 614 c 0
 72 615 107 642 129 642 c 0
 143 642 146 646 156 648 c 0
 163 649 192 646 202 643 c 0
 231 634 211 583 208 580 c 0
 196 568 154 573 135 561 c 0
 116 549 109 542 104 533 c 2
 99 524 l 1
 103 506 l 2
 106 489 117 464 121 462 c 0
 126 460 148 400 153 400 c 0
 159 400 165 331 159 327 c 0
 156 325 156 315 149 306 c 0
 135 287 160 283 160 275 c 0
 160 271 182 233 174 194 c 0
 162 139 166 173 159 144 c 0
 153 121 119 67 119 60 c 0
 119 52 104 46 103 21 c 0
 103 6 107 -2 121 -15 c 0
 129 -22 129 -22 139 -21 c 0
 145 -20 153 -20 157 -20 c 0
 172 -20 182 -8 206 -20 c 2
 218 -26 l 1
 225 -44 l 2
 229 -56 241 -91 209 -91 c 0
 195 -91 198 -106 154 -104 c 0
 115 -102 109 -91 106 -91 c 0
 99 -91 40 -49 40 -41 c 0
 40 -40 39 -38 37 -36 c 0
 36 -35 5 31 42 94 c 0
 65 134 83 166 91 203 c 2
 94 219 l 1
 89 229 l 2
 83 241 79 243 65 240 c 0
 57 238 53 240 35 245 c 0
 13 251 11 253 10 267 c 0
 9 276 5 279 5 291 c 0
 4 302 11 316 18 317 c 0
 24 318 26 323 30 323 c 0
EndSplineSet
EndChar

StartChar: braceright
Encoding: 125 125 97
Width: 264
VWidth: 893
Flags: W
LayerCount: 2
Fore
SplineSet
35 631 m 0
 35 650 53 655 53 655 c 0
 59 655 68 664 84 662 c 0
 130 658 157 653 174 633 c 0
 178 629 181 626 183 626 c 0
 185 626 186 625 185 624 c 0
 182 618 211 607 216 554 c 0
 223 476 182 419 181 419 c 0
 180 419 178 418 178 417 c 0
 178 414 151 374 151 362 c 0
 151 345 214 331 216 328 c 0
 218 324 234 323 237 312 c 0
 237 311 239 309 240 308 c 0
 244 305 245 291 242 285 c 0
 241 282 239 277 238 273 c 0
 237 267 236 265 228 261 c 0
 223 259 217 256 214 254 c 0
 206 249 174 247 171 235 c 0
 166 216 192 160 192 159 c 0
 192 158 205 135 207 78 c 0
 210 0 184 -43 184 -44 c 0
 184 -47 173 -61 171 -61 c 0
 170 -61 168 -63 168 -64 c 0
 168 -74 145 -94 127 -100 c 0
 91 -111 91 -111 90 -110 c 0
 82 -104 -3 -120 0 -72 c 0
 1 -59 12 -29 17 -26 c 0
 33 -18 61 -35 89 -27 c 0
 127 -16 136 94 114 138 c 0
 102 163 98 173 98 177 c 0
 98 181 78 244 97 269 c 0
 100 273 101 277 101 278 c 0
 101 280 102 283 104 285 c 0
 112 296 86 296 75 329 c 0
 71 340 70 347 70 365 c 0
 70 374 70 401 86 421 c 0
 92 429 115 467 121 479 c 0
 133 502 148 551 122 569 c 0
 83 595 82 569 57 584 c 0
 44 592 35 611 35 631 c 0
EndSplineSet
EndChar

StartChar: slash
Encoding: 47 47 98
Width: 363
VWidth: 773
Flags: W
LayerCount: 2
Fore
SplineSet
142 91 m 0
 142 88 124 56 125 56 c 0
 126 56 92 -10 92 -10 c 0
 93 -10 80 -32 78 -46 c 0
 77 -51 61 -62 53 -65 c 0
 36 -70 23 -54 13 -54 c 0
 12 -54 8 -52 5 -49 c 0
 -4 -41 -1 -24 13 8 c 0
 20 24 52 88 52 88 c 0
 50 88 70 120 69 122 c 0
 69 124 84 154 83 155 c 0
 82 156 122 255 122 256 c 0
 122 259 148 317 149 326 c 0
 150 330 163 353 163 356 c 0
 163 360 211 460 218 469 c 0
 226 480 233 492 231 492 c 0
 230 492 263 539 267 557 c 0
 273 589 298 578 312 573 c 0
 320 570 327 568 328 568 c 0
 332 567 340 559 342 553 c 0
 350 533 313 469 307 464 c 0
 286 427 l 0
 288 427 270 400 268 392 c 0
 267 385 252 361 253 360 c 0
 254 359 236 327 236 325 c 0
 236 324 209 264 209 258 c 0
 209 253 183 199 183 192 c 0
 183 184 142 92 142 91 c 0
EndSplineSet
EndChar

StartChar: backslash
Encoding: 92 92 99
Width: 363
VWidth: 773
Flags: W
LayerCount: 2
Fore
SplineSet
160 192 m 0
 160 199 135 253 135 258 c 0
 135 272 66 411 65 412 c 0
 60 420 56 427 57 427 c 0
 60 427 -10 526 1 553 c 0
 5 563 6 563 31 573 c 0
 40 576 50 579 54 579 c 0
 66 579 74 572 77 557 c 0
 81 539 112 492 112 492 c 0
 107 492 133 460 132 458 c 0
 131 456 140 445 146 431 c 0
 151 417 180 359 180 356 c 0
 180 353 194 330 195 326 c 0
 196 317 221 259 221 256 c 0
 221 252 233 232 236 220 c 0
 247 180 275 123 275 122 c 0
 274 120 293 88 291 88 c 0
 289 88 327 21 326 20 c 0
 326 15 355 -33 338 -49 c 0
 335 -52 332 -54 331 -54 c 0
 321 -54 307 -70 290 -65 c 0
 282 -62 267 -51 266 -46 c 0
 264 -32 251 -10 252 -10 c 0
 254 -10 235 18 234 23 c 0
 233 28 217 56 218 56 c 0
 219 56 202 88 202 91 c 0
 202 92 160 184 160 192 c 0
EndSplineSet
EndChar

StartChar: less
Encoding: 60 60 100
Width: 359
VWidth: 729
Flags: W
LayerCount: 2
Fore
SplineSet
278 549 m 0
 298 559 298 558 317 539 c 0
 326 530 334 521 336 517 c 0
 343 503 346 507 249 409 c 0
 169 329 139 300 133 300 c 0
 131 300 102 278 101 275 c 0
 100 272 116 262 155 220 c 0
 206 165 223 155 228 143 c 0
 230 138 280 81 293 69 c 0
 320 42 314 43 324 33 c 0
 333 23 332 16 319 -3 c 0
 306 -21 306 -21 295 -24 c 0
 261 -33 240 13 233 16 c 0
 221 22 158 106 145 115 c 0
 119 133 113 155 44 217 c 0
 30 230 -4 262 0 277 c 0
 0 278 1 282 2 286 c 0
 4 302 9 308 23 314 c 0
 28 316 31 323 65 348 c 0
 122 390 189 463 193 463 c 0
 194 463 197 466 200 469 c 0
 219 493 268 544 278 549 c 0
EndSplineSet
EndChar

StartChar: greater
Encoding: 62 62 101
Width: 359
VWidth: 729
Flags: W
LayerCount: 2
Fore
SplineSet
22 539 m 0
 41 558 41 559 61 549 c 0
 71 544 120 493 139 469 c 0
 142 466 145 463 146 463 c 0
 150 463 217 390 274 348 c 0
 291 336 315 314 316 314 c 0
 330 308 335 302 337 286 c 0
 339 269 341 258 295 217 c 0
 226 155 220 133 194 115 c 0
 190 112 183 103 177 96 c 0
 172 90 115 20 106 16 c 0
 98 13 78 -33 44 -24 c 0
 33 -21 33 -21 20 -3 c 0
 7 16 6 23 15 33 c 0
 24 43 19 42 46 69 c 0
 59 82 109 138 111 143 c 0
 116 156 132 164 184 220 c 0
 199 236 218 255 225 261 c 0
 232 267 238 274 238 275 c 0
 237 278 208 300 206 300 c 0
 200 300 169 329 90 409 c 0
 -7 507 -4 503 3 517 c 0
 5 521 13 530 22 539 c 0
EndSplineSet
EndChar

StartChar: divide
Encoding: 247 247 102
Width: 472
VWidth: 641
Flags: W
LayerCount: 2
Fore
SplineSet
216 500 m 1
 216 498 225 504 234 505 c 0
 242 505 255 499 256 495 c 0
 260 484 276 487 280 469 c 0
 283 458 259 417 259 423 c 0
 259 425 252 418 248 411 c 0
 243 403 240 400 226 399 c 0
 202 397 193 399 186 409 c 0
 184 411 181 417 177 421 c 0
 158 442 184 481 194 484 c 0
 196 485 198 486 198 487 c 0
 198 489 204 489 211 496 c 0
 214 499 216 500 216 500 c 1
21 315 m 0
 21 330 349 326 352 329 c 0
 354 331 407 329 424 327 c 0
 440 325 442 324 447 319 c 0
 452 313 452 312 452 294 c 0
 452 281 451 273 449 268 c 0
 446 261 436 250 432 250 c 0
 370 247 121 250 57 243 c 0
 47 242 39 241 38 242 c 0
 37 243 31 244 25 245 c 0
 7 247 2 257 1 286 c 2
 0 300 l 1
 8 307 l 2
 12 311 16 314 18 314 c 0
 19 314 21 314 21 315 c 0
187 156 m 0
 188 156 223 172 245 159 c 0
 254 153 255 153 267 130 c 0
 279 109 279 101 269 92 c 0
 266 89 263 86 263 85 c 0
 263 82 249 61 247 61 c 0
 240 61 229 40 200 55 c 0
 195 58 189 59 188 59 c 0
 187 59 186 60 186 61 c 0
 186 63 176 65 173 77 c 0
 173 79 171 85 169 91 c 0
 166 100 165 104 167 109 c 0
 168 113 169 117 169 120 c 0
 169 127 182 153 187 156 c 0
EndSplineSet
EndChar

StartChar: plusminus
Encoding: 177 177 103
Width: 471
VWidth: 745
Flags: W
LayerCount: 2
Fore
SplineSet
5 405 m 0
 8 405 8 411 12 411 c 0
 18 411 19 420 51 424 c 0
 52 424 128 437 146 438 c 0
 163 439 178 440 179 441 c 0
 181 442 180 517 177 535 c 0
 173 563 178 565 196 576 c 0
 205 582 214 587 217 588 c 0
 221 590 236 590 238 588 c 0
 238 588 244 578 251 566 c 2
 265 544 l 1
 264 513 l 2
 264 510 262 447 262 446 c 0
 263 437 258 438 310 433 c 0
 345 429 395 429 418 433 c 0
 435 436 441 418 441 418 c 0
 445 400 448 376 447 372 c 0
 439 338 308 352 307 352 c 0
 293 354 278 356 271 357 c 2
 259 358 l 1
 257 325 l 2
 253 242 268 260 265 244 c 0
 264 238 260 231 258 231 c 0
 254 231 249 213 234 213 c 0
 228 213 223 207 217 208 c 0
 194 213 193 219 193 219 c 0
 193 220 191 224 188 228 c 0
 178 242 177 255 177 310 c 2
 177 360 l 1
 131 358 l 2
 24 352 9 364 4 371 c 0
 1 375 -3 405 5 405 c 0
46 149 m 0
 124 175 243 184 403 176 c 0
 443 174 444 173 449 164 c 0
 452 159 451 125 448 112 c 0
 444 94 431 94 390 96 c 0
 389 96 292 99 266 99 c 0
 197 104 49 71 48 71 c 0
 26 72 21 88 18 98 c 0
 12 120 11 120 16 130 c 0
 21 141 25 142 46 149 c 0
EndSplineSet
EndChar

StartChar: radical
Encoding: 8730 8730 104
Width: 533
VWidth: 857
Flags: W
LayerCount: 2
Fore
SplineSet
266 638 m 0
 347 607 453 632 483 619 c 0
 488 617 492 616 493 616 c 0
 497 616 504 605 504 599 c 0
 504 587 517 582 511 567 c 0
 508 561 482 534 462 540 c 0
 421 552 356 532 296 547 c 2
 286 550 l 1
 284 518 l 2
 283 501 282 478 281 467 c 0
 278 423 248 214 248 211 c 0
 248 208 210 -38 196 -68 c 0
 187 -87 174 -80 169 -85 c 0
 162 -92 140 -88 133 -79 c 0
 132 -78 76 11 58 54 c 0
 35 112 25 138 19 143 c 0
 17 144 13 149 11 153 c 0
 -3 180 -3 182 7 197 c 0
 26 225 34 229 49 219 c 0
 70 205 96 180 96 174 c 0
 96 168 132 91 132 90 c 0
 138 75 141 70 142 73 c 0
 142 75 167 227 171 244 c 0
 175 264 203 511 203 514 c 0
 210 585 210 587 216 595 c 0
 216 596 252 643 266 638 c 0
EndSplineSet
EndChar

StartChar: multiply
Encoding: 215 215 105
Width: 471
VWidth: 638
Flags: W
LayerCount: 2
Fore
SplineSet
54 396 m 0
 54 401 40 413 40 427 c 0
 40 435 41 437 55 451 c 0
 73 469 76 472 97 455 c 0
 109 445 106 453 121 437 c 0
 149 408 223 340 226 340 c 0
 229 340 303 437 312 446 c 0
 326 461 318 467 328 474 c 0
 336 480 341 492 347 494 c 0
 355 497 380 493 380 488 c 0
 380 482 407 477 409 451 c 0
 410 437 373 395 373 395 c 0
 368 389 349 365 331 342 c 0
 283 281 286 285 289 281 c 0
 301 263 358 247 430 117 c 0
 437 104 446 92 448 89 c 0
 453 84 452 72 448 67 c 0
 447 65 444 62 443 58 c 0
 440 51 435 45 429 45 c 0
 423 45 413 34 409 35 c 0
 408 35 404 35 400 36 c 0
 392 37 388 44 382 46 c 0
 376 48 341 115 331 128 c 0
 312 154 268 198 252 208 c 0
 249 210 244 214 241 217 c 0
 237 220 233 224 223 210 c 0
 217 200 158 137 150 126 c 0
 148 124 148 124 88 51 c 0
 58 14 49 11 28 26 c 0
 -2 47 -4 53 5 71 c 0
 16 95 35 110 73 159 c 0
 90 181 114 205 119 212 c 0
 123 218 155 254 158 256 c 0
 159 257 164 261 168 266 c 2
 175 274 l 1
 166 284 l 2
 161 290 155 294 154 294 c 0
 151 294 54 389 54 396 c 0
EndSplineSet
EndChar

StartChar: Sigma
Encoding: 931 931 106
Width: 524
Flags: HW
AnchorPoint: "above" 262.007 620.195 basechar 0
LayerCount: 2
Fore
SplineSet
389.733398438 598.982421875 m 0
 405.893554688 598.982421875 422.110351562 598.444335938 432.032226562 598.444335938 c 0
 434.620117188 598.444335938 438.947265625 598.444335938 440.56640625 598.982421875 c 2
 441.76953125 598.982421875 l 2
 444.758789062 598.982421875 454.765625 600.1953125 462.366210938 600.1953125 c 0
 473.247070312 600.1953125 481.182617188 600.1953125 485.77734375 595.600585938 c 0
 493.5234375 587.854492188 496.319335938 577.96484375 496.319335938 564.352539062 c 0
 496.319335938 548.373046875 492.794921875 530.041015625 492.794921875 500.70703125 c 0
 492.794921875 493.43359375 493.09765625 478.518554688 493.09765625 478.294921875 c 0
 493.09765625 474.016601562 492.764648438 470.053710938 490.44921875 466.477539062 c 0
 485.34765625 458.0859375 476.979492188 454.528320312 466.000976562 454.528320312 c 0
 443.44140625 454.528320312 436.224609375 458.561523438 432.557617188 463.102539062 c 0
 426.2109375 469.662109375 425.875976562 476.311523438 425.875976562 493.109375 c 0
 425.875976562 495.090820312 425.880859375 497.213867188 425.880859375 499.495117188 c 0
 425.880859375 514.75 425.018554688 522.54296875 423.584960938 525.044921875 c 0
 422.420898438 527.077148438 418.717773438 528.943359375 400.2265625 529.655273438 c 0
 386.387695312 530.298828125 372.71484375 530.59765625 359.590820312 530.59765625 c 0
 267.354492188 530.59765625 266.208007812 518.58203125 186.403320312 515.11328125 c 0
 162.161132812 514.21484375 148.064453125 513.034179688 143.46875 512.451171875 c 0
 142.970703125 510.872070312 142.377929688 507.130859375 142.323242188 506.80859375 c 0
 144.79296875 503.698242188 154.8828125 491.62109375 155.014648438 491.471679688 c 0
 157.477539062 488.662109375 159.647460938 486.62890625 161.25390625 483.415039062 c 0
 162.327148438 481.267578125 163.987304688 479.469726562 163.987304688 479.469726562 c 1
 170.98828125 475.873046875 173.721679688 468.0546875 173.76953125 467.911132812 c 0
 173.9375 467.407226562 198.26953125 439.9375 211.725585938 430.752929688 c 0
 216.7265625 428.046875 219.079101562 423.495117188 220.556640625 420.541992188 c 0
 225.009765625 415.625976562 222.624023438 422.452148438 241.291992188 403.286132812 c 0
 246.044921875 398.40625 250.052734375 394.262695312 252.12109375 390.125 c 0
 253.220703125 387.928710938 253.634765625 387.43359375 253.704101562 387.359375 c 0
 261.909179688 383.216796875 262.701171875 375.942382812 269.727539062 368.231445312 c 0
 275.395507812 364.083007812 278.884765625 357.2109375 281.451171875 350.793945312 c 0
 283.168945312 346.499023438 289.474609375 336.008789062 289.552734375 335.857421875 c 0
 293.3984375 329.283203125 294.547851562 320.620117188 294.547851562 313.04296875 c 0
 294.547851562 297.60546875 292.564453125 294.262695312 231.344726562 230.1328125 c 0
 224.53515625 223.322265625 217.030273438 213.9765625 216.986328125 213.889648438 c 0
 213.938476562 207.794921875 206.956054688 202.365234375 206.5859375 202.180664062 c 0
 201.57421875 197.8359375 205.32421875 195.631835938 194.997070312 185.303710938 c 0
 193.854492188 184.161132812 191.122070312 180.890625 190.731445312 179.71875 c 0
 188.515625 173.0703125 182.857421875 168.318359375 179.256835938 164.717773438 c 0
 171.513671875 156.9765625 169.857421875 146.955078125 161.700195312 142.786132812 c 0
 157.647460938 139.073242188 154.586914062 129.614257812 147.15625 125.821289062 c 0
 146.71875 125.427734375 130.0703125 99.3359375 129.09765625 95.44921875 c 0
 125.977539062 82.9658203125 118.53125 82.2578125 115.702148438 70.9423828125 c 0
 115.548828125 70.4833984375 115.461914062 70.22265625 115.329101562 69.8056640625 c 1
 119.108398438 69.349609375 126.841796875 68.759765625 138.75 68.318359375 c 0
 138.837890625 68.318359375 138.92578125 68.30859375 139.013671875 68.30859375 c 0
 153.879882812 68.30078125 171.8203125 67.123046875 180.962890625 65.8330078125 c 0
 186.827148438 65.25 194.673828125 64.9775390625 194.909179688 64.9775390625 c 0
 198.782226562 64.9638671875 202.258789062 65.234375 206.924804688 65.8173828125 c 0
 264.416015625 73.65625 347.98828125 67.5791015625 376.638671875 74.9912109375 c 0
 381.439453125 76.2333984375 385.4375 77.2646484375 390.911132812 77.2646484375 c 0
 403.53515625 77.2646484375 414.904296875 75.736328125 426.811523438 72.916015625 c 1
 429.515625 82.62890625 429.515625 82.62890625 429.515625 98.4599609375 c 0
 429.515625 118.745117188 431.94921875 131.216796875 444.915039062 136.774414062 c 0
 450.358398438 139.106445312 454.830078125 141.052734375 460.478515625 141.052734375 c 0
 463.390625 141.052734375 466.223632812 140.48828125 469.12890625 139.552734375 c 0
 477.080078125 137.834960938 477.479492188 137.436523438 501.170898438 113.747070312 c 0
 501.198242188 112.934570312 504.014648438 36.7861328125 504.014648438 32.4296875 c 0
 504.014648438 13.263671875 500.725585938 10.5732421875 490.125 1.8994140625 c 0
 484.749023438 -2.580078125 477.333007812 -7.4072265625 464.452148438 -7.4072265625 c 0
 464.182617188 -7.4072265625 446.010742188 -7.2265625 437.966796875 -2.400390625 c 0
 424.924804688 5.42578125 390.237304688 5.533203125 388.53125 5.533203125 c 0
 387.716796875 5.533203125 358.587890625 3.818359375 307.134765625 3.818359375 c 0
 306.364257812 3.818359375 305.606445312 3.818359375 304.860351562 3.818359375 c 0
 261.504882812 3.818359375 241.198242188 2.4150390625 230.758789062 -0.6865234375 c 0
 221.9375 -3.6083984375 211.686523438 -4.8291015625 199.936523438 -4.8291015625 c 0
 176.448242188 -4.8291015625 143.51953125 1.3955078125 124.334960938 1.3955078125 c 2
 124.130859375 1.3955078125 l 1
 79.5 2.6015625 54.845703125 6.5634765625 44.3037109375 13.27734375 c 0
 44.0615234375 13.40234375 33.90234375 19.08203125 33.794921875 19.1357421875 c 0
 23.798828125 24.1337890625 20 33.021484375 20 45.150390625 c 0
 20 65.7939453125 24.9228515625 73.720703125 33.025390625 80.4736328125 c 0
 36.783203125 82.451171875 36.931640625 93.82421875 46.990234375 98.96484375 c 0
 49.7080078125 101.407226562 62.166015625 125.602539062 63.9951171875 131.091796875 c 0
 65.97265625 137.020507812 70.5537109375 140.791015625 73.337890625 144.965820312 c 0
 82.4951171875 158.706054688 79.587890625 162.326171875 88.80859375 171.545898438 c 0
 93.5185546875 176.256835938 97.580078125 186.659179688 106.490234375 191.112304688 c 0
 110.046875 192.890625 106.208984375 192.008789062 122.544921875 213.37109375 c 0
 125.409179688 217.1171875 128.435546875 221.366210938 128.608398438 221.712890625 c 0
 135.208984375 234.913085938 137.509765625 228.048828125 140.63671875 237.434570312 c 1
 146.630859375 246.42578125 147.0859375 247.107421875 151.1875 249.202148438 c 0
 151.534179688 249.514648438 153.340820312 251.790039062 154.052734375 253.213867188 c 0
 154.827148438 254.762695312 157.778320312 259.712890625 167.041015625 267.65234375 c 0
 174.172851562 273.764648438 164.8671875 268.203125 190.581054688 293.916015625 c 0
 206.334960938 309.669921875 208.256835938 313.677734375 209.819335938 317.58203125 c 0
 210.584960938 318.731445312 211.201171875 319.655273438 211.973632812 321.416992188 c 1
 190.575195312 342.815429688 217.53125 320.706054688 178.46484375 359.772460938 c 0
 158.990234375 379.247070312 154.094726562 383.645507812 151.318359375 385.034179688 c 0
 147.2421875 387.072265625 143.704101562 388.92578125 142.671875 392.85546875 c 0
 141.654296875 394.002929688 139.0625 396.751953125 136.060546875 399.75390625 c 0
 124.173828125 411.637695312 126.834960938 412.008789062 111.977539062 426.866210938 c 0
 89.20703125 449.635742188 83.638671875 457.659179688 77.306640625 469.690429688 c 0
 75.86328125 472.432617188 74.306640625 474.834960938 74.2705078125 474.872070312 c 0
 67.0732421875 482.06640625 61.1611328125 509.348632812 55.662109375 522.19140625 c 0
 53.2177734375 528.3046875 51.501953125 533.50390625 51.501953125 540.688476562 c 0
 51.501953125 540.896484375 51.501953125 541.103515625 51.501953125 541.309570312 c 0
 51.501953125 555.240234375 53.1494140625 560.728515625 71.5615234375 569.2265625 c 0
 90.88671875 578.145507812 92.55859375 578.91796875 145.858398438 581.599609375 c 0
 203.19921875 584.485351562 210.87890625 584.870117188 230.366210938 590.28125 c 0
 252.909179688 595.916992188 300.647460938 599.215820312 361.803710938 599.215820312 c 0
 370.84375 599.215820312 380.16796875 599.139648438 389.733398438 598.982421875 c 0
EndSplineSet
EndChar

StartChar: asterisk
Encoding: 42 42 107
Width: 475
VWidth: 680
Flags: W
LayerCount: 2
Fore
SplineSet
57 115 m 0
 57 134 67 136 67 142 c 0
 67 143 67 145 68 145 c 0
 69 145 87 163 107 184 c 2
 144 222 l 1
 111 222 l 2
 88 222 21 221 12 228 c 0
 2 235 0 242 0 259 c 0
 0 284 2 284 57 294 c 0
 111 304 142 302 155 304 c 0
 161 305 75 367 66 413 c 0
 65 420 65 421 75 431 c 0
 89 445 95 446 111 434 c 0
 127 422 138 416 157 400 c 0
 175 385 187 377 192 374 c 0
 196 372 196 372 195 380 c 0
 195 381 190 459 196 493 c 0
 199 511 200 513 206 518 c 0
 210 521 214 524 215 524 c 0
 221 524 251 517 255 515 c 0
 268 508 269 457 269 457 c 0
 272 449 273 429 276 385 c 2
 278 370 l 1
 362 471 372 463 396 429 c 0
 416 400 415 399 380 363 c 0
 349 332 327 304 332 303 c 0
 333 303 402 297 418 301 c 0
 423 302 436 306 443 289 c 0
 455 261 456 261 455 253 c 0
 453 240 446 230 440 230 c 0
 438 230 436 229 436 228 c 0
 436 222 398 219 362 222 c 2
 343 224 l 1
 374 187 382 177 394 168 c 0
 412 155 410 153 399 130 c 0
 395 122 385 106 384 107 c 0
 381 108 376 101 354 102 c 0
 348 102 327 121 312 138 c 0
 312 138 291 161 280 175 c 1
 278 162 l 2
 278 161 269 17 267 13 c 0
 260 -1 252 0 235 1 c 0
 204 3 197 6 193 23 c 0
 189 40 193 127 198 152 c 0
 200 159 196 161 192 155 c 0
 188 150 132 97 132 99 c 0
 132 100 128 97 124 92 c 0
 108 76 97 74 80 86 c 0
 59 100 57 103 57 115 c 0
EndSplineSet
EndChar

StartChar: exclam
Encoding: 33 33 108
Width: 162
VWidth: 780
Flags: W
LayerCount: 2
Fore
SplineSet
59 584 m 0
 84 591 92 595 105 556 c 0
 119 511 118 517 118 421 c 0
 117 341 118 265 118 226 c 0
 118 206 116 202 106 196 c 0
 104 195 101 193 101 191 c 0
 101 187 93 182 85 181 c 0
 76 180 47 193 42 200 c 0
 36 208 35 221 37 308 c 0
 39 421 39 481 36 487 c 0
 33 494 32 522 29 536 c 0
 21 569 23 573 59 584 c 0
58 -49 m 0
 29 -49 35 -38 26 -38 c 0
 17 -38 -7 10 12 47 c 0
 22 66 26 71 45 85 c 0
 61 97 63 97 72 97 c 0
 88 97 82 89 88 89 c 0
 92 89 108 64 110 64 c 0
 110 64 126 55 129 37 c 0
 132 13 134 5 124 -5 c 0
 117 -12 94 -40 88 -40 c 0
 78 -40 87 -49 58 -49 c 0
EndSplineSet
EndChar

StartChar: question
Encoding: 63 63 109
Width: 388
VWidth: 804
Flags: W
LayerCount: 2
Fore
SplineSet
135 596 m 0
 139 601 206 612 233 611 c 0
 246 611 281 602 287 597 c 0
 289 595 291 593 292 593 c 0
 303 592 319 576 329 572 c 0
 334 570 348 553 348 549 c 0
 348 548 382 511 363 443 c 0
 357 423 339 384 331 375 c 0
 329 373 328 371 327 369 c 0
 325 363 295 330 278 316 c 0
 237 281 174 247 173 246 c 0
 167 241 168 242 170 232 c 0
 171 226 190 178 189 168 c 0
 188 153 177 149 159 143 c 0
 145 138 135 136 132 137 c 0
 125 139 114 150 112 157 c 0
 110 166 106 168 103 180 c 0
 102 185 99 192 98 195 c 0
 93 207 88 231 88 247 c 0
 88 264 87 263 99 286 c 0
 110 307 195 346 234 383 c 0
 249 397 274 433 280 449 c 0
 284 459 288 488 286 488 c 0
 285 488 283 492 282 498 c 0
 279 511 272 517 249 525 c 0
 228 532 208 531 178 524 c 0
 148 517 132 508 107 483 c 0
 68 445 87 450 64 423 c 0
 63 422 62 420 62 419 c 0
 62 418 59 415 56 412 c 0
 54 410 24 395 0 427 c 1
 4 454 l 2
 6 472 8 482 11 487 c 0
 26 514 50 540 50 541 c 0
 50 545 101 579 102 581 c 0
 104 585 132 591 135 596 c 0
151 90 m 0
 160 94 174 99 214 53 c 0
 223 42 224 41 224 31 c 2
 224 21 l 1
 205 -1 l 2
 191 -17 179 -31 155 -29 c 0
 154 -29 110 5 108 17 c 0
 105 32 105 36 118 55 c 0
 126 67 145 87 151 90 c 0
EndSplineSet
EndChar

StartChar: numbersign
Encoding: 35 35 110
Width: 502
VWidth: 745
Flags: W
LayerCount: 2
Fore
SplineSet
54 355 m 0
 63 355 106 369 117 369 c 0
 119 369 122 370 122 371 c 0
 122 374 146 373 149 379 c 0
 154 388 154 432 157 448 c 0
 157 449 173 542 173 543 c 0
 173 549 181 560 185 561 c 0
 185 561 224 565 230 557 c 0
 239 545 235 477 239 475 c 0
 240 474 240 474 233 395 c 0
 232 382 232 381 242 385 c 0
 245 386 257 387 270 388 c 2
 294 390 l 1
 300 422 l 2
 306 450 314 479 325 512 c 0
 330 529 334 537 342 542 c 2
 350 547 l 1
 367 542 l 2
 397 534 397 530 384 444 c 0
 383 439 377 402 375 389 c 1
 386 389 l 2
 392 389 407 390 420 391 c 0
 446 393 454 392 456 384 c 0
 457 381 457 379 458 379 c 0
 460 379 465 370 465 365 c 0
 465 354 476 353 470 334 c 0
 469 332 460 322 456 320 c 0
 426 304 361 312 361 309 c 0
 360 308 348 223 349 222 c 0
 350 221 370 225 416 226 c 0
 451 226 454 225 461 211 c 0
 465 203 466 169 462 162 c 0
 456 151 453 149 421 147 c 0
 404 146 386 145 380 145 c 0
 366 145 358 141 347 141 c 0
 342 141 338 140 337 139 c 0
 333 133 329 36 332 33 c 0
 332 33 341 16 321 7 c 0
 316 5 309 0 306 -2 c 0
 301 -6 301 -6 282 -5 c 0
 271 -4 262 3 253 18 c 0
 246 30 253 124 253 125 c 0
 254 129 254 129 252 128 c 0
 244 125 200 122 200 117 c 0
 200 111 193 30 193 14 c 0
 193 13 193 -40 172 -46 c 0
 170 -47 167 -49 166 -50 c 0
 164 -52 138 -57 128 -50 c 0
 121 -45 118 -42 118 -40 c 0
 118 -34 103 -31 103 -14 c 0
 104 7 109 -19 114 55 c 0
 115 79 116 91 118 105 c 1
 105 104 l 2
 104 104 61 100 47 100 c 0
 24 100 13 110 10 134 c 0
 9 145 9 146 15 153 c 0
 31 172 57 168 64 175 c 0
 65 176 77 179 90 181 c 0
 126 186 124 186 126 195 c 0
 127 202 141 296 135 296 c 0
 130 296 38 281 34 279 c 0
 23 273 17 276 8 289 c 0
 0 300 -1 301 0 311 c 0
 0 317 1 323 2 324 c 0
 3 325 45 355 54 355 c 0
264 211 m 0
 264 213 276 284 278 300 c 0
 279 307 279 308 275 308 c 0
 273 308 260 306 246 305 c 2
 221 304 l 1
 218 281 l 2
 218 279 207 204 207 203 c 0
 206 200 208 201 224 204 c 0
 247 209 264 209 264 211 c 0
EndSplineSet
EndChar

StartChar: at
Encoding: 64 64 111
Width: 517
VWidth: 721
Flags: W
LayerCount: 2
Fore
SplineSet
207 391 m 0
 210 391 225 405 229 405 c 0
 230 405 231 406 231 407 c 0
 231 408 236 411 255 418 c 0
 270 424 314 419 326 411 c 0
 329 409 332 407 333 407 c 0
 336 407 352 392 352 390 c 0
 352 389 355 385 359 380 c 0
 366 372 366 371 365 360 c 0
 364 354 364 348 363 346 c 0
 362 344 363 341 366 338 c 0
 387 315 376 260 383 253 c 0
 386 250 398 266 403 279 c 0
 420 323 395 394 379 418 c 0
 370 431 342 460 334 464 c 0
 320 471 254 501 192 445 c 0
 160 417 114 345 96 297 c 0
 70 228 94 130 150 101 c 0
 182 84 269 91 356 122 c 0
 379 130 388 130 395 120 c 0
 398 116 400 113 401 113 c 0
 402 113 403 112 403 111 c 0
 403 109 420 91 408 82 c 0
 407 81 405 78 404 75 c 0
 399 55 292 18 208 16 c 0
 187 15 156 17 151 20 c 0
 150 20 119 29 97 44 c 0
 74 60 56 88 53 88 c 0
 50 88 34 115 34 120 c 0
 34 124 25 136 16 172 c 0
 11 192 10 200 10 241 c 0
 10 290 27 365 117 480 c 0
 168 546 274 571 327 551 c 0
 370 536 381 527 382 527 c 0
 396 522 451 463 464 421 c 0
 465 416 467 413 468 413 c 0
 470 413 476 388 478 383 c 0
 495 348 486 248 461 222 c 0
 458 219 451 210 444 202 c 0
 432 188 424 181 422 183 c 0
 421 184 414 181 407 178 c 0
 375 164 346 178 344 180 c 0
 344 180 316 200 314 217 c 0
 313 221 312 225 311 225 c 0
 310 226 269 189 247 184 c 0
 201 174 195 172 171 190 c 0
 162 197 155 203 154 206 c 0
 150 225 143 213 143 254 c 0
 143 274 143 308 172 351 c 0
 184 368 204 391 207 391 c 0
295 349 m 0
 286 352 278 349 263 340 c 0
 245 329 245 328 231 305 c 0
 212 274 215 253 215 253 c 0
 217 250 248 265 265 287 c 0
 270 294 276 301 278 303 c 0
 284 309 282 317 292 335 c 0
 298 346 298 348 295 349 c 0
EndSplineSet
EndChar

StartChar: dollar
Encoding: 36 36 112
Width: 429
VWidth: 807
Flags: W
LayerCount: 2
Fore
SplineSet
101 519 m 0
 101 519 132 536 145 536 c 0
 152 536 150 587 161 602 c 0
 165 608 180 612 187 598 c 0
 190 592 191 585 191 564 c 2
 192 538 l 1
 202 538 l 2
 208 538 215 537 217 537 c 0
 223 537 220 550 223 555 c 0
 224 556 226 564 229 572 c 0
 235 592 237 595 251 592 c 0
 267 588 268 584 265 548 c 0
 264 532 265 530 276 530 c 0
 288 530 332 522 335 519 c 0
 337 517 339 517 340 517 c 0
 342 517 348 508 351 499 c 0
 353 492 352 491 345 475 c 0
 334 452 331 450 278 458 c 2
 260 461 l 1
 261 451 l 2
 262 440 259 408 257 402 c 0
 253 392 283 409 316 395 c 0
 325 392 387 366 397 294 c 0
 399 277 400 221 397 202 c 0
 391 156 368 121 368 120 c 0
 368 118 339 74 304 58 c 0
 275 45 266 41 264 41 c 0
 263 41 261 39 259 37 c 0
 251 29 260 -10 254 -20 c 0
 249 -30 259 -51 241 -49 c 0
 231 -48 236 -37 228 -28 c 0
 226 -25 222 -18 219 -13 c 0
 211 5 211 5 211 7 c 0
 211 7 210 23 202 20 c 0
 200 19 188 19 175 19 c 2
 152 19 l 1
 152 0 l 2
 150 -32 147 -47 138 -60 c 0
 131 -70 112 -61 112 -61 c 0
 111 -60 111 -55 111 -50 c 0
 111 -29 106 -60 105 -1 c 2
 104 34 l 1
 91 43 l 2
 50 70 25 114 24 117 c 0
 20 127 18 121 7 155 c 0
 1 175 0 180 1 185 c 0
 4 193 3 210 6 213 c 0
 6 213 48 234 48 218 c 0
 48 210 62 193 69 180 c 0
 79 161 86 152 97 140 c 0
 107 129 108 129 109 134 c 0
 111 139 110 154 113 172 c 0
 114 176 114 176 121 243 c 0
 123 265 122 268 115 266 c 0
 111 265 92 275 89 275 c 0
 86 275 66 288 66 290 c 0
 66 293 48 308 41 334 c 0
 37 350 35 403 38 405 c 0
 39 406 40 409 40 411 c 0
 40 427 59 477 76 493 c 0
 84 500 80 504 92 511 c 0
 104 517 98 519 101 519 c 0
207 441 m 0
 207 465 214 463 209 466 c 0
 207 467 203 467 198 467 c 2
 190 467 l 1
 190 457 l 2
 190 442 187 436 185 395 c 2
 183 367 l 1
 192 372 l 2
 198 375 201 377 201 380 c 0
 201 408 207 418 207 441 c 0
129 346 m 0
 137 346 135 401 140 444 c 0
 141 450 141 456 141 456 c 1
 138 456 131 445 124 429 c 0
 104 384 117 346 129 346 c 0
308 305 m 0
 297 319 293 322 278 320 c 0
 259 318 250 314 250 307 c 0
 250 305 246 237 247 130 c 2
 247 118 l 1
 259 124 l 2
 267 128 276 135 287 146 c 0
 302 161 303 163 308 180 c 0
 316 205 319 235 317 272 c 0
 316 284 315 294 315 295 c 0
 315 296 312 300 308 305 c 0
194 239 m 0
 194 262 193 281 193 281 c 0
 193 281 189 281 184 279 c 0
 173 275 174 277 168 217 c 0
 163 164 159 118 156 98 c 1
 174 97 l 2
 193 96 196 98 194 104 c 0
 193 106 193 127 193 152 c 0
 193 177 194 216 194 239 c 0
EndSplineSet
EndChar

StartChar: percent
Encoding: 37 37 113
Width: 516
VWidth: 657
Flags: W
LayerCount: 2
Fore
SplineSet
138 505 m 0
 166 504 174 498 198 480 c 0
 210 464 l 0
 210 457 226 443 220 405 c 0
 214 372 191 335 184 328 c 0
 177 322 152 285 113 263 c 0
 80 245 -16 244 2 387 c 0
 4 404 21 450 27 454 c 0
 27 454 46 488 64 491 c 0
 85 494 92 507 138 505 c 0
151 421 m 1
 141 431 140 432 131 432 c 0
 108 432 97 415 85 415 c 0
 76 415 74 412 69 390 c 0
 65 374 63 328 74 322 c 0
 89 314 142 376 149 410 c 2
 151 421 l 1
434 397 m 0
 433 397 324 287 324 288 c 0
 324 288 215 174 204 159 c 0
 194 145 158 107 137 79 c 0
 121 58 100 37 93 36 c 0
 89 35 84 38 71 46 c 0
 50 60 50 61 50 71 c 0
 51 107 184 263 197 270 c 0
 205 274 196 272 263 339 c 0
 322 398 358 436 359 441 c 0
 360 447 366 456 369 456 c 0
 372 456 384 467 390 469 c 0
 405 472 424 462 426 462 c 0
 444 462 445 425 445 425 c 0
 445 423 444 419 444 415 c 0
 444 408 438 397 434 397 c 0
363 235 m 0
 369 236 385 222 390 222 c 0
 392 222 395 219 397 216 c 0
 400 211 402 210 413 208 c 0
 427 206 459 193 466 187 c 0
 485 171 498 153 496 146 c 0
 496 145 495 140 495 135 c 0
 494 105 468 75 468 75 c 0
 465 72 460 67 458 64 c 0
 450 52 353 -40 293 16 c 0
 282 26 267 47 267 52 c 0
 267 69 258 76 263 112 c 0
 263 113 278 227 347 234 c 0
 354 235 361 235 363 235 c 0
419 127 m 0
 419 133 349 144 345 146 c 0
 339 150 323 86 336 70 c 0
 340 66 339 66 349 69 c 0
 392 83 419 126 419 127 c 0
EndSplineSet
EndChar

StartChar: one
Encoding: 49 49 114
Width: 146
VWidth: 733
Flags: W
LayerCount: 2
Fore
SplineSet
57 567 m 0
 87 573 92 570 96 551 c 0
 108 487 108 486 104 273 c 0
 101 112 98 41 95 34 c 0
 92 27 85 20 78 19 c 0
 73 18 37 23 28 27 c 0
 25 28 21 33 19 37 c 0
 15 44 14 45 16 63 c 0
 17 74 20 129 21 187 c 0
 25 405 26 404 24 444 c 0
 21 529 21 546 26 554 c 0
 30 561 32 562 57 567 c 0
EndSplineSet
EndChar

StartChar: integral
Encoding: 8747 8747 115
Width: 553
VWidth: 1064
Flags: W
LayerCount: 2
Fore
SplineSet
34 -132 m 0
 34 -130 21 -111 21 -109 c 0
 21 -107 4 -83 2 -77 c 0
 0 -73 0 -70 1 -60 c 0
 1 -58 31 -27 47 -30 c 0
 50 -30 54 -31 55 -31 c 0
 57 -32 84 -67 100 -84 c 2
 112 -96 l 1
 124 -83 l 2
 160 -45 189 11 196 59 c 0
 205 127 256 371 259 404 c 0
 259 406 287 589 288 601 c 0
 292 646 291 603 296 665 c 0
 299 694 317 740 331 754 c 0
 333 756 364 782 384 778 c 0
 405 774 453 782 468 765 c 0
 471 762 474 760 475 760 c 0
 485 760 524 695 527 692 c 0
 541 680 527 659 524 658 c 0
 516 655 528 646 507 633 c 0
 481 617 453 652 453 653 c 0
 445 670 440 678 432 687 c 2
 423 697 l 1
 412 697 401 698 390 698 c 1
 386 684 l 2
 378 661 370 616 368 587 c 0
 366 553 335 359 328 326 c 0
 321 292 317 258 314 251 c 0
 310 245 311 225 309 218 c 0
 296 157 280 50 272 23 c 0
 268 9 255 -33 250 -37 c 0
 248 -39 227 -83 223 -88 c 0
 221 -90 179 -147 165 -155 c 0
 134 -173 129 -173 108 -173 c 0
 86 -173 85 -172 77 -166 c 0
 72 -163 67 -160 64 -159 c 0
 59 -158 34 -135 34 -132 c 0
EndSplineSet
EndChar

StartChar: equal
Encoding: 61 61 116
Width: 505
VWidth: 596
Flags: W
LayerCount: 2
Fore
SplineSet
318 440 m 0
 402 440 438 466 459 446 c 0
 468 437 473 395 465 385 c 0
 451 369 437 378 431 374 c 0
 430 373 391 361 326 360 c 0
 198 357 167 357 166 356 c 0
 158 352 46 341 39 348 c 0
 37 349 34 351 31 351 c 0
 28 351 23 354 18 359 c 2
 10 366 l 1
 10 384 l 2
 10 394 10 403 10 404 c 0
 10 410 20 416 30 417 c 0
 47 419 61 422 67 424 c 0
 87 431 225 440 318 440 c 0
14 224 m 0
 14 234 61 246 62 246 c 0
 64 246 66 247 66 248 c 0
 69 257 244 266 295 260 c 0
 354 253 375 256 439 266 c 0
 462 269 474 265 479 253 c 0
 480 249 483 246 484 245 c 0
 487 243 482 230 483 215 c 0
 484 196 478 190 456 188 c 0
 447 187 431 185 420 182 c 0
 363 167 284 183 242 183 c 0
 218 183 47 169 45 169 c 0
 32 169 29 170 25 174 c 0
 22 177 20 179 20 180 c 0
 20 181 20 183 19 183 c 0
 17 183 8 220 12 222 c 0
 13 222 14 223 14 224 c 0
EndSplineSet
EndChar

StartChar: approxequal
Encoding: 8776 8776 117
Width: 628
VWidth: 658
Flags: W
LayerCount: 2
Fore
SplineSet
167 476 m 0
 168 477 177 477 189 477 c 0
 211 477 254 469 257 465 c 0
 259 462 304 456 387 393 c 0
 416 371 416 370 436 378 c 0
 480 394 511 459 535 459 c 0
 541 459 562 448 570 440 c 0
 572 438 576 434 579 432 c 0
 586 426 586 414 580 402 c 0
 574 391 545 357 529 344 c 0
 497 316 489 314 489 314 c 0
 484 308 444 293 436 294 c 0
 436 294 391 283 353 317 c 0
 331 337 279 372 259 380 c 0
 236 389 197 397 182 396 c 0
 177 396 126 390 86 341 c 0
 44 289 30 301 17 312 c 0
 -2 328 -10 340 14 374 c 0
 17 379 21 384 21 385 c 0
 21 389 44 416 53 422 c 0
 98 455 102 459 143 469 c 0
 156 472 166 475 167 476 c 0
169 300 m 0
 210 307 279 277 280 276 c 0
 283 274 296 269 308 265 c 0
 343 252 346 250 367 229 c 0
 376 220 380 219 396 214 c 2
 415 208 l 1
 434 213 l 1
 516 232 531 302 556 302 c 0
 567 302 605 276 607 265 c 0
 609 255 608 252 588 225 c 0
 565 193 535 167 516 160 c 0
 513 159 476 135 452 135 c 0
 445 135 423 126 393 131 c 0
 380 133 341 139 316 166 c 0
 304 179 299 182 273 191 c 0
 263 195 246 201 236 206 c 0
 170 238 138 210 131 193 c 0
 131 193 119 169 102 169 c 0
 97 169 86 172 77 175 c 0
 54 183 54 184 61 213 c 0
 68 242 70 246 84 260 c 0
 107 284 129 294 169 300 c 0
EndSplineSet
EndChar

StartChar: notequal
Encoding: 8800 8800 118
Width: 514
VWidth: 697
Flags: W
LayerCount: 2
Fore
SplineSet
174 439 m 0
 217 439 248 439 260 436 c 1
 284 484 l 2
 304 524 313 541 321 542 c 0
 324 542 325 543 326 543 c 0
 327 545 330 541 342 541 c 0
 353 541 350 537 357 537 c 0
 367 537 380 513 377 501 c 0
 371 474 350 438 350 437 c 0
 350 436 426 435 443 436 c 0
 471 438 475 436 485 425 c 2
 494 416 l 1
 494 395 l 2
 494 383 493 373 493 372 c 0
 493 368 482 361 476 360 c 0
 411 350 352 357 309 355 c 1
 292 320 l 2
 282 301 274 284 274 283 c 0
 274 282 405 282 454 283 c 0
 485 284 493 247 493 246 c 0
 493 240 488 228 484 223 c 0
 482 221 473 209 471 206 c 0
 463 194 411 210 256 199 c 2
 237 198 l 1
 232 187 l 2
 213 143 172 56 165 45 c 0
 155 30 145 29 119 42 c 0
 112 45 93 55 99 66 c 0
 102 72 102 87 105 92 c 0
 108 97 104 91 127 145 c 0
 137 168 144 187 144 187 c 0
 144 189 111 181 80 180 c 0
 71 180 63 178 62 178 c 0
 58 177 34 181 34 182 c 0
 34 189 24 174 17 216 c 0
 14 231 14 236 23 245 c 0
 35 257 180 271 181 272 c 0
 182 272 194 303 211 337 c 0
 217 348 222 358 222 359 c 0
 222 364 106 355 64 358 c 0
 8 362 0 367 0 393 c 0
 0 419 6 429 23 432 c 0
 44 436 104 439 174 439 c 0
EndSplineSet
EndChar

StartChar: asciitilde
Encoding: 126 126 119
Width: 553
VWidth: 597
Flags: W
LayerCount: 2
Fore
SplineSet
184 432 m 0
 239 432 260 410 269 410 c 0
 277 410 340 355 371 353 c 0
 406 350 446 397 446 402 c 0
 445 415 466 434 472 432 c 0
 474 432 478 432 480 434 c 0
 488 440 516 436 516 428 c 0
 516 425 526 425 526 422 c 0
 526 421 528 418 530 416 c 0
 536 409 528 372 528 372 c 0
 528 370 515 358 508 346 c 0
 492 318 415 268 375 273 c 0
 315 278 309 291 306 291 c 0
 305 291 236 338 217 346 c 0
 198 355 170 352 144 338 c 0
 116 324 81 280 67 273 c 0
 63 271 59 268 57 266 c 0
 53 261 45 258 37 258 c 0
 31 258 28 260 15 274 c 0
 1 290 0 290 0 300 c 0
 0 322 18 327 18 334 c 0
 18 337 57 377 69 385 c 0
 78 392 112 412 117 415 c 0
 118 415 145 432 184 432 c 0
EndSplineSet
EndChar

StartChar: lessequal
Encoding: 8804 8804 120
Width: 439
VWidth: 729
Flags: W
LayerCount: 2
Fore
SplineSet
297 548 m 0
 300 548 328 575 332 576 c 0
 340 579 345 577 363 561 c 0
 380 546 381 543 380 537 c 0
 379 521 368 516 369 513 c 0
 371 511 350 490 350 487 c 0
 350 483 222 357 182 321 c 0
 149 292 151 294 166 295 c 0
 191 297 225 303 256 304 c 0
 270 305 289 306 299 307 c 0
 323 310 364 309 366 307 c 0
 367 304 388 302 389 299 c 0
 390 295 396 294 396 284 c 0
 396 274 387 243 382 236 c 0
 380 233 378 231 378 232 c 0
 378 232 370 227 349 229 c 0
 306 233 108 207 86 206 c 0
 37 203 30 205 12 229 c 0
 -5 251 15 273 15 274 c 0
 15 281 136 387 209 458 c 0
 270 518 271 518 271 519 c 0
 271 522 294 548 297 548 c 0
379 157 m 0
 389 161 400 161 405 145 c 0
 411 128 417 136 418 113 c 0
 418 100 418 100 411 93 c 0
 368 53 267 91 121 72 c 0
 74 66 47 67 34 76 c 0
 22 84 20 118 24 126 c 0
 27 132 37 138 43 138 c 0
 57 138 23 140 90 149 c 0
 211 165 360 150 379 157 c 0
EndSplineSet
EndChar

StartChar: greaterequal
Encoding: 8805 8805 121
Width: 467
VWidth: 744
Flags: W
LayerCount: 2
Fore
SplineSet
295 420 m 0
 296 420 366 353 375 353 c 0
 377 353 404 329 413 326 c 0
 422 322 420 316 426 309 c 0
 432 303 433 277 428 269 c 0
 420 257 370 236 342 234 c 0
 341 234 255 223 252 224 c 0
 248 225 227 223 174 217 c 0
 150 214 57 215 53 218 c 0
 47 223 22 223 15 238 c 0
 11 247 11 252 16 274 c 0
 20 293 21 296 31 301 c 0
 37 304 39 304 65 299 c 0
 103 292 151 294 216 301 c 0
 243 304 271 306 280 307 c 0
 299 308 303 310 293 314 c 0
 282 319 155 447 137 472 c 0
 128 484 72 524 72 555 c 0
 72 564 73 566 85 580 c 0
 97 594 98 595 106 595 c 0
 136 595 232 487 233 486 c 0
 243 474 295 420 295 420 c 0
146 182 m 0
 151 186 345 178 361 178 c 0
 429 177 427 177 431 162 c 0
 432 158 435 152 438 148 c 0
 443 141 444 136 440 123 c 0
 433 98 404 98 375 98 c 0
 339 98 295 100 266 102 c 0
 236 104 110 103 93 100 c 0
 19 89 18 97 12 134 c 0
 10 144 7 157 22 166 c 0
 45 179 145 181 146 182 c 0
EndSplineSet
EndChar

StartChar: bar_greater
Encoding: 1114134 -1 122
Width: 514
VWidth: 191
Flags: W
LayerCount: 2
Fore
SplineSet
211 533 m 0
 206 533 197 542 194 542 c 0
 193 542 190 546 188 550 c 0
 184 557 184 558 186 577 c 0
 188 598 189 601 201 606 c 0
 202 606 248 611 264 596 c 0
 267 593 270 592 271 593 c 0
 275 595 322 545 322 539 c 0
 322 530 425 418 425 414 c 0
 425 411 451 382 453 382 c 0
 457 382 459 376 468 372 c 0
 477 369 489 346 492 344 c 0
 495 342 498 285 479 285 c 0
 476 285 464 267 461 267 c 0
 457 267 386 194 368 172 c 0
 314 106 270 20 253 16 c 0
 241 13 234 15 218 26 c 0
 199 39 196 44 196 56 c 0
 196 64 197 66 204 76 c 0
 205 77 262 167 300 215 c 0
 306 223 314 232 318 237 c 0
 325 247 383 307 394 315 c 2
 401 321 l 1
 393 328 l 2
 377 343 290 448 289 449 c 0
 239 514 223 533 211 533 c 0
26 539 m 0
 25 596 33 597 60 602 c 0
 69 604 78 606 80 606 c 0
 84 606 91 599 91 596 c 0
 91 595 92 594 93 594 c 0
 97 594 102 547 106 544 c 0
 111 541 100 361 101 234 c 0
 101 120 97 61 86 51 c 0
 74 40 62 37 51 43 c 0
 39 48 29 48 25 52 c 0
 16 64 13 69 16 89 c 0
 17 93 26 514 26 539 c 0
EndSplineSet
Ligature2: "liga" bar greater
EndChar

StartChar: less_bar
Encoding: 1114135 -1 123
Width: 524
VWidth: 171
Flags: W
LayerCount: 2
Fore
SplineSet
93 295 m 0
 102 295 163 234 164 225 c 0
 164 224 204 171 228 134 c 0
 249 102 256 93 265 76 c 0
 271 65 276 59 279 57 c 0
 292 51 297 30 290 16 c 0
 288 12 285 7 285 4 c 0
 285 -1 275 -12 270 -12 c 0
 269 -12 268 -13 268 -14 c 0
 268 -17 258 -20 252 -20 c 0
 245 -20 225 -10 219 -4 c 0
 205 10 208 34 117 154 c 0
 87 193 77 204 60 218 c 0
 42 233 14 258 14 261 c 0
 14 262 11 267 7 271 c 0
 -4 283 -2 290 13 321 c 0
 26 347 41 372 53 386 c 0
 57 391 63 397 66 401 c 0
 74 413 117 460 145 488 c 0
 255 598 225 606 266 629 c 0
 274 634 275 634 294 627 c 0
 316 619 318 616 318 601 c 0
 318 559 252 483 224 454 c 0
 223 453 68 295 93 295 c 0
450 625 m 0
 480 629 483 627 489 599 c 0
 498 556 489 456 488 455 c 0
 483 447 462 15 458 14 c 0
 457 14 456 9 456 5 c 0
 456 -13 438 -28 421 -24 c 0
 402 -20 381 -15 377 1 c 0
 374 12 393 242 393 258 c 0
 393 259 398 368 400 377 c 0
 405 409 414 577 415 579 c 0
 419 585 414 598 423 611 c 0
 429 620 434 623 450 625 c 0
EndSplineSet
Ligature2: "liga" less bar
EndChar

StartChar: u1F382
Encoding: 127874 127874 124
Width: 644
VWidth: 931
Flags: W
LayerCount: 2
Fore
SplineSet
55 325 m 1
 33 324 16 336 16 336 c 0
 16 337 13 340 10 343 c 0
 -2 354 -4 384 6 395 c 0
 11 400 16 423 19 425 c 0
 25 428 16 436 41 442 c 0
 47 443 47 444 68 462 c 0
 96 487 142 482 152 468 c 0
 158 459 162 473 183 475 c 0
 190 476 194 476 193 478 c 0
 192 479 193 479 195 478 c 0
 197 476 200 475 205 476 c 0
 222 479 221 477 220 494 c 0
 219 505 220 512 222 516 c 0
 226 524 229 535 232 535 c 0
 233 535 234 536 234 537 c 0
 234 544 261 566 275 569 c 0
 289 573 290 573 300 574 c 0
 309 575 311 575 312 580 c 0
 314 587 321 595 321 598 c 0
 321 601 342 636 342 636 c 0
 344 638 365 665 400 681 c 0
 413 687 417 689 421 689 c 0
 427 689 424 693 437 694 c 0
 453 696 468 704 474 703 c 0
 495 701 496 713 506 715 c 0
 520 718 524 705 528 705 c 0
 531 705 528 700 530 692 c 0
 533 682 526 663 530 653 c 0
 534 643 528 648 524 638 c 0
 523 635 521 634 519 634 c 0
 517 634 512 633 509 632 c 0
 504 631 502 632 497 637 c 0
 489 645 468 655 460 653 c 0
 457 652 449 651 443 650 c 0
 397 643 368 602 368 602 c 0
 367 602 366 600 366 598 c 0
 366 593 354 585 354 578 c 0
 354 576 356 574 360 574 c 0
 375 574 404 563 407 556 c 0
 407 555 409 555 410 555 c 0
 415 555 427 536 427 533 c 0
 427 533 438 515 436 493 c 0
 433 471 433 470 442 469 c 0
 451 468 489 475 491 470 c 0
 492 466 514 462 530 462 c 0
 558 462 568 457 604 422 c 0
 613 414 619 405 619 403 c 0
 619 401 621 398 622 397 c 0
 629 390 617 339 617 339 c 0
 616 339 615 337 615 336 c 0
 615 328 586 315 586 313 c 0
 586 312 583 311 581 311 c 0
 572 311 577 307 557 306 c 0
 549 306 558 304 541 236 c 0
 541 235 512 124 512 120 c 0
 512 119 498 36 503 30 c 0
 505 28 505 15 503 12 c 0
 501 9 483 1 478 1 c 0
 468 1 453 4 442 1 c 0
 424 -4 412 12 412 7 c 0
 412 7 390 -3 380 5 c 0
 373 10 365 10 358 6 c 0
 351 2 330 2 327 6 c 0
 324 9 317 10 317 7 c 0
 317 4 295 -5 287 -5 c 0
 270 -5 271 16 255 6 c 0
 246 0 218 0 218 6 c 0
 218 21 179 -13 159 0 c 0
 148 7 137 -8 130 -4 c 0
 129 -3 117 0 117 5 c 0
 117 8 97 21 89 70 c 0
 86 89 83 90 83 98 c 0
 83 106 76 131 73 175 c 0
 73 176 66 244 57 307 c 2
 55 325 l 1
80 398 m 0
 75 398 81 392 66 392 c 0
 57 392 56 392 53 385 c 0
 48 376 49 372 54 370 c 0
 59 368 76 368 83 370 c 0
 89 371 90 370 97 351 c 0
 99 346 103 343 103 347 c 0
 103 349 124 374 136 362 c 0
 138 360 139 359 140 359 c 0
 141 359 144 356 147 352 c 0
 159 336 167 355 176 354 c 0
 177 354 180 353 182 353 c 0
 184 353 186 352 186 350 c 0
 186 341 204 348 204 351 c 0
 204 352 206 353 208 353 c 0
 208 353 240 363 243 355 c 0
 243 354 245 353 246 353 c 0
 253 353 249 333 288 352 c 0
 304 359 318 361 323 356 c 0
 325 354 327 353 328 353 c 0
 329 353 331 352 331 351 c 0
 331 351 331 342 348 350 c 2
 358 354 l 1
 342 363 342 363 348 374 c 0
 353 383 356 386 363 382 c 0
 379 372 379 373 375 367 c 2
 372 362 l 1
 382 364 387 364 391 362 c 0
 397 359 404 353 404 350 c 0
 404 346 407 345 410 347 c 0
 414 350 429 352 438 356 c 0
 459 366 469 345 469 345 c 0
 469 342 482 345 487 349 c 0
 494 354 512 355 512 351 c 0
 512 342 525 337 537 348 c 0
 550 359 561 353 568 369 c 0
 573 383 573 385 559 398 c 0
 544 413 540 415 518 416 c 0
 484 418 490 425 458 422 c 0
 416 418 411 437 386 430 c 0
 358 423 356 437 328 432 c 0
 309 429 308 433 295 429 c 0
 268 419 266 437 254 429 c 0
 247 425 230 424 224 429 c 0
 218 433 188 433 184 429 c 0
 183 427 180 426 179 426 c 0
 177 426 176 425 176 424 c 0
 176 421 155 412 150 413 c 0
 142 415 137 416 137 418 c 0
 137 419 135 420 134 420 c 0
 131 420 123 428 123 431 c 0
 123 439 90 431 86 409 c 0
 85 403 82 398 80 398 c 0
138 204 m 0
 123 343 128 343 128 343 c 0
 127 343 121 332 113 328 c 0
 107 325 106 325 113 289 c 0
 120 253 123 211 135 146 c 0
 135 145 151 51 151 51 c 0
 151 47 152 46 152 46 c 1
 152 47 155 48 156 48 c 0
 163 48 151 97 151 110 c 0
 151 122 147 127 143 157 c 0
 142 166 140 188 138 204 c 0
445 243 m 0
 445 251 451 259 451 271 c 0
 451 290 466 310 453 322 c 0
 444 332 446 338 441 336 c 0
 424 328 424 328 423 327 c 0
 422 325 417 325 409 325 c 0
 397 325 397 325 390 333 c 0
 378 346 377 343 377 311 c 0
 377 273 372 245 370 216 c 0
 358 72 359 75 351 57 c 0
 348 49 349 49 362 54 c 0
 381 61 388 47 404 52 c 0
 412 55 412 55 415 74 c 0
 424 135 425 145 425 148 c 0
 425 161 445 241 445 243 c 0
223 195 m 2
 223 274 223 339 222 339 c 0
 220 339 197 322 181 330 c 0
 167 337 164 323 151 323 c 0
 147 323 147 323 148 320 c 0
 149 319 157 256 157 255 c 0
 158 220 184 59 184 57 c 0
 185 48 185 39 185 39 c 0
 186 38 205 50 216 50 c 2
 223 50 l 1
 223 195 l 2
320 331 m 0
 314 331 317 343 298 332 c 0
 267 314 255 320 251 322 c 0
 245 325 244 324 248 320 c 0
 254 314 246 44 257 47 c 0
 266 50 283 48 283 44 c 0
 283 43 286 43 290 43 c 0
 294 43 297 43 297 44 c 0
 297 47 321 56 329 56 c 2
 336 56 l 1
 335 81 l 2
 334 153 347 256 348 257 c 0
 348 257 351 281 360 320 c 0
 361 324 361 329 361 329 c 0
 361 329 331 319 324 328 c 0
 323 330 321 331 320 331 c 0
499 266 m 0
 499 275 515 311 507 311 c 0
 505 311 502 315 498 320 c 2
 492 329 l 1
 484 324 l 2
 477 319 477 320 473 292 c 0
 473 290 464 239 460 228 c 0
 459 226 446 180 429 50 c 1
 439 51 l 2
 451 53 451 53 451 63 c 0
 451 75 457 100 457 111 c 0
 457 135 499 264 499 266 c 0
297 410 m 0
 297 416 311 424 315 424 c 0
 318 424 329 410 329 407 c 0
 329 403 314 392 309 392 c 0
 305 392 297 405 297 410 c 0
262 386 m 1
 241 398 242 401 249 411 c 0
 253 416 257 420 258 420 c 0
 262 420 277 409 277 406 c 0
 277 404 273 399 269 394 c 2
 262 386 l 1
396 410 m 0
 401 418 404 418 415 411 c 0
 428 403 425 400 413 386 c 1
 404 391 l 2
 393 397 391 401 396 410 c 0
200 407 m 0
 205 411 210 414 212 414 c 0
 215 414 230 393 230 390 c 0
 230 389 225 385 219 381 c 0
 206 373 202 374 195 385 c 0
 188 396 189 399 200 407 c 0
517 407 m 0
 531 410 533 409 535 394 c 0
 536 386 536 386 522 384 c 0
 514 383 512 385 510 395 c 0
 509 403 510 405 517 407 c 0
84 395 m 0
 88 404 88 404 107 395 c 1
 103 387 l 2
 99 378 99 378 89 382 c 0
 81 385 80 385 84 395 c 0
134 395 m 0
 142 397 143 396 145 390 c 0
 147 382 143 378 135 379 c 0
 128 380 128 380 128 387 c 0
 128 393 129 394 134 395 c 0
479 393 m 0
 483 401 493 393 489 388 c 0
 484 382 475 386 479 393 c 0
475 375 m 0
 480 383 479 383 494 374 c 0
 502 369 502 367 495 359 c 2
 489 353 l 1
 482 357 l 2
 471 364 470 367 475 375 c 0
EndSplineSet
EndChar

StartChar: two
Encoding: 50 50 125
Width: 421
VWidth: 797
Flags: W
LayerCount: 2
Fore
SplineSet
368 328 m 0
 368 325 327 271 327 270 c 0
 327 264 235 173 229 166 c 0
 217 152 147 81 132 68 c 2
 122 59 l 1
 132 61 l 2
 138 62 145 62 148 62 c 0
 150 62 339 58 343 56 c 0
 352 52 360 58 362 55 c 0
 363 53 384 54 384 48 c 0
 384 47 391 38 397 32 c 0
 408 20 394 8 394 -3 c 0
 394 -24 360 -31 360 -29 c 0
 360 -28 322 -19 285 -22 c 0
 246 -25 258 -19 224 -20 c 0
 122 -20 121 -20 113 -22 c 0
 98 -27 68 -27 65 -29 c 0
 64 -30 64 -30 53 -30 c 0
 53 -30 22 -16 17 -11 c 0
 10 -4 2 17 2 26 c 0
 2 29 1 32 0 33 c 0
 -3 35 10 54 10 58 c 0
 10 63 121 171 122 172 c 0
 132 183 161 209 212 265 c 0
 219 273 262 312 273 331 c 0
 275 334 276 336 277 336 c 0
 279 336 335 412 305 487 c 0
 304 490 303 494 304 495 c 0
 305 497 296 511 291 514 c 0
 286 517 265 522 251 524 c 0
 233 527 192 519 175 509 c 0
 164 502 144 496 135 488 c 0
 94 452 68 426 68 427 c 0
 68 433 66 417 55 426 c 0
 40 437 23 438 18 452 c 0
 15 460 16 462 20 474 c 0
 27 494 32 500 60 527 c 0
 108 573 179 601 210 603 c 0
 211 603 261 606 266 607 c 0
 267 607 267 606 267 605 c 0
 267 604 269 603 271 603 c 0
 276 603 310 595 311 593 c 0
 315 588 318 592 344 574 c 0
 358 564 369 551 368 547 c 0
 368 546 394 494 389 489 c 0
 386 486 397 484 394 422 c 0
 393 405 392 390 391 389 c 0
 389 387 379 341 371 333 c 0
 370 332 368 329 368 328 c 0
EndSplineSet
EndChar

StartChar: period
Encoding: 46 46 126
Width: 136
VWidth: 153
Flags: W
LayerCount: 2
Fore
SplineSet
30 95 m 0
 53 116 59 116 77 101 c 0
 83 96 89 93 91 93 c 0
 96 93 105 84 105 80 c 0
 105 76 125 49 111 23 c 0
 98 -3 88 -15 80 -16 c 0
 74 -17 65 -34 36 -23 c 0
 14 -16 12 -13 4 11 c 0
 -4 35 4 27 4 43 c 0
 4 46 6 56 8 64 c 0
 12 79 14 80 30 95 c 0
EndSplineSet
EndChar

StartChar: comma
Encoding: 44 44 127
Width: 178
VWidth: 172
Flags: W
LayerCount: 2
Fore
SplineSet
120 93 m 0
 136 97 143 86 151 59 c 0
 160 29 160 29 154 -14 c 0
 147 -59 107 -116 107 -117 c 0
 104 -125 69 -162 63 -163 c 0
 53 -165 38 -168 38 -168 c 0
 32 -171 0 -148 0 -132 c 0
 1 -121 6 -117 5 -112 c 0
 3 -106 15 -90 22 -90 c 0
 29 -90 55 -54 65 -29 c 0
 86 24 63 48 75 71 c 0
 78 76 81 80 82 81 c 0
 84 82 111 91 120 93 c 0
EndSplineSet
EndChar

StartChar: semicolon
Encoding: 59 59 128
Width: 185
VWidth: 657
Flags: W
LayerCount: 2
Fore
SplineSet
153 370 m 0
 153 367 138 351 139 351 c 0
 145 351 125 341 120 337 c 0
 111 328 97 326 76 332 c 0
 52 338 59 355 52 355 c 0
 46 355 44 389 43 391 c 0
 42 393 45 411 47 411 c 0
 49 411 48 418 57 428 c 0
 60 432 63 436 63 437 c 0
 63 440 90 460 96 462 c 0
 107 465 122 454 127 454 c 0
 133 454 147 448 151 444 c 0
 175 415 162 386 158 380 c 0
 155 375 153 371 153 370 c 0
101 91 m 0
 110 93 138 101 142 84 c 0
 144 77 144 85 151 53 c 0
 156 29 157 8 153 3 c 0
 150 -2 142 -47 138 -52 c 0
 138 -52 112 -117 99 -136 c 0
 90 -150 90 -155 86 -156 c 0
 84 -157 83 -158 83 -159 c 0
 83 -162 70 -169 61 -176 c 0
 54 -182 35 -182 27 -176 c 0
 24 -174 19 -171 15 -169 c 0
 0 -162 -2 -137 3 -131 c 0
 9 -124 8 -105 24 -97 c 0
 32 -93 33 -92 44 -69 c 0
 85 17 59 47 73 75 c 0
 78 85 82 87 101 91 c 0
EndSplineSet
EndChar

StartChar: colon
Encoding: 58 58 129
Width: 133
VWidth: 618
Flags: W
LayerCount: 2
Fore
SplineSet
40 485 m 0
 52 493 65 485 78 485 c 0
 90 486 101 479 101 472 c 0
 101 470 102 469 103 469 c 0
 103 469 117 459 112 433 c 0
 109 418 88 378 73 378 c 0
 64 378 60 373 53 371 c 0
 42 368 36 370 19 382 c 0
 10 389 2 395 1 396 c 0
 -6 407 23 474 40 485 c 0
17 141 m 0
 20 141 32 158 41 162 c 0
 59 170 96 154 98 148 c 0
 99 146 102 143 104 141 c 0
 113 134 115 90 86 75 c 0
 78 71 76 62 72 62 c 0
 71 62 69 61 69 60 c 0
 69 57 58 54 50 54 c 0
 46 54 41 55 38 57 c 0
 35 59 30 61 27 62 c 0
 21 64 -1 75 1 108 c 0
 2 117 13 141 17 141 c 0
EndSplineSet
EndChar

StartChar: quoteright
Encoding: 8217 8217 130
Width: 165
VWidth: 824
Flags: W
LayerCount: 2
Fore
SplineSet
44 686 m 0
 62 723 79 757 103 759 c 0
 107 759 138 740 143 734 c 0
 144 732 150 711 135 689 c 0
 134 688 82 592 77 559 c 0
 74 541 73 535 42 539 c 0
 -4 545 12 557 4 557 c 0
 2 557 0 568 0 577 c 0
 1 592 16 629 44 686 c 0
EndSplineSet
EndChar

StartChar: quoteleft
Encoding: 8216 8216 131
Width: 162
VWidth: 825
Flags: W
LayerCount: 2
Fore
SplineSet
4 717 m 0
 13 753 15 752 51 743 c 0
 106 729 86 706 108 687 c 0
 112 684 125 648 126 638 c 0
 127 631 145 563 142 534 c 0
 140 510 140 510 127 499 c 0
 125 497 116 496 102 496 c 0
 81 496 80 496 73 502 c 0
 62 511 61 513 59 542 c 0
 57 591 43 643 28 659 c 0
 19 669 17 673 18 674 c 0
 19 675 18 675 17 675 c 0
 16 675 14 676 14 677 c 0
 14 681 9 680 3 692 c 0
 -1 699 -1 699 4 717 c 0
EndSplineSet
EndChar

StartChar: three
Encoding: 51 51 132
Width: 455
VWidth: 786
Flags: W
LayerCount: 2
Fore
SplineSet
332 158 m 0
 332 167 337 181 338 203 c 0
 338 223 332 268 328 275 c 0
 324 282 305 292 276 302 c 0
 243 314 233 316 210 313 c 0
 199 312 188 310 185 309 c 0
 176 306 170 309 159 319 c 0
 138 338 138 341 143 366 c 0
 147 384 171 412 171 412 c 0
 177 420 197 449 204 456 c 0
 207 459 210 463 210 464 c 0
 210 466 235 501 241 507 c 0
 245 511 245 510 212 509 c 0
 175 508 142 506 119 503 c 0
 96 500 92 506 76 505 c 0
 47 505 42 507 37 530 c 0
 33 548 33 552 37 558 c 0
 48 574 75 571 88 578 c 0
 102 585 306 593 306 600 c 0
 306 601 308 602 310 601 c 0
 321 597 345 603 363 588 c 0
 364 587 367 585 369 584 c 0
 381 578 385 549 377 536 c 0
 375 533 374 529 374 527 c 0
 374 521 363 517 361 511 c 0
 360 509 359 507 358 507 c 0
 357 507 353 506 348 503 c 0
 338 498 336 496 284 430 c 0
 272 414 272 414 255 392 c 1
 261 391 267 390 267 388 c 0
 267 387 319 375 326 369 c 0
 331 366 351 360 354 356 c 0
 360 349 367 354 389 330 c 0
 402 315 402 315 407 298 c 0
 414 275 423 218 419 213 c 0
 416 210 418 178 416 162 c 0
 411 117 385 82 386 82 c 0
 388 82 364 47 355 36 c 0
 347 26 314 -9 258 -14 c 0
 251 -14 242 -16 236 -17 c 0
 211 -22 182 -18 147 -7 c 0
 84 13 62 20 32 70 c 0
 25 81 19 91 18 92 c 0
 17 92 -8 139 3 161 c 0
 9 173 16 178 35 182 c 2
 52 185 l 1
 61 181 l 2
 66 179 70 175 71 173 c 0
 71 172 97 110 112 96 c 0
 119 89 137 80 165 70 c 2
 189 62 l 1
 216 63 l 2
 244 64 266 68 276 73 c 0
 295 83 332 142 332 158 c 0
EndSplineSet
EndChar

StartChar: quotesingle
Encoding: 39 39 133
Width: 109
VWidth: 781
Flags: W
LayerCount: 2
Fore
SplineSet
31 704 m 0
 50 707 67 706 71 703 c 0
 80 696 90 596 86 594 c 0
 85 593 84 571 84 546 c 0
 84 510 85 499 87 496 c 0
 92 490 87 477 80 475 c 0
 74 473 75 468 71 468 c 0
 69 468 68 466 67 464 c 0
 65 461 45 450 29 457 c 0
 22 460 9 474 8 481 c 0
 7 484 5 488 4 491 c 0
 -1 502 6 609 1 655 c 0
 -1 675 -1 677 3 683 c 0
 13 701 14 702 31 704 c 0
EndSplineSet
EndChar

StartChar: quotedbl
Encoding: 34 34 134
Width: 223
VWidth: 780
Flags: W
LayerCount: 2
Fore
SplineSet
141 700 m 0
 163 708 171 708 178 701 c 0
 184 695 206 636 203 634 c 0
 200 632 203 625 200 621 c 0
 195 616 185 509 185 492 c 2
 185 474 l 1
 174 465 172 464 156 461 c 0
 131 457 119 460 113 467 c 0
 102 480 97 485 109 574 c 0
 116 624 118 644 112 657 c 0
 110 659 116 676 118 683 c 0
 120 692 122 693 141 700 c 0
6 622 m 0
 6 633 7 678 18 689 c 0
 24 695 24 695 46 695 c 0
 67 695 69 695 74 690 c 0
 82 683 85 677 84 668 c 0
 82 650 89 659 85 602 c 0
 84 584 83 551 82 526 c 0
 81 483 81 481 76 474 c 0
 71 466 70 466 41 461 c 0
 25 458 23 458 18 461 c 0
 1 472 -1 482 1 532 c 0
 1 532 6 621 6 622 c 0
EndSplineSet
EndChar

StartChar: four
Encoding: 52 52 135
Width: 419
VWidth: 775
Flags: W
LayerCount: 2
Fore
SplineSet
303 43 m 0
 303 73 291 50 291 204 c 0
 291 240 291 275 291 280 c 0
 291 285 291 289 290 290 c 0
 287 293 243 291 229 287 c 0
 194 277 178 273 174 273 c 0
 165 273 112 248 67 255 c 0
 40 259 26 267 13 288 c 0
 -14 330 8 398 9 399 c 0
 15 411 24 492 31 509 c 0
 36 522 35 569 52 588 c 0
 57 593 58 593 75 593 c 0
 116 593 116 587 116 531 c 0
 116 502 115 498 112 496 c 0
 106 492 112 488 95 419 c 0
 90 401 80 341 80 335 c 0
 80 329 116 340 178 357 c 0
 218 368 244 372 278 372 c 2
 296 372 l 1
 298 387 l 2
 298 389 304 467 295 549 c 0
 293 565 295 575 299 575 c 0
 301 575 298 579 299 579 c 0
 299 579 312 581 326 584 c 0
 363 591 366 592 377 536 c 0
 383 504 383 504 380 411 c 0
 379 381 378 349 377 339 c 0
 371 247 370 156 375 112 c 0
 377 97 381 66 384 44 c 2
 389 3 l 1
 384 -4 381 -7 372 -10 c 0
 360 -14 337 -19 331 -19 c 0
 329 -19 322 -14 317 -9 c 0
 311 -4 303 4 303 43 c 0
EndSplineSet
EndChar

StartChar: five
Encoding: 53 53 136
Width: 482
VWidth: 800
Flags: W
LayerCount: 2
Fore
SplineSet
70 18 m 0
 62 18 20 62 20 65 c 0
 20 68 13 72 11 80 c 0
 9 88 6 88 6 94 c 0
 6 96 5 104 3 110 c 0
 -5 134 10 153 13 177 c 0
 15 190 17 192 31 192 c 0
 48 192 52 189 52 176 c 0
 52 169 53 164 55 161 c 0
 62 154 71 127 91 105 c 0
 97 98 103 93 104 93 c 0
 108 93 113 84 150 73 c 0
 174 66 174 66 194 68 c 0
 232 72 243 82 262 97 c 0
 283 114 304 162 305 163 c 0
 307 166 339 293 298 339 c 0
 258 387 178 339 170 330 c 0
 162 321 124 314 118 320 c 0
 116 322 113 323 111 323 c 0
 105 323 100 329 92 344 c 0
 81 366 81 367 87 504 c 0
 90 562 91 584 101 589 c 0
 103 590 152 594 158 589 c 0
 162 585 181 587 226 591 c 0
 322 596 377 599 416 610 c 0
 442 617 447 604 448 602 c 0
 450 594 457 594 458 582 c 0
 459 577 460 572 461 570 c 0
 466 561 454 541 440 535 c 0
 395 516 194 511 175 504 c 0
 167 501 167 501 166 456 c 0
 165 425 166 418 169 423 c 0
 171 426 199 435 216 438 c 0
 241 443 282 440 295 433 c 0
 300 430 307 431 315 427 c 0
 318 425 320 424 321 424 c 0
 322 424 349 410 367 384 c 0
 374 374 384 355 384 351 c 0
 384 350 384 348 385 348 c 0
 386 348 386 349 395 315 c 0
 402 292 398 189 390 170 c 0
 386 160 382 148 383 147 c 0
 386 142 362 91 350 75 c 0
 347 71 344 68 344 67 c 0
 344 64 310 32 305 30 c 0
 303 29 301 27 301 26 c 0
 301 26 260 -17 170 -13 c 0
 122 -11 71 18 70 18 c 0
EndSplineSet
EndChar

StartChar: six
Encoding: 54 54 137
Width: 436
VWidth: 804
Flags: W
LayerCount: 2
Fore
SplineSet
380 58 m 0
 380 49 329 6 326 6 c 0
 325 6 292 -15 269 -20 c 0
 243 -27 200 -37 151 -15 c 0
 135 -7 108 7 99 14 c 0
 72 35 43 80 34 113 c 0
 32 120 30 127 29 129 c 0
 15 155 13 241 16 266 c 0
 16 268 32 389 65 448 c 0
 80 474 108 524 145 557 c 0
 159 569 179 583 182 583 c 0
 183 583 211 605 227 610 c 0
 233 612 244 611 272 606 c 0
 279 605 293 594 293 589 c 0
 293 582 303 590 294 546 c 0
 292 536 273 540 267 535 c 0
 264 533 259 531 254 531 c 0
 243 531 233 524 202 497 c 0
 168 467 152 444 136 403 c 0
 131 389 125 375 123 372 c 0
 106 336 95 252 99 252 c 0
 101 252 208 300 268 297 c 0
 298 295 311 292 334 280 c 0
 345 274 356 270 357 270 c 0
 361 270 388 243 389 238 c 0
 390 235 393 231 396 228 c 0
 398 226 421 202 415 141 c 0
 412 118 396 78 383 64 c 0
 381 62 380 60 380 58 c 0
211 208 m 0
 210 208 107 175 103 164 c 0
 102 160 116 123 125 106 c 0
 162 41 269 25 323 120 c 0
 351 171 324 239 211 208 c 0
EndSplineSet
EndChar

StartChar: seven
Encoding: 55 55 138
Width: 402
VWidth: 783
Flags: W
LayerCount: 2
Fore
SplineSet
379 527 m 0
 365 504 l 0
 365 502 316 434 277 319 c 0
 270 299 270 309 263 280 c 0
 256 251 248 230 242 202 c 0
 242 200 205 31 190 -1 c 0
 178 -29 178 -29 176 -29 c 0
 169 -29 169 -49 138 -32 c 0
 103 -13 99 -7 115 25 c 0
 137 67 157 214 167 235 c 0
 171 243 196 347 203 358 c 0
 205 361 209 377 221 401 c 0
 225 410 229 416 229 417 c 0
 229 421 274 507 273 509 c 0
 272 510 119 515 101 511 c 0
 93 509 82 508 76 508 c 0
 59 508 73 507 40 505 c 0
 11 504 9 506 2 539 c 0
 -2 559 0 564 11 573 c 0
 24 584 77 589 82 590 c 0
 113 593 113 594 113 593 c 0
 113 592 129 591 148 591 c 0
 258 590 359 589 359 585 c 0
 359 584 360 583 362 583 c 0
 364 583 365 582 365 581 c 0
 365 580 369 578 373 575 c 0
 382 569 383 568 382 550 c 0
 381 528 381 527 379 527 c 0
EndSplineSet
EndChar

StartChar: eight
Encoding: 56 56 139
Width: 396
VWidth: 787
Flags: W
LayerCount: 2
Fore
SplineSet
50 17 m 0
 41 17 13 66 13 75 c 0
 13 77 12 81 10 82 c 0
 5 87 3 133 7 162 c 0
 8 170 21 205 24 208 c 0
 28 212 37 239 51 261 c 0
 61 277 95 312 111 324 c 2
 118 330 l 1
 108 336 l 1
 -28 420 63 527 78 540 c 0
 78 540 102 561 112 569 c 0
 124 579 161 596 170 596 c 0
 176 596 198 607 233 597 c 0
 260 589 274 574 274 574 c 0
 277 573 296 543 296 539 c 0
 296 536 298 541 304 535 c 0
 306 533 308 531 308 532 c 0
 308 539 331 501 337 470 c 0
 345 430 342 420 336 402 c 0
 331 387 327 381 323 378 c 0
 314 371 310 360 288 342 c 0
 279 335 272 330 272 329 c 0
 272 328 335 277 335 269 c 0
 335 268 353 241 358 218 c 0
 365 183 365 183 366 181 c 0
 368 177 364 140 359 125 c 0
 356 114 336 69 332 65 c 0
 330 63 324 56 320 50 c 0
 306 30 270 4 244 -4 c 0
 117 -42 52 17 50 17 c 0
222 512 m 0
 214 521 213 521 205 521 c 0
 194 521 181 518 175 515 c 0
 152 503 120 471 115 454 c 0
 112 446 119 429 129 419 c 0
 137 411 191 378 196 378 c 0
 197 378 242 403 254 420 c 0
 263 432 255 470 246 475 c 0
 239 479 237 485 237 494 c 0
 237 503 231 506 231 504 c 0
 231 503 227 507 222 512 c 0
214 272 m 0
 196 286 198 286 178 273 c 0
 146 252 100 211 89 138 c 2
 85 113 l 1
 91 99 l 2
 101 73 111 68 153 66 c 0
 195 64 224 71 244 87 c 0
 254 95 272 119 279 136 c 0
 284 147 285 165 281 188 c 0
 278 205 275 225 214 272 c 0
EndSplineSet
EndChar

StartChar: nine
Encoding: 57 57 140
Width: 405
VWidth: 811
Flags: W
LayerCount: 2
Fore
SplineSet
138 601 m 0
 169 619 218 619 219 619 c 0
 251 611 278 603 291 591 c 0
 295 587 305 585 307 580 c 0
 308 578 309 577 310 577 c 0
 312 577 316 573 332 555 c 0
 337 549 345 540 349 536 c 0
 356 529 356 527 357 515 c 2
 358 502 l 1
 370 496 l 2
 376 493 381 490 382 489 c 0
 382 489 389 469 380 451 c 0
 377 445 375 439 375 438 c 0
 375 434 370 429 369 421 c 0
 365 401 338 347 332 317 c 0
 331 314 266 90 260 62 c 0
 251 18 243 2 243 2 c 0
 243 2 240 -15 227 -21 c 0
 219 -24 220 -24 195 -16 c 2
 170 -8 l 1
 167 -2 164 6 161 12 c 1
 169 37 l 2
 179 74 184 77 186 99 c 0
 187 115 228 249 230 253 c 0
 233 258 239 278 239 283 c 0
 239 288 252 327 251 326 c 0
 198 296 146 289 145 288 c 0
 141 286 100 287 88 290 c 0
 -8 314 -11 415 11 462 c 0
 12 464 15 472 18 479 c 0
 45 545 114 592 126 595 c 0
 129 596 134 599 138 601 c 0
289 468 m 0
 269 522 225 547 187 535 c 0
 154 524 85 477 83 409 c 0
 82 384 83 367 124 368 c 0
 174 370 247 408 278 444 c 0
 292 461 292 461 289 468 c 0
EndSplineSet
EndChar

StartChar: zero
Encoding: 48 48 141
Width: 464
VWidth: 774
Flags: W
LayerCount: 2
Fore
SplineSet
10 252 m 0
 10 340 25 361 25 378 c 0
 25 392 52 467 64 488 c 0
 89 530 89 531 97 539 c 0
 102 545 106 551 106 552 c 0
 106 555 131 579 133 579 c 0
 136 579 154 592 167 595 c 0
 190 602 217 592 218 592 c 0
 224 592 247 581 247 578 c 0
 247 578 251 578 257 572 c 0
 269 559 317 555 326 545 c 0
 333 537 352 534 376 502 c 0
 428 435 433 310 433 308 c 0
 432 293 435 294 433 255 c 0
 431 225 431 224 420 191 c 0
 409 157 402 143 402 142 c 0
 402 141 359 63 313 40 c 0
 289 27 289 27 288 27 c 0
 283 27 262 15 256 15 c 0
 240 15 257 9 205 9 c 0
 185 9 158 9 111 38 c 0
 97 47 64 80 60 89 c 0
 57 96 37 129 37 134 c 0
 37 141 10 180 10 252 c 0
289 472 m 0
 233 503 199 472 179 506 c 0
 175 512 152 482 152 482 c 0
 137 460 117 405 113 397 c 0
 112 395 78 303 98 204 c 0
 102 184 108 151 144 116 c 0
 160 101 164 99 175 95 c 0
 241 74 314 121 343 213 c 2
 350 236 l 1
 350 277 l 2
 350 335 343 382 325 426 c 0
 314 454 308 461 289 472 c 0
EndSplineSet
EndChar

StartChar: _comic_notdef
Encoding: 1114136 -1 145
Width: 607
VWidth: 116
Flags: W
LayerCount: 2
Fore
SplineSet
45.970703125 380.44921875 m 0
 45.970703125 385.205078125 44.3857421875 389.959960938 44.3857421875 398.678710938 c 0
 44.3857421875 421.6640625 52.3115234375 424.041992188 54.689453125 462.879882812 c 0
 55.482421875 483.487304688 59.4453125 494.583984375 59.4453125 504.094726562 c 0
 59.4453125 518.362304688 64.9931640625 521.532226562 64.9931640625 534.213867188 c 0
 64.9931640625 546.103515625 66.578125 543.725585938 69.7490234375 565.91796875 c 0
 72.126953125 585.733398438 76.08984375 600 96.697265625 600 c 0
 123.645507812 600 133.157226562 581.770507812 138.705078125 572.258789062 c 1
 145.838867188 572.258789062 l 2
 161.690429688 572.258789062 178.3359375 576.221679688 197.358398438 576.221679688 c 0
 226.684570312 576.221679688 205.284179688 580.184570312 292.470703125 582.5625 c 0
 319.418945312 583.35546875 332.892578125 584.940429688 337.6484375 585.733398438 c 0
 351.123046875 588.903320312 409.775390625 590.489257812 462.879882812 590.489257812 c 0
 549.2734375 590.489257812 554.029296875 587.318359375 560.370117188 582.5625 c 0
 565.91796875 578.599609375 574.63671875 577.014648438 580.184570312 569.880859375 c 0
 588.111328125 561.162109375 587.318359375 545.310546875 587.318359375 543.725585938 c 0
 587.318359375 533.421875 583.35546875 515.984375 577.807617188 504.887695312 c 0
 572.258789062 493.791015625 570.673828125 485.865234375 569.088867188 463.672851562 c 0
 566.7109375 435.931640625 560.370117188 409.775390625 560.370117188 388.375 c 0
 559.577148438 357.463867188 554.029296875 360.633789062 554.029296875 319.418945312 c 0
 554.029296875 318.625976562 554.029296875 317.041015625 554.029296875 316.248046875 c 0
 554.029296875 304.359375 553.236328125 291.677734375 552.444335938 286.129882812 c 0
 548.48046875 252.83984375 546.103515625 235.403320312 544.517578125 229.0625 c 0
 536.591796875 200.528320312 542.139648438 142.66796875 527.081054688 117.3046875 c 0
 523.91015625 111.756835938 523.1171875 110.963867188 520.740234375 105.416015625 c 0
 518.362304688 100.66015625 515.19140625 96.697265625 510.435546875 94.3193359375 c 0
 504.094726562 90.3564453125 497.75390625 83.2236328125 484.280273438 77.6748046875 c 0
 470.805664062 72.126953125 470.013671875 64.9931640625 458.916992188 61.8232421875 c 0
 455.74609375 61.0302734375 455.74609375 61.0302734375 421.6640625 50.7265625 c 1
 371.73046875 50.7265625 326.551757812 49.93359375 317.833984375 48.3486328125 c 0
 311.493164062 46.763671875 290.884765625 46.763671875 268.692382812 45.970703125 c 0
 226.684570312 44.3857421875 217.965820312 43.5927734375 205.284179688 38.044921875 c 0
 186.26171875 30.119140625 160.8984375 28.533203125 137.913085938 20.607421875 c 0
 133.950195312 19.0224609375 125.231445312 16.64453125 122.060546875 16.64453125 c 0
 113.341796875 14.2666015625 98.2822265625 7.92578125 97.490234375 7.1337890625 c 0
 89.564453125 1.5849609375 79.259765625 0 68.1640625 0 c 0
 53.1044921875 0 47.5556640625 3.962890625 44.3857421875 7.1337890625 c 0
 38.837890625 12.681640625 31.7041015625 14.2666015625 26.15625 19.8154296875 c 0
 22.1923828125 23.7783203125 19.8154296875 27.7412109375 16.64453125 35.6669921875 c 0
 10.3037109375 49.93359375 7.92578125 57.8603515625 7.92578125 71.333984375 c 0
 7.92578125 82.4306640625 11.0966796875 109.37890625 11.0966796875 133.950195312 c 0
 11.0966796875 145.838867188 11.888671875 154.557617188 14.2666015625 163.276367188 c 0
 18.2294921875 180.712890625 26.15625 244.9140625 26.15625 261.55859375 c 2
 26.15625 261.55859375 26.15625 264.729492188 26.15625 265.521484375 c 0
 26.15625 271.862304688 26.9482421875 276.618164062 28.533203125 281.374023438 c 0
 36.4599609375 301.981445312 37.251953125 343.989257812 42.0078125 359.841796875 c 0
 44.3857421875 369.352539062 45.970703125 379.65625 45.970703125 380.44921875 c 0
492.999023438 446.235351562 m 0
 492.999023438 447.02734375 502.509765625 495.376953125 502.509765625 516.776367188 c 0
 502.509765625 519.947265625 501.717773438 522.325195312 501.717773438 523.1171875 c 1
 498.546875 523.1171875 487.450195312 523.91015625 456.5390625 523.91015625 c 0
 452.576171875 523.91015625 447.8203125 523.91015625 443.857421875 523.91015625 c 0
 391.545898438 523.91015625 340.819335938 522.325195312 329.72265625 520.740234375 c 0
 304.359375 516.776367188 286.921875 519.947265625 239.366210938 511.228515625 c 0
 226.684570312 508.850585938 145.838867188 504.887695312 139.498046875 503.302734375 c 1
 139.498046875 503.302734375 138.705078125 501.717773438 135.53515625 497.75390625 c 0
 129.986328125 489.828125 131.572265625 492.999023438 126.81640625 458.916992188 c 0
 126.0234375 450.991210938 124.438476562 438.309570312 122.853515625 431.17578125 c 0
 122.060546875 424.834960938 120.475585938 405.8125 119.682617188 390.752929688 c 0
 118.890625 363.8046875 118.09765625 360.633789062 113.341796875 351.915039062 c 0
 108.586914062 342.404296875 107.793945312 337.6484375 106.208984375 308.322265625 c 0
 105.416015625 290.884765625 104.623046875 283.751953125 103.831054688 281.374023438 c 2
 103.831054688 281.374023438 103.831054688 280.581054688 103.038085938 279.7890625 c 0
 103.038085938 278.203125 103.038085938 274.240234375 103.038085938 269.484375 c 0
 99.8681640625 202.90625 95.1123046875 266.314453125 88.771484375 156.935546875 c 0
 87.1865234375 134.7421875 86.3935546875 113.341796875 83.2236328125 101.453125 c 0
 81.6376953125 95.9052734375 80.845703125 90.3564453125 80.845703125 86.3935546875 c 0
 80.845703125 85.6005859375 80.845703125 85.6005859375 80.845703125 81.6376953125 c 0
 82.4306640625 80.845703125 84.80859375 80.052734375 86.3935546875 79.259765625 c 0
 99.8681640625 82.4306640625 101.453125 83.2236328125 110.963867188 87.1865234375 c 0
 120.475585938 91.1494140625 130.779296875 95.1123046875 152.1796875 96.697265625 c 0
 168.82421875 98.2822265625 194.98046875 103.038085938 201.321289062 105.416015625 c 0
 217.172851562 110.963867188 230.647460938 111.756835938 263.936523438 113.341796875 c 0
 305.944335938 114.927734375 320.2109375 116.512695312 365.389648438 118.09765625 c 0
 375.693359375 118.09765625 401.849609375 119.682617188 408.982421875 122.060546875 c 0
 416.909179688 125.231445312 440.686523438 129.986328125 446.235351562 132.364257812 c 0
 449.405273438 133.950195312 454.954101562 141.875976562 458.124023438 152.1796875 c 0
 459.708984375 156.935546875 462.086914062 164.068359375 463.672851562 168.03125 c 0
 464.46484375 170.409179688 466.049804688 177.54296875 466.049804688 180.712890625 c 0
 466.049804688 190.224609375 470.805664062 214.002929688 473.9765625 249.669921875 c 0
 477.939453125 296.43359375 480.317382812 272.655273438 481.90234375 312.28515625 c 0
 482.6953125 324.966796875 484.280273438 342.404296875 485.072265625 351.915039062 c 0
 486.658203125 361.426757812 487.450195312 378.864257812 487.450195312 398.678710938 c 0
 487.450195312 429.590820312 487.450195312 435.931640625 492.999023438 446.235351562 c 0
347.952148438 424.041992188 m 0
 338.44140625 424.041992188 325.759765625 428.004882812 313.078125 428.004882812 c 0
 303.56640625 428.004882812 299.603515625 426.419921875 298.018554688 424.041992188 c 0
 292.470703125 416.116210938 285.336914062 410.568359375 275.825195312 410.568359375 c 0
 259.973632812 410.568359375 244.12109375 418.494140625 244.12109375 433.553710938 c 0
 244.12109375 439.89453125 244.9140625 459.708984375 256.802734375 471.598632812 c 0
 265.521484375 481.109375 281.374023438 493.791015625 313.870117188 493.791015625 c 0
 324.966796875 493.791015625 337.6484375 491.413085938 351.123046875 489.036132812 c 0
 396.30078125 479.524414062 402.641601562 477.146484375 406.60546875 473.9765625 c 0
 431.96875 456.5390625 435.931640625 453.368164062 439.89453125 440.686523438 c 0
 443.064453125 430.3828125 445.442382812 423.25 445.442382812 415.323242188 c 0
 445.442382812 408.982421875 442.272460938 390.752929688 435.138671875 379.65625 c 0
 428.797851562 370.145507812 423.25 369.352539062 410.568359375 358.255859375 c 0
 397.88671875 347.16015625 398.678710938 351.915039062 389.16796875 343.197265625 c 0
 376.486328125 332.100585938 378.864257812 339.233398438 360.633789062 323.381835938 c 0
 355.87890625 319.418945312 352.708007812 317.041015625 349.538085938 315.456054688 c 0
 347.16015625 314.663085938 342.404296875 304.359375 339.233398438 301.188476562 c 0
 340.026367188 298.811523438 342.404296875 293.262695312 342.404296875 287.71484375 c 0
 342.404296875 280.581054688 338.44140625 275.033203125 333.685546875 268.692382812 c 0
 327.344726562 259.973632812 319.418945312 253.6328125 309.115234375 253.6328125 c 0
 293.262695312 253.6328125 282.958984375 263.143554688 276.618164062 269.484375 c 0
 266.314453125 278.99609375 263.936523438 280.581054688 261.55859375 291.677734375 c 0
 260.766601562 296.43359375 259.180664062 300.396484375 259.180664062 304.359375 c 0
 259.180664062 307.529296875 259.973632812 309.907226562 260.766601562 313.870117188 c 0
 263.143554688 328.9296875 267.899414062 338.44140625 281.374023438 351.915039062 c 0
 291.677734375 362.219726562 296.43359375 366.182617188 304.359375 368.560546875 c 0
 310.700195312 370.145507812 309.907226562 371.73046875 312.28515625 374.108398438 c 0
 314.663085938 376.486328125 318.625976562 379.65625 322.588867188 382.034179688 c 0
 327.344726562 384.412109375 355.87890625 410.568359375 364.596679688 416.116210938 c 1
 358.255859375 423.25 355.0859375 424.041992188 347.952148438 424.041992188 c 0
309.907226562 211.625 m 0
 318.625976562 211.625 345.57421875 195.772460938 345.57421875 175.958007812 c 0
 345.57421875 167.239257812 340.819335938 157.727539062 336.063476562 152.97265625 c 0
 329.72265625 146.631835938 324.174804688 146.631835938 293.262695312 142.66796875 c 0
 289.299804688 141.875976562 285.336914062 141.875976562 282.166015625 141.875976562 c 0
 269.484375 141.875976562 264.729492188 149.008789062 258.388671875 156.935546875 c 0
 251.254882812 165.654296875 247.291992188 171.202148438 247.291992188 179.127929688 c 0
 247.291992188 207.662109375 260.766601562 208.454101562 301.981445312 211.625 c 0
 309.115234375 212.416992188 309.115234375 211.625 309.907226562 211.625 c 0
EndSplineSet
EndChar

